<?xml version="1.0" encoding="utf-8" standalone="no"?>
<!DOCTYPE svg PUBLIC "-//W3C//DTD SVG 1.1//EN"
  "http://www.w3.org/Graphics/SVG/1.1/DTD/svg11.dtd">
<svg xmlns:xlink="http://www.w3.org/1999/xlink" width="545.071406pt" height="417.233437pt" viewBox="0 0 545.071406 417.233437" xmlns="http://www.w3.org/2000/svg" version="1.1">
 <metadata>
  <rdf:RDF xmlns:dc="http://purl.org/dc/elements/1.1/" xmlns:cc="http://creativecommons.org/ns#" xmlns:rdf="http://www.w3.org/1999/02/22-rdf-syntax-ns#">
   <cc:Work>
    <dc:type rdf:resource="http://purl.org/dc/dcmitype/StillImage"/>
    <dc:date>2026-03-08T16:22:46.764204</dc:date>
    <dc:format>image/svg+xml</dc:format>
    <dc:creator>
     <cc:Agent>
      <dc:title>Matplotlib v3.10.0, https://matplotlib.org/</dc:title>
     </cc:Agent>
    </dc:creator>
   </cc:Work>
  </rdf:RDF>
 </metadata>
 <defs>
  <style type="text/css">*{stroke-linejoin: round; stroke-linecap: butt}</style>
 </defs>
 <g id="figure_1">
  <g id="patch_1">
   <path d="M 0 417.233437 
L 545.071406 417.233437 
L 545.071406 0 
L 0 0 
z
" style="fill: #ffffff"/>
  </g>
  <g id="axes_1">
   <g id="patch_2">
    <path d="M 76.456875 360.399375 
L 522.856875 360.399375 
L 522.856875 27.759375 
L 76.456875 27.759375 
z
" style="fill: #ffffff"/>
   </g>
   <g id="patch_3">
    <path d="M 160.156875 360.399375 
L 243.856875 360.399375 
L 243.856875 27.759375 
L 160.156875 27.759375 
z
" clip-path="url(#p5c38f142b1)" style="fill: #d9d9d9; opacity: 0.7; stroke: #d9d9d9; stroke-width: 1.5; stroke-linejoin: miter"/>
   </g>
   <g id="matplotlib.axis_1">
    <g id="xtick_1">
     <g id="line2d_1">
      <path d="M 76.456875 360.399375 
L 76.456875 27.759375 
" clip-path="url(#p5c38f142b1)" style="fill: none; stroke-dasharray: 5.55,2.4; stroke-dashoffset: 0; stroke: #cccccc; stroke-opacity: 0.35; stroke-width: 1.5"/>
     </g>
     <g id="text_1">
      <!-- 0 -->
      <g style="fill: #262626" transform="translate(71.452031 385.783437) scale(0.18 -0.18)">
       <defs>
        <path id="ArialMT-30" d="M 266 2259 
Q 266 3072 433 3567 
Q 600 4063 929 4331 
Q 1259 4600 1759 4600 
Q 2128 4600 2406 4451 
Q 2684 4303 2865 4023 
Q 3047 3744 3150 3342 
Q 3253 2941 3253 2259 
Q 3253 1453 3087 958 
Q 2922 463 2592 192 
Q 2263 -78 1759 -78 
Q 1097 -78 719 397 
Q 266 969 266 2259 
z
M 844 2259 
Q 844 1131 1108 757 
Q 1372 384 1759 384 
Q 2147 384 2411 759 
Q 2675 1134 2675 2259 
Q 2675 3391 2411 3762 
Q 2147 4134 1753 4134 
Q 1366 4134 1134 3806 
Q 844 3388 844 2259 
z
" transform="scale(0.015625)"/>
       </defs>
       <use xlink:href="#ArialMT-30"/>
      </g>
     </g>
    </g>
    <g id="xtick_2">
     <g id="line2d_2">
      <path d="M 132.256875 360.399375 
L 132.256875 27.759375 
" clip-path="url(#p5c38f142b1)" style="fill: none; stroke-dasharray: 5.55,2.4; stroke-dashoffset: 0; stroke: #cccccc; stroke-opacity: 0.35; stroke-width: 1.5"/>
     </g>
     <g id="text_2">
      <!-- 100 -->
      <g style="fill: #262626" transform="translate(117.242344 385.783437) scale(0.18 -0.18)">
       <defs>
        <path id="ArialMT-31" d="M 2384 0 
L 1822 0 
L 1822 3584 
Q 1619 3391 1289 3197 
Q 959 3003 697 2906 
L 697 3450 
Q 1169 3672 1522 3987 
Q 1875 4303 2022 4600 
L 2384 4600 
L 2384 0 
z
" transform="scale(0.015625)"/>
       </defs>
       <use xlink:href="#ArialMT-31"/>
       <use xlink:href="#ArialMT-30" transform="translate(55.615234 0)"/>
       <use xlink:href="#ArialMT-30" transform="translate(111.230469 0)"/>
      </g>
     </g>
    </g>
    <g id="xtick_3">
     <g id="line2d_3">
      <path d="M 188.056875 360.399375 
L 188.056875 27.759375 
" clip-path="url(#p5c38f142b1)" style="fill: none; stroke-dasharray: 5.55,2.4; stroke-dashoffset: 0; stroke: #cccccc; stroke-opacity: 0.35; stroke-width: 1.5"/>
     </g>
     <g id="text_3">
      <!-- 200 -->
      <g style="fill: #262626" transform="translate(173.042344 385.783437) scale(0.18 -0.18)">
       <defs>
        <path id="ArialMT-32" d="M 3222 541 
L 3222 0 
L 194 0 
Q 188 203 259 391 
Q 375 700 629 1000 
Q 884 1300 1366 1694 
Q 2113 2306 2375 2664 
Q 2638 3022 2638 3341 
Q 2638 3675 2398 3904 
Q 2159 4134 1775 4134 
Q 1369 4134 1125 3890 
Q 881 3647 878 3216 
L 300 3275 
Q 359 3922 746 4261 
Q 1134 4600 1788 4600 
Q 2447 4600 2831 4234 
Q 3216 3869 3216 3328 
Q 3216 3053 3103 2787 
Q 2991 2522 2730 2228 
Q 2469 1934 1863 1422 
Q 1356 997 1212 845 
Q 1069 694 975 541 
L 3222 541 
z
" transform="scale(0.015625)"/>
       </defs>
       <use xlink:href="#ArialMT-32"/>
       <use xlink:href="#ArialMT-30" transform="translate(55.615234 0)"/>
       <use xlink:href="#ArialMT-30" transform="translate(111.230469 0)"/>
      </g>
     </g>
    </g>
    <g id="xtick_4">
     <g id="line2d_4">
      <path d="M 243.856875 360.399375 
L 243.856875 27.759375 
" clip-path="url(#p5c38f142b1)" style="fill: none; stroke-dasharray: 5.55,2.4; stroke-dashoffset: 0; stroke: #cccccc; stroke-opacity: 0.35; stroke-width: 1.5"/>
     </g>
     <g id="text_4">
      <!-- 300 -->
      <g style="fill: #262626" transform="translate(228.842344 385.783437) scale(0.18 -0.18)">
       <defs>
        <path id="ArialMT-33" d="M 269 1209 
L 831 1284 
Q 928 806 1161 595 
Q 1394 384 1728 384 
Q 2125 384 2398 659 
Q 2672 934 2672 1341 
Q 2672 1728 2419 1979 
Q 2166 2231 1775 2231 
Q 1616 2231 1378 2169 
L 1441 2663 
Q 1497 2656 1531 2656 
Q 1891 2656 2178 2843 
Q 2466 3031 2466 3422 
Q 2466 3731 2256 3934 
Q 2047 4138 1716 4138 
Q 1388 4138 1169 3931 
Q 950 3725 888 3313 
L 325 3413 
Q 428 3978 793 4289 
Q 1159 4600 1703 4600 
Q 2078 4600 2393 4439 
Q 2709 4278 2876 4000 
Q 3044 3722 3044 3409 
Q 3044 3113 2884 2869 
Q 2725 2625 2413 2481 
Q 2819 2388 3044 2092 
Q 3269 1797 3269 1353 
Q 3269 753 2831 336 
Q 2394 -81 1725 -81 
Q 1122 -81 723 278 
Q 325 638 269 1209 
z
" transform="scale(0.015625)"/>
       </defs>
       <use xlink:href="#ArialMT-33"/>
       <use xlink:href="#ArialMT-30" transform="translate(55.615234 0)"/>
       <use xlink:href="#ArialMT-30" transform="translate(111.230469 0)"/>
      </g>
     </g>
    </g>
    <g id="xtick_5">
     <g id="line2d_5">
      <path d="M 299.656875 360.399375 
L 299.656875 27.759375 
" clip-path="url(#p5c38f142b1)" style="fill: none; stroke-dasharray: 5.55,2.4; stroke-dashoffset: 0; stroke: #cccccc; stroke-opacity: 0.35; stroke-width: 1.5"/>
     </g>
     <g id="text_5">
      <!-- 400 -->
      <g style="fill: #262626" transform="translate(284.642344 385.783437) scale(0.18 -0.18)">
       <defs>
        <path id="ArialMT-34" d="M 2069 0 
L 2069 1097 
L 81 1097 
L 81 1613 
L 2172 4581 
L 2631 4581 
L 2631 1613 
L 3250 1613 
L 3250 1097 
L 2631 1097 
L 2631 0 
L 2069 0 
z
M 2069 1613 
L 2069 3678 
L 634 1613 
L 2069 1613 
z
" transform="scale(0.015625)"/>
       </defs>
       <use xlink:href="#ArialMT-34"/>
       <use xlink:href="#ArialMT-30" transform="translate(55.615234 0)"/>
       <use xlink:href="#ArialMT-30" transform="translate(111.230469 0)"/>
      </g>
     </g>
    </g>
    <g id="xtick_6">
     <g id="line2d_6">
      <path d="M 355.456875 360.399375 
L 355.456875 27.759375 
" clip-path="url(#p5c38f142b1)" style="fill: none; stroke-dasharray: 5.55,2.4; stroke-dashoffset: 0; stroke: #cccccc; stroke-opacity: 0.35; stroke-width: 1.5"/>
     </g>
     <g id="text_6">
      <!-- 500 -->
      <g style="fill: #262626" transform="translate(340.442344 385.783437) scale(0.18 -0.18)">
       <defs>
        <path id="ArialMT-35" d="M 266 1200 
L 856 1250 
Q 922 819 1161 601 
Q 1400 384 1738 384 
Q 2144 384 2425 690 
Q 2706 997 2706 1503 
Q 2706 1984 2436 2262 
Q 2166 2541 1728 2541 
Q 1456 2541 1237 2417 
Q 1019 2294 894 2097 
L 366 2166 
L 809 4519 
L 3088 4519 
L 3088 3981 
L 1259 3981 
L 1013 2750 
Q 1425 3038 1878 3038 
Q 2478 3038 2890 2622 
Q 3303 2206 3303 1553 
Q 3303 931 2941 478 
Q 2500 -78 1738 -78 
Q 1113 -78 717 272 
Q 322 622 266 1200 
z
" transform="scale(0.015625)"/>
       </defs>
       <use xlink:href="#ArialMT-35"/>
       <use xlink:href="#ArialMT-30" transform="translate(55.615234 0)"/>
       <use xlink:href="#ArialMT-30" transform="translate(111.230469 0)"/>
      </g>
     </g>
    </g>
    <g id="xtick_7">
     <g id="line2d_7">
      <path d="M 411.256875 360.399375 
L 411.256875 27.759375 
" clip-path="url(#p5c38f142b1)" style="fill: none; stroke-dasharray: 5.55,2.4; stroke-dashoffset: 0; stroke: #cccccc; stroke-opacity: 0.35; stroke-width: 1.5"/>
     </g>
     <g id="text_7">
      <!-- 600 -->
      <g style="fill: #262626" transform="translate(396.242344 385.783437) scale(0.18 -0.18)">
       <defs>
        <path id="ArialMT-36" d="M 3184 3459 
L 2625 3416 
Q 2550 3747 2413 3897 
Q 2184 4138 1850 4138 
Q 1581 4138 1378 3988 
Q 1113 3794 959 3422 
Q 806 3050 800 2363 
Q 1003 2672 1297 2822 
Q 1591 2972 1913 2972 
Q 2475 2972 2870 2558 
Q 3266 2144 3266 1488 
Q 3266 1056 3080 686 
Q 2894 316 2569 119 
Q 2244 -78 1831 -78 
Q 1128 -78 684 439 
Q 241 956 241 2144 
Q 241 3472 731 4075 
Q 1159 4600 1884 4600 
Q 2425 4600 2770 4297 
Q 3116 3994 3184 3459 
z
M 888 1484 
Q 888 1194 1011 928 
Q 1134 663 1356 523 
Q 1578 384 1822 384 
Q 2178 384 2434 671 
Q 2691 959 2691 1453 
Q 2691 1928 2437 2201 
Q 2184 2475 1800 2475 
Q 1419 2475 1153 2201 
Q 888 1928 888 1484 
z
" transform="scale(0.015625)"/>
       </defs>
       <use xlink:href="#ArialMT-36"/>
       <use xlink:href="#ArialMT-30" transform="translate(55.615234 0)"/>
       <use xlink:href="#ArialMT-30" transform="translate(111.230469 0)"/>
      </g>
     </g>
    </g>
    <g id="xtick_8">
     <g id="line2d_8">
      <path d="M 467.056875 360.399375 
L 467.056875 27.759375 
" clip-path="url(#p5c38f142b1)" style="fill: none; stroke-dasharray: 5.55,2.4; stroke-dashoffset: 0; stroke: #cccccc; stroke-opacity: 0.35; stroke-width: 1.5"/>
     </g>
     <g id="text_8">
      <!-- 700 -->
      <g style="fill: #262626" transform="translate(452.042344 385.783437) scale(0.18 -0.18)">
       <defs>
        <path id="ArialMT-37" d="M 303 3981 
L 303 4522 
L 3269 4522 
L 3269 4084 
Q 2831 3619 2401 2847 
Q 1972 2075 1738 1259 
Q 1569 684 1522 0 
L 944 0 
Q 953 541 1156 1306 
Q 1359 2072 1739 2783 
Q 2119 3494 2547 3981 
L 303 3981 
z
" transform="scale(0.015625)"/>
       </defs>
       <use xlink:href="#ArialMT-37"/>
       <use xlink:href="#ArialMT-30" transform="translate(55.615234 0)"/>
       <use xlink:href="#ArialMT-30" transform="translate(111.230469 0)"/>
      </g>
     </g>
    </g>
    <g id="xtick_9">
     <g id="line2d_9">
      <path d="M 522.856875 360.399375 
L 522.856875 27.759375 
" clip-path="url(#p5c38f142b1)" style="fill: none; stroke-dasharray: 5.55,2.4; stroke-dashoffset: 0; stroke: #cccccc; stroke-opacity: 0.35; stroke-width: 1.5"/>
     </g>
     <g id="text_9">
      <!-- 800 -->
      <g style="fill: #262626" transform="translate(507.842344 385.783437) scale(0.18 -0.18)">
       <defs>
        <path id="ArialMT-38" d="M 1131 2484 
Q 781 2613 612 2850 
Q 444 3088 444 3419 
Q 444 3919 803 4259 
Q 1163 4600 1759 4600 
Q 2359 4600 2725 4251 
Q 3091 3903 3091 3403 
Q 3091 3084 2923 2848 
Q 2756 2613 2416 2484 
Q 2838 2347 3058 2040 
Q 3278 1734 3278 1309 
Q 3278 722 2862 322 
Q 2447 -78 1769 -78 
Q 1091 -78 675 323 
Q 259 725 259 1325 
Q 259 1772 486 2073 
Q 713 2375 1131 2484 
z
M 1019 3438 
Q 1019 3113 1228 2906 
Q 1438 2700 1772 2700 
Q 2097 2700 2305 2904 
Q 2513 3109 2513 3406 
Q 2513 3716 2298 3927 
Q 2084 4138 1766 4138 
Q 1444 4138 1231 3931 
Q 1019 3725 1019 3438 
z
M 838 1322 
Q 838 1081 952 856 
Q 1066 631 1291 507 
Q 1516 384 1775 384 
Q 2178 384 2440 643 
Q 2703 903 2703 1303 
Q 2703 1709 2433 1975 
Q 2163 2241 1756 2241 
Q 1359 2241 1098 1978 
Q 838 1716 838 1322 
z
" transform="scale(0.015625)"/>
       </defs>
       <use xlink:href="#ArialMT-38"/>
       <use xlink:href="#ArialMT-30" transform="translate(55.615234 0)"/>
       <use xlink:href="#ArialMT-30" transform="translate(111.230469 0)"/>
      </g>
     </g>
    </g>
    <g id="text_10">
     <!-- Frequency [Hz] -->
     <g style="fill: #262626" transform="translate(234.652969 406.245) scale(0.18 -0.18)">
      <defs>
       <path id="Arial-BoldMT-46" d="M 472 0 
L 472 4581 
L 3613 4581 
L 3613 3806 
L 1397 3806 
L 1397 2722 
L 3309 2722 
L 3309 1947 
L 1397 1947 
L 1397 0 
L 472 0 
z
" transform="scale(0.015625)"/>
       <path id="Arial-BoldMT-72" d="M 1300 0 
L 422 0 
L 422 3319 
L 1238 3319 
L 1238 2847 
Q 1447 3181 1614 3287 
Q 1781 3394 1994 3394 
Q 2294 3394 2572 3228 
L 2300 2463 
Q 2078 2606 1888 2606 
Q 1703 2606 1575 2504 
Q 1447 2403 1373 2137 
Q 1300 1872 1300 1025 
L 1300 0 
z
" transform="scale(0.015625)"/>
       <path id="Arial-BoldMT-65" d="M 2381 1056 
L 3256 909 
Q 3088 428 2723 176 
Q 2359 -75 1813 -75 
Q 947 -75 531 491 
Q 203 944 203 1634 
Q 203 2459 634 2926 
Q 1066 3394 1725 3394 
Q 2466 3394 2894 2905 
Q 3322 2416 3303 1406 
L 1103 1406 
Q 1113 1016 1316 798 
Q 1519 581 1822 581 
Q 2028 581 2168 693 
Q 2309 806 2381 1056 
z
M 2431 1944 
Q 2422 2325 2234 2523 
Q 2047 2722 1778 2722 
Q 1491 2722 1303 2513 
Q 1116 2303 1119 1944 
L 2431 1944 
z
" transform="scale(0.015625)"/>
       <path id="Arial-BoldMT-71" d="M 2628 -1263 
L 2628 406 
Q 2456 184 2200 54 
Q 1944 -75 1647 -75 
Q 1081 -75 716 350 
Q 284 847 284 1697 
Q 284 2497 689 2945 
Q 1094 3394 1694 3394 
Q 2025 3394 2267 3253 
Q 2509 3113 2697 2828 
L 2697 3319 
L 3506 3319 
L 3506 -1263 
L 2628 -1263 
z
M 2656 1700 
Q 2656 2209 2448 2457 
Q 2241 2706 1928 2706 
Q 1609 2706 1395 2453 
Q 1181 2200 1181 1650 
Q 1181 1103 1387 861 
Q 1594 619 1897 619 
Q 2200 619 2428 891 
Q 2656 1163 2656 1700 
z
" transform="scale(0.015625)"/>
       <path id="Arial-BoldMT-75" d="M 2644 0 
L 2644 497 
Q 2463 231 2167 78 
Q 1872 -75 1544 -75 
Q 1209 -75 943 72 
Q 678 219 559 484 
Q 441 750 441 1219 
L 441 3319 
L 1319 3319 
L 1319 1794 
Q 1319 1094 1367 936 
Q 1416 778 1544 686 
Q 1672 594 1869 594 
Q 2094 594 2272 717 
Q 2450 841 2515 1023 
Q 2581 1206 2581 1919 
L 2581 3319 
L 3459 3319 
L 3459 0 
L 2644 0 
z
" transform="scale(0.015625)"/>
       <path id="Arial-BoldMT-6e" d="M 3478 0 
L 2600 0 
L 2600 1694 
Q 2600 2231 2544 2389 
Q 2488 2547 2361 2634 
Q 2234 2722 2056 2722 
Q 1828 2722 1647 2597 
Q 1466 2472 1398 2265 
Q 1331 2059 1331 1503 
L 1331 0 
L 453 0 
L 453 3319 
L 1269 3319 
L 1269 2831 
Q 1703 3394 2363 3394 
Q 2653 3394 2893 3289 
Q 3134 3184 3257 3021 
Q 3381 2859 3429 2653 
Q 3478 2447 3478 2063 
L 3478 0 
z
" transform="scale(0.015625)"/>
       <path id="Arial-BoldMT-63" d="M 3353 2338 
L 2488 2181 
Q 2444 2441 2289 2572 
Q 2134 2703 1888 2703 
Q 1559 2703 1364 2476 
Q 1169 2250 1169 1719 
Q 1169 1128 1367 884 
Q 1566 641 1900 641 
Q 2150 641 2309 783 
Q 2469 925 2534 1272 
L 3397 1125 
Q 3263 531 2881 228 
Q 2500 -75 1859 -75 
Q 1131 -75 698 384 
Q 266 844 266 1656 
Q 266 2478 700 2936 
Q 1134 3394 1875 3394 
Q 2481 3394 2839 3133 
Q 3197 2872 3353 2338 
z
" transform="scale(0.015625)"/>
       <path id="Arial-BoldMT-79" d="M 44 3319 
L 978 3319 
L 1772 963 
L 2547 3319 
L 3456 3319 
L 2284 125 
L 2075 -453 
Q 1959 -744 1854 -897 
Q 1750 -1050 1614 -1145 
Q 1478 -1241 1279 -1294 
Q 1081 -1347 831 -1347 
Q 578 -1347 334 -1294 
L 256 -606 
Q 463 -647 628 -647 
Q 934 -647 1081 -467 
Q 1228 -288 1306 -9 
L 44 3319 
z
" transform="scale(0.015625)"/>
       <path id="Arial-BoldMT-20" transform="scale(0.015625)"/>
       <path id="Arial-BoldMT-5b" d="M 456 -1291 
L 456 4581 
L 2013 4581 
L 2013 3891 
L 1291 3891 
L 1291 -600 
L 2013 -600 
L 2013 -1291 
L 456 -1291 
z
" transform="scale(0.015625)"/>
       <path id="Arial-BoldMT-48" d="M 469 0 
L 469 4581 
L 1394 4581 
L 1394 2778 
L 3206 2778 
L 3206 4581 
L 4131 4581 
L 4131 0 
L 3206 0 
L 3206 2003 
L 1394 2003 
L 1394 0 
L 469 0 
z
" transform="scale(0.015625)"/>
       <path id="Arial-BoldMT-7a" d="M 106 0 
L 106 684 
L 1350 2113 
Q 1656 2463 1803 2609 
Q 1650 2600 1400 2597 
L 228 2591 
L 228 3319 
L 2972 3319 
L 2972 2697 
L 1703 1234 
L 1256 750 
Q 1622 772 1709 772 
L 3069 772 
L 3069 0 
L 106 0 
z
" transform="scale(0.015625)"/>
       <path id="Arial-BoldMT-5d" d="M 1675 4581 
L 1675 -1291 
L 119 -1291 
L 119 -600 
L 841 -600 
L 841 3897 
L 119 3897 
L 119 4581 
L 1675 4581 
z
" transform="scale(0.015625)"/>
      </defs>
      <use xlink:href="#Arial-BoldMT-46"/>
      <use xlink:href="#Arial-BoldMT-72" transform="translate(61.083984 0)"/>
      <use xlink:href="#Arial-BoldMT-65" transform="translate(100 0)"/>
      <use xlink:href="#Arial-BoldMT-71" transform="translate(155.615234 0)"/>
      <use xlink:href="#Arial-BoldMT-75" transform="translate(216.699219 0)"/>
      <use xlink:href="#Arial-BoldMT-65" transform="translate(277.783203 0)"/>
      <use xlink:href="#Arial-BoldMT-6e" transform="translate(333.398438 0)"/>
      <use xlink:href="#Arial-BoldMT-63" transform="translate(394.482422 0)"/>
      <use xlink:href="#Arial-BoldMT-79" transform="translate(450.097656 0)"/>
      <use xlink:href="#Arial-BoldMT-20" transform="translate(505.712891 0)"/>
      <use xlink:href="#Arial-BoldMT-5b" transform="translate(533.496094 0)"/>
      <use xlink:href="#Arial-BoldMT-48" transform="translate(566.796875 0)"/>
      <use xlink:href="#Arial-BoldMT-7a" transform="translate(639.013672 0)"/>
      <use xlink:href="#Arial-BoldMT-5d" transform="translate(689.013672 0)"/>
     </g>
    </g>
   </g>
   <g id="matplotlib.axis_2">
    <g id="ytick_1">
     <g id="line2d_10">
      <path d="M 76.456875 360.399375 
L 522.856875 360.399375 
" clip-path="url(#p5c38f142b1)" style="fill: none; stroke-dasharray: 5.55,2.4; stroke-dashoffset: 0; stroke: #cccccc; stroke-opacity: 0.35; stroke-width: 1.5"/>
     </g>
     <g id="text_11">
      <!-- -200 -->
      <g style="fill: #262626" transform="translate(27.934375 366.841406) scale(0.18 -0.18)">
       <defs>
        <path id="ArialMT-2d" d="M 203 1375 
L 203 1941 
L 1931 1941 
L 1931 1375 
L 203 1375 
z
" transform="scale(0.015625)"/>
       </defs>
       <use xlink:href="#ArialMT-2d"/>
       <use xlink:href="#ArialMT-32" transform="translate(33.300781 0)"/>
       <use xlink:href="#ArialMT-30" transform="translate(88.916016 0)"/>
       <use xlink:href="#ArialMT-30" transform="translate(144.53125 0)"/>
      </g>
     </g>
    </g>
    <g id="ytick_2">
     <g id="line2d_11">
      <path d="M 76.456875 300.999375 
L 522.856875 300.999375 
" clip-path="url(#p5c38f142b1)" style="fill: none; stroke-dasharray: 5.55,2.4; stroke-dashoffset: 0; stroke: #cccccc; stroke-opacity: 0.35; stroke-width: 1.5"/>
     </g>
     <g id="text_12">
      <!-- -150 -->
      <g style="fill: #262626" transform="translate(27.934375 307.441406) scale(0.18 -0.18)">
       <use xlink:href="#ArialMT-2d"/>
       <use xlink:href="#ArialMT-31" transform="translate(33.300781 0)"/>
       <use xlink:href="#ArialMT-35" transform="translate(88.916016 0)"/>
       <use xlink:href="#ArialMT-30" transform="translate(144.53125 0)"/>
      </g>
     </g>
    </g>
    <g id="ytick_3">
     <g id="line2d_12">
      <path d="M 76.456875 241.599375 
L 522.856875 241.599375 
" clip-path="url(#p5c38f142b1)" style="fill: none; stroke-dasharray: 5.55,2.4; stroke-dashoffset: 0; stroke: #cccccc; stroke-opacity: 0.35; stroke-width: 1.5"/>
     </g>
     <g id="text_13">
      <!-- -100 -->
      <g style="fill: #262626" transform="translate(27.934375 248.041406) scale(0.18 -0.18)">
       <use xlink:href="#ArialMT-2d"/>
       <use xlink:href="#ArialMT-31" transform="translate(33.300781 0)"/>
       <use xlink:href="#ArialMT-30" transform="translate(88.916016 0)"/>
       <use xlink:href="#ArialMT-30" transform="translate(144.53125 0)"/>
      </g>
     </g>
    </g>
    <g id="ytick_4">
     <g id="line2d_13">
      <path d="M 76.456875 182.199375 
L 522.856875 182.199375 
" clip-path="url(#p5c38f142b1)" style="fill: none; stroke-dasharray: 5.55,2.4; stroke-dashoffset: 0; stroke: #cccccc; stroke-opacity: 0.35; stroke-width: 1.5"/>
     </g>
     <g id="text_14">
      <!-- -50 -->
      <g style="fill: #262626" transform="translate(37.944063 188.641406) scale(0.18 -0.18)">
       <use xlink:href="#ArialMT-2d"/>
       <use xlink:href="#ArialMT-35" transform="translate(33.300781 0)"/>
       <use xlink:href="#ArialMT-30" transform="translate(88.916016 0)"/>
      </g>
     </g>
    </g>
    <g id="ytick_5">
     <g id="line2d_14">
      <path d="M 76.456875 122.799375 
L 522.856875 122.799375 
" clip-path="url(#p5c38f142b1)" style="fill: none; stroke-dasharray: 5.55,2.4; stroke-dashoffset: 0; stroke: #cccccc; stroke-opacity: 0.35; stroke-width: 1.5"/>
     </g>
     <g id="text_15">
      <!-- 0 -->
      <g style="fill: #262626" transform="translate(53.947188 129.241406) scale(0.18 -0.18)">
       <use xlink:href="#ArialMT-30"/>
      </g>
     </g>
    </g>
    <g id="ytick_6">
     <g id="line2d_15">
      <path d="M 76.456875 63.399375 
L 522.856875 63.399375 
" clip-path="url(#p5c38f142b1)" style="fill: none; stroke-dasharray: 5.55,2.4; stroke-dashoffset: 0; stroke: #cccccc; stroke-opacity: 0.35; stroke-width: 1.5"/>
     </g>
     <g id="text_16">
      <!-- 50 -->
      <g style="fill: #262626" transform="translate(43.9375 69.841406) scale(0.18 -0.18)">
       <use xlink:href="#ArialMT-35"/>
       <use xlink:href="#ArialMT-30" transform="translate(55.615234 0)"/>
      </g>
     </g>
    </g>
    <g id="text_17">
     <!-- PSD [dB] -->
     <g style="fill: #262626" transform="translate(20.303438 233.076094) rotate(-90) scale(0.18 -0.18)">
      <defs>
       <path id="Arial-BoldMT-50" d="M 466 0 
L 466 4581 
L 1950 4581 
Q 2794 4581 3050 4513 
Q 3444 4409 3709 4064 
Q 3975 3719 3975 3172 
Q 3975 2750 3822 2462 
Q 3669 2175 3433 2011 
Q 3197 1847 2953 1794 
Q 2622 1728 1994 1728 
L 1391 1728 
L 1391 0 
L 466 0 
z
M 1391 3806 
L 1391 2506 
L 1897 2506 
Q 2444 2506 2628 2578 
Q 2813 2650 2917 2803 
Q 3022 2956 3022 3159 
Q 3022 3409 2875 3571 
Q 2728 3734 2503 3775 
Q 2338 3806 1838 3806 
L 1391 3806 
z
" transform="scale(0.015625)"/>
       <path id="Arial-BoldMT-53" d="M 231 1491 
L 1131 1578 
Q 1213 1125 1461 912 
Q 1709 700 2131 700 
Q 2578 700 2804 889 
Q 3031 1078 3031 1331 
Q 3031 1494 2936 1608 
Q 2841 1722 2603 1806 
Q 2441 1863 1863 2006 
Q 1119 2191 819 2459 
Q 397 2838 397 3381 
Q 397 3731 595 4036 
Q 794 4341 1167 4500 
Q 1541 4659 2069 4659 
Q 2931 4659 3367 4281 
Q 3803 3903 3825 3272 
L 2900 3231 
Q 2841 3584 2645 3739 
Q 2450 3894 2059 3894 
Q 1656 3894 1428 3728 
Q 1281 3622 1281 3444 
Q 1281 3281 1419 3166 
Q 1594 3019 2269 2859 
Q 2944 2700 3267 2529 
Q 3591 2359 3773 2064 
Q 3956 1769 3956 1334 
Q 3956 941 3737 597 
Q 3519 253 3119 86 
Q 2719 -81 2122 -81 
Q 1253 -81 787 320 
Q 322 722 231 1491 
z
" transform="scale(0.015625)"/>
       <path id="Arial-BoldMT-44" d="M 463 4581 
L 2153 4581 
Q 2725 4581 3025 4494 
Q 3428 4375 3715 4072 
Q 4003 3769 4153 3330 
Q 4303 2891 4303 2247 
Q 4303 1681 4163 1272 
Q 3991 772 3672 463 
Q 3431 228 3022 97 
Q 2716 0 2203 0 
L 463 0 
L 463 4581 
z
M 1388 3806 
L 1388 772 
L 2078 772 
Q 2466 772 2638 816 
Q 2863 872 3011 1006 
Q 3159 1141 3253 1448 
Q 3347 1756 3347 2288 
Q 3347 2819 3253 3103 
Q 3159 3388 2990 3547 
Q 2822 3706 2563 3763 
Q 2369 3806 1803 3806 
L 1388 3806 
z
" transform="scale(0.015625)"/>
       <path id="Arial-BoldMT-64" d="M 3503 0 
L 2688 0 
L 2688 488 
Q 2484 203 2207 64 
Q 1931 -75 1650 -75 
Q 1078 -75 670 386 
Q 263 847 263 1672 
Q 263 2516 659 2955 
Q 1056 3394 1663 3394 
Q 2219 3394 2625 2931 
L 2625 4581 
L 3503 4581 
L 3503 0 
z
M 1159 1731 
Q 1159 1200 1306 963 
Q 1519 619 1900 619 
Q 2203 619 2415 876 
Q 2628 1134 2628 1647 
Q 2628 2219 2422 2470 
Q 2216 2722 1894 2722 
Q 1581 2722 1370 2473 
Q 1159 2225 1159 1731 
z
" transform="scale(0.015625)"/>
       <path id="Arial-BoldMT-42" d="M 469 4581 
L 2300 4581 
Q 2844 4581 3111 4536 
Q 3378 4491 3589 4347 
Q 3800 4203 3940 3964 
Q 4081 3725 4081 3428 
Q 4081 3106 3907 2837 
Q 3734 2569 3438 2434 
Q 3856 2313 4081 2019 
Q 4306 1725 4306 1328 
Q 4306 1016 4161 720 
Q 4016 425 3764 248 
Q 3513 72 3144 31 
Q 2913 6 2028 0 
L 469 0 
L 469 4581 
z
M 1394 3819 
L 1394 2759 
L 2000 2759 
Q 2541 2759 2672 2775 
Q 2909 2803 3045 2939 
Q 3181 3075 3181 3297 
Q 3181 3509 3064 3642 
Q 2947 3775 2716 3803 
Q 2578 3819 1925 3819 
L 1394 3819 
z
M 1394 1997 
L 1394 772 
L 2250 772 
Q 2750 772 2884 800 
Q 3091 838 3220 983 
Q 3350 1128 3350 1372 
Q 3350 1578 3250 1722 
Q 3150 1866 2961 1931 
Q 2772 1997 2141 1997 
L 1394 1997 
z
" transform="scale(0.015625)"/>
      </defs>
      <use xlink:href="#Arial-BoldMT-50"/>
      <use xlink:href="#Arial-BoldMT-53" transform="translate(66.699219 0)"/>
      <use xlink:href="#Arial-BoldMT-44" transform="translate(133.398438 0)"/>
      <use xlink:href="#Arial-BoldMT-20" transform="translate(205.615234 0)"/>
      <use xlink:href="#Arial-BoldMT-5b" transform="translate(233.398438 0)"/>
      <use xlink:href="#Arial-BoldMT-64" transform="translate(266.699219 0)"/>
      <use xlink:href="#Arial-BoldMT-42" transform="translate(327.783203 0)"/>
      <use xlink:href="#Arial-BoldMT-5d" transform="translate(400 0)"/>
     </g>
    </g>
   </g>
   <g id="line2d_16">
    <path d="M 76.456875 56.944098 
L 77.166409 40.774962 
L 77.875942 34.406377 
L 78.585476 30.475513 
L 79.29501 27.710406 
L 80.004543 25.627582 
L 80.714077 23.999368 
L 81.423611 22.701513 
L 82.133145 21.659157 
L 82.842678 20.823963 
L 84.261746 19.653547 
L 85.680813 19.025985 
L 87.09988 18.854409 
L 88.518948 19.092858 
L 89.938015 19.721066 
L 91.357083 20.738295 
L 92.77615 22.1623 
L 94.195217 24.032748 
L 95.614285 26.421033 
L 97.033352 29.453137 
L 98.452419 33.366733 
L 99.161953 35.795229 
L 99.871487 38.684885 
L 100.581021 42.258794 
L 101.290554 46.999114 
L 102.000088 54.329696 
L 102.709622 75.97436 
L 103.419155 59.351269 
L 104.128689 52.467603 
L 104.838223 49.21909 
L 105.547756 47.422836 
L 106.25729 46.456764 
L 106.966824 46.061975 
L 107.676357 46.112998 
L 108.385891 46.547992 
L 109.095425 47.343111 
L 109.804958 48.503864 
L 110.514492 50.06637 
L 111.224026 52.10947 
L 111.93356 54.788049 
L 112.643093 58.426581 
L 113.352627 63.854994 
L 114.062161 74.615447 
L 114.771694 78.807776 
L 115.481228 66.895674 
L 116.190762 62.232756 
L 116.900295 59.636266 
L 117.609829 58.097586 
L 118.319363 57.24545 
L 119.028896 56.908861 
L 119.73843 57.003509 
L 120.447964 57.492792 
L 121.157498 58.374092 
L 121.867031 59.677685 
L 122.576565 61.477444 
L 123.286099 63.922698 
L 123.995632 67.328469 
L 124.705166 72.497038 
L 125.4147 82.771343 
L 126.124233 88.060255 
L 126.833767 75.448443 
L 127.543301 70.550288 
L 128.252834 67.781292 
L 128.962368 66.096337 
L 129.671902 65.11486 
L 130.381436 64.662769 
L 131.090969 64.655011 
L 131.800503 65.055719 
L 132.510037 65.864559 
L 133.21957 67.116509 
L 133.929104 68.894877 
L 134.638638 71.369624 
L 135.348171 74.909526 
L 136.057705 80.512032 
L 136.767239 93.202496 
L 137.476772 90.373895 
L 138.186306 80.574567 
L 138.89584 76.163208 
L 139.605374 73.57198 
L 140.314907 71.968608 
L 141.024441 71.030857 
L 141.733975 70.608336 
L 142.443508 70.628977 
L 143.153042 71.066697 
L 143.862576 71.931468 
L 144.572109 73.272737 
L 145.281643 75.198987 
L 145.991177 77.932955 
L 146.70071 81.981226 
L 147.410244 88.84054 
L 148.119778 101.704287 
L 148.829312 89.545503 
L 149.538845 83.216352 
L 150.248379 79.737061 
L 150.957913 77.588163 
L 151.667446 76.259779 
L 152.37698 75.530498 
L 153.086514 75.295457 
L 153.796047 75.510974 
L 154.505581 76.175565 
L 155.215115 77.327388 
L 155.924648 79.053799 
L 156.634182 81.512039 
L 157.343716 84.924893 
L 158.05325 89.083677 
L 158.762783 90.376494 
L 160.181851 83.179021 
L 160.891384 80.569195 
L 161.600918 78.794336 
L 162.310452 77.673964 
L 163.019985 77.109191 
L 163.729519 77.063254 
L 164.439053 77.547731 
L 165.148586 78.611286 
L 165.85812 80.28654 
L 166.567654 82.272013 
L 167.277188 82.905623 
L 167.986721 80.391592 
L 169.405789 72.994996 
L 170.824856 67.379237 
L 172.243923 63.217151 
L 173.662991 59.979573 
L 175.082058 57.37613 
L 176.501125 55.240845 
L 177.920193 53.472457 
L 179.33926 52.006461 
L 180.758328 50.800901 
L 182.177395 49.828447 
L 183.596462 49.071647 
L 185.01553 48.519961 
L 186.434597 48.167898 
L 187.853665 48.013887 
L 189.272732 48.059663 
L 190.691799 48.310028 
L 192.110867 48.77292 
L 193.529934 49.459753 
L 194.949001 50.386065 
L 196.368069 51.572581 
L 197.787136 53.046915 
L 199.206204 54.846332 
L 200.625271 57.022438 
L 202.044338 59.649572 
L 203.463406 62.84101 
L 204.882473 66.783374 
L 206.301541 71.818538 
L 207.011074 74.941937 
L 207.720608 78.649866 
L 209.139675 88.040279 
L 209.849209 90.660349 
L 210.558743 89.021699 
L 211.268276 86.815545 
L 211.97781 85.395364 
L 212.687344 84.728163 
L 213.396877 84.673162 
L 214.106411 85.139602 
L 214.815945 86.084496 
L 215.525479 87.499443 
L 216.235012 89.395371 
L 218.363613 96.692777 
L 219.073147 97.293648 
L 219.782681 96.227198 
L 220.492214 94.748169 
L 221.201748 93.57851 
L 221.911282 92.897619 
L 222.620815 92.722518 
L 223.330349 93.052011 
L 224.039883 93.908641 
L 224.749417 95.358028 
L 225.45895 97.529186 
L 226.168484 100.617959 
L 226.878018 104.566153 
L 227.587551 106.675307 
L 228.297085 103.670159 
L 229.006619 99.904176 
L 229.716152 97.08068 
L 230.425686 95.09479 
L 231.13522 93.748329 
L 231.844753 92.912796 
L 232.554287 92.514554 
L 233.263821 92.517578 
L 233.973354 92.915119 
L 234.682888 93.729034 
L 235.392422 95.017509 
L 236.101956 96.897247 
L 236.811489 99.600405 
L 237.521023 103.637583 
L 238.94009 117.038365 
L 239.649624 108.614486 
L 240.359158 103.146403 
L 241.068691 99.86016 
L 241.778225 97.73638 
L 242.487759 96.364269 
L 243.197292 95.551931 
L 243.906826 95.20383 
L 244.61636 95.27689 
L 245.325894 95.76432 
L 246.035427 96.692827 
L 246.744961 98.130549 
L 247.454495 100.210006 
L 248.164028 103.176669 
L 248.873562 107.429936 
L 249.583096 112.453691 
L 250.292629 111.297062 
L 251.002163 106.351041 
L 251.711697 102.687421 
L 252.42123 100.181367 
L 253.130764 98.467949 
L 253.840298 97.337266 
L 254.549832 96.673871 
L 255.259365 96.415782 
L 255.968899 96.535047 
L 256.678433 97.029783 
L 257.387966 97.9232 
L 258.0975 99.268628 
L 258.807034 101.161294 
L 259.516567 103.753266 
L 260.935635 111.020749 
L 261.645168 111.590716 
L 263.064236 104.91546 
L 263.77377 102.465645 
L 264.483303 100.745696 
L 265.192837 99.594792 
L 265.902371 98.9101 
L 266.611904 98.633689 
L 267.321438 98.739991 
L 268.030972 99.230355 
L 268.740505 100.134272 
L 269.450039 101.518607 
L 270.159573 103.510538 
L 270.869106 106.347768 
L 271.57864 110.45647 
L 272.288174 115.848418 
L 272.997708 115.828642 
L 273.707241 110.463647 
L 274.416775 106.378829 
L 275.126309 103.535093 
L 275.835842 101.492797 
L 276.545376 99.995175 
L 277.25491 98.887136 
L 277.964443 98.060865 
L 279.383511 96.897913 
L 280.802578 95.779517 
L 281.512112 95.013388 
L 282.221646 94.038835 
L 283.640713 91.535503 
L 287.188381 84.559776 
L 288.607449 82.157411 
L 290.026516 80.071492 
L 291.445583 78.299263 
L 292.864651 76.83134 
L 294.283718 75.658702 
L 295.702786 74.774217 
L 297.121853 74.172578 
L 298.54092 73.849905 
L 299.959988 73.803336 
L 301.379055 74.030644 
L 302.798123 74.529806 
L 304.21719 75.298462 
L 305.636257 76.33323 
L 307.055325 77.628908 
L 308.474392 79.177756 
L 309.893459 80.969327 
L 312.022061 84.08605 
L 314.150662 87.697442 
L 316.279263 91.838115 
L 318.407864 96.613913 
L 322.665066 106.861465 
L 323.3746 108.036157 
L 324.084133 108.938433 
L 325.503201 110.17452 
L 326.922268 110.981022 
L 327.631802 111.184231 
L 328.341335 111.17213 
L 329.050869 110.912249 
L 330.469937 109.833145 
L 331.889004 108.639556 
L 332.598538 108.202249 
L 333.308071 107.934023 
L 334.017605 107.861141 
L 334.727139 108.00027 
L 335.436672 108.36129 
L 336.146206 108.946313 
L 336.85574 109.74291 
L 338.984341 112.615754 
L 339.693875 113.073167 
L 340.403408 112.91335 
L 341.112942 112.214204 
L 343.241543 109.423302 
L 343.951077 108.79523 
L 344.66061 108.413375 
L 345.370144 108.293196 
L 346.079678 108.44596 
L 346.789211 108.885021 
L 347.498745 109.62852 
L 348.208279 110.698526 
L 348.917813 112.111638 
L 351.046414 117.159456 
L 351.755947 117.324068 
L 352.465481 116.106894 
L 353.884548 112.63538 
L 354.594082 111.24099 
L 355.303616 110.186797 
L 356.013149 109.458151 
L 356.722683 109.031476 
L 357.432217 108.886128 
L 358.14175 109.006123 
L 358.851284 109.37818 
L 359.560818 109.987088 
L 360.979885 111.78524 
L 362.398953 113.727972 
L 363.108486 114.290128 
L 363.81802 114.354496 
L 364.527554 113.971911 
L 366.656155 112.197137 
L 367.365688 111.900758 
L 368.075222 111.869959 
L 368.784756 112.141546 
L 369.49429 112.755005 
L 370.203823 113.765606 
L 370.913357 115.260235 
L 371.622891 117.382189 
L 372.332424 120.364393 
L 373.751492 128.049176 
L 374.461025 125.786663 
L 375.170559 121.432569 
L 375.880093 118.087787 
L 376.589626 115.687939 
L 377.29916 113.971571 
L 378.008694 112.770734 
L 378.718228 111.985176 
L 379.427761 111.55494 
L 380.137295 111.444779 
L 380.846829 111.635358 
L 381.556362 112.117435 
L 382.265896 112.88598 
L 382.97543 113.930109 
L 385.104031 117.869438 
L 385.813564 118.556266 
L 386.523098 118.379442 
L 387.232632 117.512227 
L 388.651699 115.329612 
L 389.361233 114.495541 
L 390.070767 113.944374 
L 390.7803 113.698232 
L 391.489834 113.771298 
L 392.199368 114.18436 
L 392.908901 114.975169 
L 393.618435 116.211858 
L 394.327969 118.019044 
L 395.037502 120.64111 
L 395.747036 124.633797 
L 396.45657 131.671215 
L 397.166104 142.007706 
L 397.875637 129.791797 
L 398.585171 123.615621 
L 399.294705 119.93544 
L 400.004238 117.44621 
L 400.713772 115.676393 
L 401.423306 114.4037 
L 402.132839 113.5047 
L 402.842373 112.902128 
L 403.551907 112.542197 
L 404.26144 112.383178 
L 404.970974 112.38888 
L 406.390042 112.755802 
L 410.647244 114.602307 
L 412.066311 115.424113 
L 412.775845 116.029847 
L 413.485378 116.836381 
L 414.194912 117.899213 
L 414.904446 119.269695 
L 417.033047 124.445373 
L 417.742581 124.611826 
L 418.452114 123.072149 
L 419.871182 118.68679 
L 420.580715 116.87369 
L 421.290249 115.419884 
L 421.999783 114.29769 
L 422.709316 113.47491 
L 423.41885 112.92625 
L 424.128384 112.63511 
L 424.837917 112.59335 
L 425.547451 112.801137 
L 426.256985 113.267582 
L 426.966519 114.012661 
L 427.676052 115.071301 
L 428.385586 116.501566 
L 429.09512 118.401702 
L 429.804653 120.949429 
L 430.514187 124.509204 
L 431.223721 130.021266 
L 431.933254 141.425601 
L 432.642788 139.696467 
L 433.352322 130.338185 
L 434.061855 125.931584 
L 434.771389 123.316572 
L 435.480923 121.682751 
L 436.190457 120.712486 
L 436.89999 120.257632 
L 437.609524 120.247822 
L 438.319058 120.658331 
L 439.028591 121.499722 
L 439.738125 122.819502 
L 440.447659 124.71514 
L 441.157192 127.361062 
L 441.866726 131.022251 
L 442.57626 135.570712 
L 443.285793 136.987899 
L 444.704861 129.489402 
L 445.414395 126.916742 
L 446.123928 125.182719 
L 446.833462 124.076217 
L 447.542996 123.472674 
L 448.252529 123.301788 
L 448.962063 123.52566 
L 449.671597 124.124272 
L 450.38113 125.079656 
L 452.509731 128.990907 
L 453.219265 129.415599 
L 453.928799 128.766399 
L 456.0574 124.791177 
L 456.766934 123.873948 
L 457.476467 123.298447 
L 458.186001 123.072486 
L 458.895535 123.205311 
L 459.605068 123.718303 
L 460.314602 124.652253 
L 461.024136 126.074178 
L 461.733669 128.076759 
L 463.152737 133.544337 
L 463.862271 134.410332 
L 464.571804 132.035162 
L 465.281338 128.896696 
L 465.990872 126.26766 
L 466.700405 124.251098 
L 467.409939 122.751849 
L 468.119473 121.681056 
L 468.829006 120.97756 
L 469.53854 120.603499 
L 470.248074 120.539082 
L 470.957607 120.779743 
L 471.667141 121.335887 
L 472.376675 122.235624 
L 473.086208 123.532115 
L 473.795742 125.320122 
L 474.505276 127.775219 
L 475.21481 131.262444 
L 475.924343 136.740284 
L 476.633877 148.690915 
L 477.343411 147.194056 
L 478.052944 137.180835 
L 478.762478 132.704753 
L 479.472012 130.099288 
L 480.181545 128.516495 
L 480.891079 127.634081 
L 481.600613 127.306563 
L 482.310146 127.468603 
L 483.01968 128.098728 
L 483.729214 129.197353 
L 484.438748 130.748067 
L 485.148281 132.593573 
L 485.857815 134.110205 
L 486.567349 134.135651 
L 487.276882 132.474081 
L 488.69595 128.193415 
L 489.405483 126.53802 
L 490.115017 125.283719 
L 490.824551 124.398135 
L 491.534084 123.849321 
L 492.243618 123.614766 
L 492.953152 123.682137 
L 493.662686 124.048124 
L 494.372219 124.716385 
L 495.081753 125.693171 
L 495.791287 126.975791 
L 497.919888 131.534621 
L 498.629421 132.051567 
L 499.338955 131.541591 
L 501.467556 128.488074 
L 502.17709 128.005062 
L 502.886624 127.954554 
L 503.596157 128.390273 
L 504.305691 129.392695 
L 505.015225 131.082871 
L 506.434292 136.171462 
L 507.143826 135.786675 
L 509.272427 124.709827 
L 509.98196 122.090283 
L 510.691494 119.956505 
L 511.401028 118.198433 
L 512.820095 115.529569 
L 514.239163 113.706906 
L 515.65823 112.524 
L 517.077297 111.851247 
L 518.496365 111.595763 
L 519.915432 111.682108 
L 521.3345 112.042562 
L 522.753567 112.612994 
L 523.463101 112.957758 
L 523.463101 112.957758 
" clip-path="url(#p5c38f142b1)" style="fill: none; stroke: #c73e1d; stroke-width: 3.2; stroke-linecap: round"/>
   </g>
   <g id="line2d_17">
    <path d="M 76.456875 91.545769 
L 77.166409 84.424862 
L 78.585476 84.677492 
L 80.004543 85.183218 
L 81.423611 85.942575 
L 82.842678 86.955264 
L 84.261746 88.218584 
L 85.680813 89.724939 
L 87.809414 92.401714 
L 89.938015 95.475271 
L 95.614285 104.315761 
L 98.452419 108.627402 
L 99.161953 109.446179 
L 99.871487 109.946697 
L 100.581021 110.00141 
L 101.290554 109.571322 
L 102.000088 108.740331 
L 103.419155 106.480143 
L 105.547756 103.146702 
L 106.966824 101.410458 
L 108.385891 100.109481 
L 109.804958 99.180377 
L 113.352627 97.282075 
L 114.771694 96.01259 
L 116.190762 94.332327 
L 119.73843 89.86074 
L 121.867031 87.721302 
L 126.124233 83.892797 
L 128.252834 81.425706 
L 134.638638 73.392432 
L 138.186306 69.171183 
L 141.024441 65.40024 
L 145.991177 58.676443 
L 148.119778 56.166079 
L 150.248379 53.973952 
L 152.37698 52.097805 
L 154.505581 50.519446 
L 156.634182 49.223581 
L 158.762783 48.21013 
L 160.891384 47.501216 
L 162.310452 47.220052 
L 163.729519 47.115195 
L 165.148586 47.2128 
L 166.567654 47.545525 
L 167.986721 48.153736 
L 169.405789 49.08602 
L 170.824856 50.394137 
L 172.243923 52.10246 
L 174.372524 54.995032 
L 175.082058 55.661287 
L 175.791592 55.887829 
L 176.501125 55.571971 
L 177.210659 54.780984 
L 178.629727 52.499361 
L 180.048794 50.190535 
L 181.467861 48.263697 
L 182.886929 46.774378 
L 184.305996 45.693295 
L 185.725063 44.983258 
L 187.144131 44.615981 
L 188.563198 44.574402 
L 189.982266 44.852296 
L 191.401333 45.454172 
L 192.8204 46.39644 
L 194.239468 47.710639 
L 195.658535 49.450367 
L 197.077603 51.705795 
L 198.49667 54.636354 
L 199.206204 56.441949 
L 199.915737 58.555542 
L 200.625271 61.08313 
L 201.334805 64.207934 
L 202.044338 68.280169 
L 202.753872 74.014104 
L 203.463406 81.154424 
L 204.172939 77.951715 
L 204.882473 72.503073 
L 205.592007 69.088029 
L 206.301541 66.852735 
L 207.011074 65.330145 
L 207.720608 64.285138 
L 208.430142 63.58556 
L 209.139675 63.148961 
L 209.849209 62.918594 
L 210.558743 62.851233 
L 211.97781 63.061435 
L 215.525479 63.994752 
L 216.944546 63.945002 
L 218.363613 63.611622 
L 221.911282 62.538595 
L 224.039883 62.171185 
L 226.878018 61.961214 
L 234.682888 61.628228 
L 236.811489 61.825154 
L 238.94009 62.247414 
L 241.068691 62.8707 
L 243.906826 63.935032 
L 246.744961 65.208791 
L 249.583096 66.727582 
L 252.42123 68.56227 
L 255.259365 70.693463 
L 265.192837 78.69378 
L 272.997708 85.347014 
L 278.673977 89.558596 
L 280.802578 91.499921 
L 282.931179 93.753106 
L 287.897915 99.377475 
L 288.607449 99.798824 
L 289.316982 99.957251 
L 290.026516 99.837327 
L 290.73605 99.474455 
L 292.155117 98.313599 
L 294.283718 96.482802 
L 295.702786 95.619574 
L 297.121853 95.157801 
L 298.54092 95.126618 
L 299.250454 95.277583 
L 300.669521 95.924611 
L 302.088589 97.057891 
L 303.507656 98.730111 
L 304.926724 101.034928 
L 306.345791 104.14428 
L 307.055325 106.096224 
L 307.764858 108.401745 
L 308.474392 111.173093 
L 309.183926 114.585884 
L 310.602993 123.719025 
L 311.312527 125.303364 
L 312.731594 119.14156 
L 313.441128 116.969853 
L 314.150662 115.499153 
L 314.860195 114.531092 
L 315.569729 113.93556 
L 316.279263 113.627094 
L 316.988796 113.546426 
L 317.69833 113.649648 
L 318.407864 113.901937 
L 319.826931 114.739511 
L 321.955532 116.472541 
L 325.503201 119.499798 
L 326.922268 120.503537 
L 328.341335 121.26293 
L 329.760403 121.73006 
L 334.017605 122.572673 
L 335.436672 123.259372 
L 336.85574 124.284417 
L 339.693875 126.690878 
L 340.403408 127.104267 
L 341.112942 127.358509 
L 341.822476 127.457182 
L 343.241543 127.359463 
L 344.66061 127.256637 
L 345.370144 127.323068 
L 346.079678 127.507428 
L 346.789211 127.825702 
L 347.498745 128.284691 
L 348.917813 129.600829 
L 351.046414 132.025264 
L 351.755947 132.636736 
L 352.465481 132.99003 
L 353.175015 133.058186 
L 353.884548 132.895794 
L 356.013149 132.060272 
L 356.722683 131.93923 
L 357.432217 131.970708 
L 358.14175 132.172199 
L 358.851284 132.550861 
L 359.560818 133.104873 
L 360.979885 134.668889 
L 362.398953 136.481469 
L 363.108486 137.211084 
L 363.81802 137.644043 
L 364.527554 137.722139 
L 365.237087 137.503904 
L 367.365688 136.410649 
L 368.075222 136.245133 
L 368.784756 136.26767 
L 369.49429 136.500974 
L 370.203823 136.959446 
L 370.913357 137.65213 
L 371.622891 138.580851 
L 373.041958 141.0476 
L 373.751492 142.392705 
L 374.461025 143.497698 
L 375.170559 144.022506 
L 375.880093 143.81484 
L 376.589626 143.076008 
L 378.008694 141.28706 
L 378.718228 140.613178 
L 379.427761 140.178777 
L 380.137295 140.001049 
L 380.846829 140.085238 
L 381.556362 140.433868 
L 382.265896 141.049539 
L 382.97543 141.933121 
L 383.684963 143.075408 
L 385.813564 147.182351 
L 386.523098 147.89791 
L 387.232632 147.781276 
L 387.942166 147.011846 
L 389.361233 145.046258 
L 390.070767 144.304524 
L 390.7803 143.829343 
L 391.489834 143.639566 
L 392.199368 143.743292 
L 392.908901 144.149815 
L 393.618435 144.875145 
L 394.327969 145.944599 
L 395.037502 147.39168 
L 395.747036 149.244267 
L 397.166104 153.716275 
L 397.875637 155.020461 
L 398.585171 154.428844 
L 400.713772 149.211598 
L 401.423306 148.075406 
L 402.132839 147.32759 
L 402.842373 146.935729 
L 403.551907 146.875366 
L 404.26144 147.133108 
L 404.970974 147.705744 
L 405.680508 148.597623 
L 406.390042 149.814173 
L 407.809109 153.10597 
L 408.518643 154.835945 
L 409.228176 155.96729 
L 409.93771 155.955861 
L 410.647244 154.981355 
L 412.066311 152.52132 
L 412.775845 151.650892 
L 413.485378 151.126267 
L 414.194912 150.958382 
L 414.904446 151.155907 
L 415.613979 151.740431 
L 416.323513 152.757612 
L 417.033047 154.2934 
L 417.742581 156.506341 
L 418.452114 159.697073 
L 419.161648 164.400678 
L 419.871182 169.851039 
L 420.580715 167.067817 
L 421.290249 161.73702 
L 421.999783 158.092423 
L 422.709316 155.623187 
L 423.41885 153.930213 
L 424.128384 152.8032 
L 424.837917 152.128568 
L 425.547451 151.84512 
L 426.256985 151.924367 
L 426.966519 152.362627 
L 427.676052 153.180182 
L 428.385586 154.427159 
L 429.09512 156.199942 
L 429.804653 158.680699 
L 430.514187 162.238334 
L 431.223721 167.686432 
L 431.933254 175.002727 
L 432.642788 170.580066 
L 433.352322 164.646273 
L 434.061855 161.021489 
L 434.771389 158.690224 
L 435.480923 157.175215 
L 436.190457 156.251831 
L 436.89999 155.807129 
L 437.609524 155.787006 
L 438.319058 156.175939 
L 439.028591 156.991901 
L 439.738125 158.292761 
L 440.447659 160.199609 
L 441.157192 162.960833 
L 441.866726 167.152916 
L 442.57626 174.539863 
L 443.285793 184.053166 
L 443.995327 172.205312 
L 444.704861 166.427218 
L 445.414395 163.07825 
L 446.123928 160.934131 
L 446.833462 159.553353 
L 447.542996 158.73644 
L 448.252529 158.385564 
L 448.962063 158.457198 
L 449.671597 158.945377 
L 450.38113 159.879681 
L 451.090664 161.336348 
L 451.800198 163.472727 
L 452.509731 166.627073 
L 453.219265 171.686456 
L 453.928799 182.648751 
L 454.638333 183.624816 
L 455.347866 172.357079 
L 456.0574 167.437392 
L 456.766934 164.48722 
L 457.476467 162.575359 
L 458.186001 161.350939 
L 458.895535 160.651105 
L 459.605068 160.39618 
L 460.314602 160.553499 
L 461.024136 161.125234 
L 461.733669 162.149018 
L 462.443203 163.711781 
L 463.152737 165.988979 
L 463.862271 169.355455 
L 464.571804 174.76571 
L 465.281338 184.721946 
L 465.990872 180.102259 
L 466.700405 172.556473 
L 467.409939 168.383159 
L 468.119473 165.737741 
L 468.829006 163.985679 
L 469.53854 162.85391 
L 470.248074 162.2076 
L 470.957607 161.978181 
L 471.667141 162.136079 
L 472.376675 162.680603 
L 473.086208 163.638962 
L 473.795742 165.073039 
L 474.505276 167.096311 
L 475.21481 169.902953 
L 476.633877 178.130555 
L 477.343411 178.125874 
L 478.762478 170.555446 
L 479.472012 168.118204 
L 480.181545 166.456069 
L 480.891079 165.380896 
L 481.600613 164.784058 
L 482.310146 164.607896 
L 483.01968 164.829573 
L 483.729214 165.454889 
L 484.438748 166.519525 
L 485.148281 168.097855 
L 485.857815 170.32063 
L 486.567349 173.387064 
L 487.276882 177.361459 
L 487.986416 180.247106 
L 488.69595 177.924593 
L 489.405483 174.10115 
L 490.115017 171.145131 
L 490.824551 169.046971 
L 491.534084 167.600911 
L 492.243618 166.666583 
L 492.953152 166.160286 
L 493.662686 166.035474 
L 494.372219 166.271024 
L 495.081753 166.865035 
L 495.791287 167.83107 
L 496.50082 169.192285 
L 497.210354 170.960746 
L 498.629421 175.084989 
L 499.338955 176.032732 
L 500.048489 175.209656 
L 501.467556 171.615998 
L 502.17709 170.163494 
L 502.886624 169.123986 
L 503.596157 168.484354 
L 504.305691 168.223997 
L 505.015225 168.333027 
L 505.724758 168.817101 
L 506.434292 169.699253 
L 507.143826 171.019278 
L 507.853359 172.81998 
L 509.272427 177.330464 
L 509.98196 178.198965 
L 510.691494 176.717231 
L 512.110562 171.930176 
L 512.820095 170.07634 
L 513.529629 168.668515 
L 514.239163 167.652175 
L 514.948696 166.97935 
L 515.65823 166.616414 
L 516.367764 166.543147 
L 517.077297 166.751106 
L 517.786831 167.242967 
L 518.496365 168.033289 
L 519.205898 169.151175 
L 519.915432 170.645714 
L 520.624966 172.595816 
L 521.3345 175.125554 
L 522.044033 178.41128 
L 522.753567 182.516342 
L 523.463101 185.942448 
L 523.463101 185.942448 
" clip-path="url(#p5c38f142b1)" style="fill: none; stroke-dasharray: 8.14,3.52; stroke-dashoffset: 0; stroke: #c73e1d; stroke-opacity: 0.8; stroke-width: 2.2"/>
   </g>
   <g id="line2d_18">
    <path d="M 76.456875 54.940973 
L 77.166409 37.387143 
L 77.875942 30.840074 
L 78.585476 26.870967 
L 79.29501 24.092053 
L 80.004543 22.002788 
L 80.714077 20.371086 
L 81.423611 19.071154 
L 82.133145 18.027481 
L 82.842678 17.191418 
L 84.261746 16.020011 
L 85.680813 15.391995 
L 87.09988 15.220244 
L 88.518948 15.458673 
L 89.938015 16.086944 
L 91.357083 17.104267 
L 92.77615 18.528346 
L 94.195217 20.398785 
L 95.614285 22.786881 
L 97.033352 25.818443 
L 98.452419 29.730769 
L 99.161953 32.15809 
L 99.871487 35.045874 
L 100.581021 38.616578 
L 101.290554 43.350605 
L 102.000088 50.664547 
L 102.709622 72.238045 
L 103.419155 55.786647 
L 104.128689 48.867952 
L 104.838223 45.609628 
L 105.547756 43.808672 
L 106.25729 42.839707 
L 106.966824 42.442798 
L 107.676357 42.492015 
L 108.385891 42.92525 
L 109.095425 43.71845 
L 109.804958 44.8769 
L 110.514492 46.436413 
L 111.224026 48.475314 
L 111.93356 51.147455 
L 112.643093 54.77476 
L 113.352627 60.178463 
L 114.062161 70.838401 
L 114.771694 75.479654 
L 115.481228 63.358836 
L 116.190762 58.662271 
L 116.900295 56.051183 
L 117.609829 54.503563 
L 118.319363 53.644637 
L 119.028896 53.301985 
L 119.73843 53.390483 
L 120.447964 53.872879 
L 121.157498 54.745821 
L 121.867031 56.038542 
L 122.576565 57.82311 
L 123.286099 60.245192 
L 123.995632 63.610723 
L 124.705166 68.690897 
L 125.4147 78.603245 
L 126.124233 85.510561 
L 126.833767 72.142172 
L 127.543301 67.124237 
L 128.252834 64.303964 
L 128.962368 62.588318 
L 129.671902 61.584273 
L 130.381436 61.112763 
L 131.090969 61.085993 
L 131.800503 61.465984 
L 132.510037 62.250126 
L 133.21957 63.470162 
L 133.929104 65.203784 
L 134.638638 67.609291 
L 135.348171 71.02538 
L 136.057705 76.338642 
L 136.767239 87.550264 
L 137.476772 88.886257 
L 138.186306 77.791493 
L 138.89584 73.10309 
L 139.605374 70.387422 
L 140.314907 68.709625 
L 141.024441 67.718551 
L 141.733975 67.251939 
L 142.443508 67.231252 
L 143.153042 67.625653 
L 143.862576 68.440294 
L 144.572109 69.71809 
L 145.281643 71.556476 
L 145.991177 74.155633 
L 146.70071 77.965802 
L 147.410244 84.311751 
L 148.119778 102.450863 
L 148.829312 88.83136 
L 149.538845 81.061349 
L 150.248379 77.153878 
L 150.957913 74.786918 
L 151.667446 73.312128 
L 152.37698 72.463282 
L 153.086514 72.114439 
L 153.796047 72.208057 
L 154.505581 72.730206 
L 155.215115 73.705263 
L 155.924648 75.205227 
L 156.634182 77.382412 
L 157.343716 80.565174 
L 158.05325 85.6069 
L 158.762783 96.205219 
L 159.472317 98.470416 
L 160.181851 86.931292 
L 160.891384 82.022019 
L 161.600918 79.13815 
L 162.310452 77.323027 
L 163.019985 76.224004 
L 163.729519 75.685068 
L 164.439053 75.640931 
L 165.148586 76.084171 
L 165.85812 77.061284 
L 166.567654 78.691292 
L 167.277188 81.218052 
L 167.986721 85.092295 
L 168.696255 90.149663 
L 169.405789 88.794817 
L 170.115322 82.914112 
L 170.824856 78.481342 
L 171.53439 75.240214 
L 172.243923 72.755544 
L 172.953457 70.78244 
L 173.662991 69.17874 
L 175.082058 66.751632 
L 176.501125 65.042423 
L 177.920193 63.812752 
L 179.33926 62.908403 
L 181.467861 61.936279 
L 183.596462 61.236182 
L 186.434597 60.578412 
L 188.563198 60.30734 
L 190.691799 60.3037 
L 192.110867 60.500388 
L 193.529934 60.899304 
L 194.949001 61.543122 
L 196.368069 62.481012 
L 197.787136 63.771746 
L 199.206204 65.490011 
L 200.625271 67.738718 
L 202.044338 70.673964 
L 203.463406 74.560181 
L 204.172939 77.001442 
L 204.882473 79.899664 
L 205.592007 83.38721 
L 207.011074 91.617002 
L 207.720608 92.739463 
L 209.139675 88.723692 
L 209.849209 87.38171 
L 210.558743 86.732336 
L 211.268276 86.684665 
L 211.97781 87.193677 
L 212.687344 88.272291 
L 213.396877 90.007266 
L 214.106411 92.61406 
L 214.815945 96.623601 
L 215.525479 103.777729 
L 216.235012 128.99663 
L 216.944546 104.044847 
L 217.65408 97.42585 
L 218.363613 93.880865 
L 219.073147 91.706068 
L 219.782681 90.370326 
L 220.492214 89.647945 
L 221.201748 89.433825 
L 221.911282 89.686178 
L 222.620815 90.407805 
L 223.330349 91.645154 
L 224.039883 93.501624 
L 224.749417 96.165285 
L 226.168484 104.190998 
L 226.878018 104.099574 
L 228.297085 96.2927 
L 229.006619 93.755388 
L 229.716152 91.996189 
L 230.425686 90.822654 
L 231.13522 90.122254 
L 231.844753 89.832672 
L 232.554287 89.924537 
L 233.263821 90.393427 
L 233.973354 91.257558 
L 234.682888 92.558832 
L 235.392422 94.362705 
L 236.101956 96.734001 
L 236.811489 99.568032 
L 237.521023 101.875164 
L 238.230557 101.535534 
L 240.359158 94.491486 
L 241.068691 93.014799 
L 241.778225 92.013639 
L 242.487759 91.425414 
L 243.197292 91.210286 
L 243.906826 91.348802 
L 244.61636 91.83904 
L 245.325894 92.694875 
L 246.035427 93.943558 
L 246.744961 95.614982 
L 248.164028 99.935874 
L 248.873562 101.46497 
L 249.583096 101.119594 
L 251.711697 95.556793 
L 252.42123 94.253041 
L 253.130764 93.349037 
L 253.840298 92.807756 
L 254.549832 92.598348 
L 255.259365 92.699277 
L 255.968899 93.095776 
L 256.678433 93.774096 
L 257.387966 94.710161 
L 259.516567 98.062187 
L 260.226101 98.549942 
L 260.935635 98.336033 
L 261.645168 97.588435 
L 263.064236 95.75173 
L 263.77377 95.052025 
L 264.483303 94.593319 
L 265.192837 94.386158 
L 265.902371 94.419093 
L 266.611904 94.661738 
L 268.740505 95.873607 
L 269.450039 95.98872 
L 270.159573 95.751842 
L 270.869106 95.192457 
L 272.997708 93.053755 
L 273.707241 92.616485 
L 274.416775 92.439709 
L 275.126309 92.561151 
L 275.835842 92.998199 
L 277.25491 94.521622 
L 277.964443 94.872217 
L 278.673977 93.993759 
L 279.383511 91.807271 
L 281.512112 83.74904 
L 282.931179 79.438992 
L 284.350247 75.976668 
L 285.769314 73.149802 
L 287.188381 70.807815 
L 288.607449 68.849594 
L 290.026516 67.206775 
L 291.445583 65.832988 
L 292.864651 64.697216 
L 294.283718 63.779481 
L 295.702786 63.06785 
L 297.121853 62.556281 
L 298.54092 62.243095 
L 299.959988 62.129968 
L 301.379055 62.221357 
L 302.798123 62.524342 
L 304.21719 63.048826 
L 305.636257 63.808132 
L 307.055325 64.820036 
L 308.474392 66.108446 
L 309.893459 67.706053 
L 311.312527 69.658745 
L 312.731594 72.033351 
L 314.150662 74.932453 
L 315.569729 78.525817 
L 316.988796 83.127126 
L 317.69833 85.990768 
L 318.407864 89.417064 
L 319.117397 93.659322 
L 320.536465 104.229538 
L 321.245999 103.275977 
L 321.955532 99.863585 
L 322.665066 97.544088 
L 323.3746 96.235155 
L 324.084133 95.664085 
L 324.793667 95.673884 
L 325.503201 96.191057 
L 326.212734 97.200588 
L 326.922268 98.740884 
L 327.631802 100.918937 
L 328.341335 103.957884 
L 329.050869 108.300096 
L 329.760403 114.375937 
L 330.469937 116.132353 
L 331.17947 110.778373 
L 331.889004 106.815842 
L 332.598538 104.308886 
L 333.308071 102.743592 
L 334.017605 101.850594 
L 334.727139 101.494328 
L 335.436672 101.611595 
L 336.146206 102.186635 
L 336.85574 103.24459 
L 337.565273 104.857622 
L 338.274807 107.162689 
L 338.984341 110.369719 
L 339.693875 114.46808 
L 340.403408 116.809418 
L 341.112942 113.837426 
L 341.822476 110.036244 
L 342.532009 107.193194 
L 343.241543 105.190531 
L 343.951077 103.821001 
L 344.66061 102.950874 
L 345.370144 102.501947 
L 346.079678 102.43228 
L 346.789211 102.725685 
L 347.498745 103.387186 
L 348.208279 104.44217 
L 348.917813 105.936577 
L 349.627346 107.929033 
L 351.046414 113.110735 
L 351.755947 114.55065 
L 352.465481 113.368331 
L 353.884548 108.703231 
L 354.594082 106.964952 
L 355.303616 105.719018 
L 356.013149 104.903714 
L 356.722683 104.468267 
L 357.432217 104.379331 
L 358.14175 104.61817 
L 358.851284 105.176218 
L 359.560818 106.048329 
L 360.270352 107.218487 
L 362.398953 111.20132 
L 363.108486 111.469262 
L 363.81802 110.785442 
L 365.946621 107.271439 
L 366.656155 106.501917 
L 367.365688 106.047561 
L 368.075222 105.917152 
L 368.784756 106.120896 
L 369.49429 106.680113 
L 370.203823 107.634942 
L 370.913357 109.054332 
L 371.622891 111.050328 
L 372.332424 113.784307 
L 373.751492 120.357243 
L 374.461025 119.085257 
L 375.880093 112.314652 
L 376.589626 109.995783 
L 377.29916 108.319983 
L 378.008694 107.14802 
L 378.718228 106.390485 
L 379.427761 105.993721 
L 380.137295 105.928668 
L 380.846829 106.184652 
L 381.556362 106.766556 
L 382.265896 107.693928 
L 382.97543 108.999825 
L 383.684963 110.722256 
L 385.813564 116.807541 
L 386.523098 116.423402 
L 389.361233 108.82289 
L 390.070767 107.675929 
L 390.7803 106.833543 
L 391.489834 106.240564 
L 392.199368 105.843136 
L 393.618435 105.392813 
L 395.037502 104.890197 
L 395.747036 104.413502 
L 396.45657 103.719983 
L 397.875637 101.759189 
L 401.423306 96.068022 
L 402.842373 94.152711 
L 404.26144 92.535336 
L 405.680508 91.214196 
L 407.099575 90.184886 
L 408.518643 89.446753 
L 409.93771 89.003421 
L 411.356777 88.861776 
L 412.775845 89.030856 
L 414.194912 89.520887 
L 415.613979 90.342159 
L 417.033047 91.503039 
L 418.452114 93.006052 
L 419.871182 94.840471 
L 421.999783 98.124032 
L 426.966519 106.711588 
L 428.385586 109.378115 
L 429.804653 112.522248 
L 431.933254 118.040042 
L 432.642788 119.340178 
L 433.352322 119.745413 
L 434.061855 119.31159 
L 435.480923 117.662866 
L 436.190457 117.046089 
L 436.89999 116.712717 
L 437.609524 116.688316 
L 438.319058 116.981099 
L 439.028591 117.594302 
L 439.738125 118.525511 
L 441.157192 121.187797 
L 441.866726 122.601975 
L 442.57626 123.549656 
L 443.285793 123.597212 
L 443.995327 122.809074 
L 445.414395 120.571556 
L 446.123928 119.725292 
L 446.833462 119.19817 
L 447.542996 119.014131 
L 448.252529 119.185055 
L 448.962063 119.724489 
L 449.671597 120.649339 
L 450.38113 121.96613 
L 451.800198 125.301358 
L 452.509731 126.24766 
L 453.219265 125.655033 
L 456.0574 118.777047 
L 456.766934 117.753677 
L 457.476467 117.073996 
L 458.186001 116.717715 
L 458.895535 116.673026 
L 459.605068 116.938084 
L 460.314602 117.521031 
L 461.024136 118.438888 
L 461.733669 119.712324 
L 463.152737 123.25358 
L 463.862271 125.072702 
L 464.571804 125.960765 
L 465.281338 125.291368 
L 467.409939 120.389007 
L 468.119473 119.261886 
L 468.829006 118.501145 
L 469.53854 118.090541 
L 470.248074 118.018979 
L 470.957607 118.287441 
L 471.667141 118.912547 
L 472.376675 119.930978 
L 473.086208 121.406481 
L 473.795742 123.438088 
L 474.505276 126.147066 
L 475.21481 129.471151 
L 475.924343 131.989242 
L 476.633877 130.785146 
L 478.052944 124.823914 
L 478.762478 122.736849 
L 479.472012 121.255587 
L 480.181545 120.27066 
L 480.891079 119.709507 
L 481.600613 119.531148 
L 482.310146 119.718897 
L 483.01968 120.276107 
L 483.729214 121.223597 
L 484.438748 122.59386 
L 485.148281 124.40388 
L 486.567349 128.378342 
L 487.276882 128.584447 
L 487.986416 126.852722 
L 489.405483 122.337895 
L 490.115017 120.5957 
L 490.824551 119.25593 
L 491.534084 118.276091 
L 492.243618 117.618852 
L 492.953152 117.259636 
L 493.662686 117.187375 
L 494.372219 117.405095 
L 495.081753 117.93248 
L 495.791287 118.81241 
L 496.50082 120.125636 
L 497.210354 122.025124 
L 497.919888 124.828748 
L 498.629421 129.34621 
L 499.338955 138.934134 
L 500.048489 142.27858 
L 500.758022 129.472917 
L 501.467556 123.638734 
L 502.17709 119.771104 
L 502.886624 116.849705 
L 504.305691 112.49063 
L 505.724758 109.205979 
L 507.143826 106.514349 
L 509.272427 103.129484 
L 511.401028 100.246914 
L 513.529629 97.750323 
L 515.65823 95.628788 
L 517.786831 93.915881 
L 519.205898 93.023735 
L 520.624966 92.347254 
L 522.044033 91.898926 
L 523.463101 91.690335 
L 523.463101 91.690335 
" clip-path="url(#p5c38f142b1)" style="fill: none; stroke: #2a6fbb; stroke-width: 3.2; stroke-linecap: round"/>
   </g>
   <g id="line2d_19">
    <path d="M 76.456875 100.600516 
L 77.166409 93.485889 
L 78.585476 93.78845 
L 80.004543 94.392023 
L 81.423611 95.291018 
L 82.842678 96.469835 
L 84.971279 98.671974 
L 88.518948 102.585017 
L 89.938015 103.765124 
L 91.357083 104.610782 
L 93.485684 105.466465 
L 95.614285 106.076338 
L 97.033352 106.27786 
L 98.452419 106.147014 
L 99.161953 105.915593 
L 100.581021 105.101455 
L 102.000088 103.890852 
L 104.128689 101.661602 
L 107.676357 97.925938 
L 109.804958 96.001468 
L 114.771694 91.723184 
L 117.609829 88.753975 
L 121.867031 84.195 
L 126.833767 79.058352 
L 129.671902 75.74416 
L 138.186306 65.191987 
L 142.443508 59.493078 
L 145.991177 54.823193 
L 148.829312 51.501958 
L 150.957913 49.34885 
L 153.086514 47.510706 
L 155.215115 45.992406 
L 157.343716 44.792008 
L 159.472317 43.906571 
L 161.600918 43.335868 
L 163.729519 43.084777 
L 165.148586 43.100241 
L 166.567654 43.267578 
L 167.986721 43.592689 
L 169.405789 44.081632 
L 170.824856 44.738858 
L 172.953457 46.035408 
L 175.082058 47.637251 
L 177.920193 49.775241 
L 179.33926 50.482317 
L 180.048794 50.672627 
L 181.467861 50.710859 
L 182.886929 50.399334 
L 186.434597 49.33673 
L 187.853665 49.148696 
L 189.272732 49.19149 
L 190.691799 49.490146 
L 192.110867 50.058494 
L 193.529934 50.90361 
L 194.949001 52.024233 
L 196.368069 53.401258 
L 200.625271 58.035079 
L 201.334805 58.574622 
L 202.044338 58.95589 
L 202.753872 59.171279 
L 203.463406 59.2361 
L 204.882473 59.051813 
L 208.430142 58.290521 
L 210.558743 58.194104 
L 217.65408 58.37149 
L 221.201748 57.893243 
L 226.168484 57.227767 
L 230.425686 56.893707 
L 233.263821 56.846791 
L 236.101956 57.032038 
L 238.230557 57.363238 
L 240.359158 57.871737 
L 243.197292 58.820444 
L 246.035427 60.060345 
L 248.873562 61.575045 
L 251.711697 63.350925 
L 255.259365 65.889169 
L 259.516567 69.240797 
L 266.611904 75.144495 
L 272.288174 79.759647 
L 279.383511 85.267154 
L 280.802578 86.04953 
L 282.221646 86.550347 
L 284.350247 86.901708 
L 286.478848 87.242131 
L 287.897915 87.730556 
L 289.316982 88.56905 
L 290.73605 89.84306 
L 292.155117 91.589692 
L 294.283718 94.688083 
L 294.993252 95.472825 
L 295.702786 95.850625 
L 296.412319 95.717482 
L 297.121853 95.132194 
L 298.54092 93.302444 
L 299.959988 91.492777 
L 301.379055 90.122285 
L 302.798123 89.254613 
L 304.21719 88.866887 
L 305.636257 88.929514 
L 307.055325 89.425045 
L 308.474392 90.352535 
L 309.893459 91.73007 
L 311.312527 93.599577 
L 312.731594 96.036761 
L 314.150662 99.170054 
L 315.569729 103.209356 
L 316.988796 108.408789 
L 318.407864 114.012738 
L 319.117397 115.362386 
L 319.826931 115.00345 
L 321.245999 112.689581 
L 321.955532 111.831799 
L 322.665066 111.307601 
L 323.3746 111.094385 
L 324.084133 111.159889 
L 324.793667 111.474682 
L 325.503201 112.012614 
L 326.212734 112.747197 
L 327.631802 114.659033 
L 329.050869 116.703188 
L 329.760403 117.500597 
L 330.469937 118.002845 
L 331.17947 118.186054 
L 331.889004 118.119691 
L 334.017605 117.55453 
L 334.727139 117.513235 
L 335.436672 117.607658 
L 336.146206 117.846503 
L 336.85574 118.227488 
L 338.274807 119.359216 
L 341.112942 122.030021 
L 341.822476 122.443508 
L 342.532009 122.675027 
L 343.951077 122.716682 
L 345.370144 122.603425 
L 346.789211 122.743224 
L 347.498745 122.973526 
L 348.917813 123.782227 
L 350.33688 124.973789 
L 352.465481 126.848922 
L 353.175015 127.280645 
L 353.884548 127.550297 
L 354.594082 127.665966 
L 358.14175 127.64865 
L 359.560818 128.120866 
L 360.979885 129.007178 
L 363.81802 131.248666 
L 364.527554 131.644017 
L 365.237087 131.898643 
L 366.656155 132.041491 
L 368.784756 132.041577 
L 370.203823 132.399294 
L 371.622891 133.219191 
L 373.041958 134.449022 
L 374.461025 135.798602 
L 375.170559 136.351159 
L 375.880093 136.725495 
L 376.589626 136.886368 
L 377.29916 136.852008 
L 380.846829 136.130367 
L 381.556362 136.249583 
L 382.265896 136.510492 
L 382.97543 136.913052 
L 384.394497 138.089222 
L 386.523098 140.141924 
L 387.232632 140.602612 
L 387.942166 140.832279 
L 388.651699 140.830006 
L 390.070767 140.401683 
L 391.489834 139.993005 
L 392.199368 139.960064 
L 392.908901 140.094222 
L 393.618435 140.423795 
L 394.327969 140.975747 
L 395.037502 141.78152 
L 395.747036 142.883587 
L 396.45657 144.3447 
L 397.166104 146.26305 
L 397.875637 148.797401 
L 398.585171 152.18779 
L 399.294705 156.489826 
L 400.004238 158.964359 
L 400.713772 155.683777 
L 401.423306 151.569673 
L 402.132839 148.405956 
L 402.842373 146.013052 
L 403.551907 144.155138 
L 404.26144 142.678371 
L 404.970974 141.484666 
L 406.390042 139.708301 
L 407.809109 138.516789 
L 409.228176 137.765784 
L 410.647244 137.400024 
L 412.066311 137.418599 
L 413.485378 137.856657 
L 414.194912 138.251946 
L 414.904446 138.778709 
L 415.613979 139.450547 
L 416.323513 140.284545 
L 417.033047 141.302674 
L 417.742581 142.533996 
L 418.452114 144.018208 
L 419.161648 145.81142 
L 419.871182 147.995581 
L 420.580715 150.692062 
L 421.290249 154.065043 
L 422.709316 161.673165 
L 423.41885 160.951944 
L 424.837917 155.316887 
L 425.547451 153.500552 
L 426.256985 152.302673 
L 426.966519 151.589764 
L 427.676052 151.273817 
L 428.385586 151.298642 
L 429.09512 151.627056 
L 429.804653 152.230592 
L 430.514187 153.078483 
L 433.352322 157.135091 
L 434.061855 157.419036 
L 434.771389 157.190353 
L 437.609524 155.052308 
L 438.319058 154.882882 
L 439.028591 154.94795 
L 439.738125 155.253318 
L 440.447659 155.797424 
L 441.157192 156.569479 
L 442.57626 158.64163 
L 443.285793 159.738208 
L 443.995327 160.610514 
L 444.704861 161.021687 
L 445.414395 160.883342 
L 446.123928 160.33789 
L 447.542996 158.965329 
L 448.252529 158.455493 
L 448.962063 158.158984 
L 449.671597 158.100894 
L 450.38113 158.291705 
L 451.090664 158.734825 
L 451.800198 159.427087 
L 452.509731 160.351921 
L 454.638333 163.669323 
L 455.347866 164.243149 
L 456.0574 164.164143 
L 456.766934 163.532971 
L 458.895535 161.033162 
L 459.605068 160.527047 
L 460.314602 160.270637 
L 461.024136 160.274318 
L 461.733669 160.543299 
L 462.443203 161.081848 
L 463.152737 161.892481 
L 463.862271 162.968689 
L 465.990872 166.987073 
L 466.700405 167.723954 
L 467.409939 167.614151 
L 468.119473 166.810308 
L 469.53854 164.703823 
L 470.248074 163.884438 
L 470.957607 163.332652 
L 471.667141 163.066557 
L 472.376675 163.091783 
L 473.086208 163.413532 
L 473.795742 164.041123 
L 474.505276 164.98822 
L 475.21481 166.266936 
L 476.633877 169.681472 
L 477.343411 171.364395 
L 478.052944 172.213767 
L 478.762478 171.74429 
L 480.891079 167.573191 
L 481.600613 166.589409 
L 482.310146 165.945596 
L 483.01968 165.63379 
L 483.729214 165.6455 
L 484.438748 165.979337 
L 485.148281 166.642982 
L 485.857815 167.652043 
L 486.567349 169.022532 
L 488.69595 174.362534 
L 489.405483 174.91176 
L 490.115017 173.976265 
L 491.534084 170.646373 
L 492.243618 169.287001 
L 492.953152 168.290902 
L 493.662686 167.65342 
L 494.372219 167.359911 
L 495.081753 167.403126 
L 495.791287 167.789297 
L 496.50082 168.54253 
L 497.210354 169.711388 
L 497.919888 171.380204 
L 498.629421 173.684512 
L 499.338955 176.794679 
L 500.048489 180.511579 
L 500.758022 182.085396 
L 501.467556 179.093587 
L 502.17709 175.407608 
L 502.886624 172.503468 
L 503.596157 170.315346 
L 504.305691 168.663274 
L 505.015225 167.416954 
L 505.724758 166.48852 
L 506.434292 165.816732 
L 507.143826 165.356332 
L 507.853359 165.071411 
L 508.562893 164.931139 
L 509.98196 164.969749 
L 512.820095 165.45284 
L 513.529629 165.455999 
L 514.239163 165.347161 
L 514.948696 165.107229 
L 515.65823 164.73089 
L 517.077297 163.617629 
L 519.205898 161.446428 
L 521.3345 159.33683 
L 522.753567 158.216748 
L 523.463101 157.775538 
L 523.463101 157.775538 
" clip-path="url(#p5c38f142b1)" style="fill: none; stroke-dasharray: 8.14,3.52; stroke-dashoffset: 0; stroke: #2a6fbb; stroke-opacity: 0.8; stroke-width: 2.2"/>
   </g>
   <g id="patch_4">
    <path d="M 76.456875 360.399375 
L 76.456875 27.759375 
" style="fill: none; stroke: #262626; stroke-width: 1.875; stroke-linejoin: miter; stroke-linecap: square"/>
   </g>
   <g id="patch_5">
    <path d="M 522.856875 360.399375 
L 522.856875 27.759375 
" style="fill: none; stroke: #262626; stroke-width: 1.875; stroke-linejoin: miter; stroke-linecap: square"/>
   </g>
   <g id="patch_6">
    <path d="M 76.456875 360.399375 
L 522.856875 360.399375 
" style="fill: none; stroke: #262626; stroke-width: 1.875; stroke-linejoin: miter; stroke-linecap: square"/>
   </g>
   <g id="patch_7">
    <path d="M 76.456875 27.759375 
L 522.856875 27.759375 
" style="fill: none; stroke: #262626; stroke-width: 1.875; stroke-linejoin: miter; stroke-linecap: square"/>
   </g>
   <g id="text_18">
    <!-- Pacinian band-pass -->
    <g style="fill: #262626" transform="translate(126.880625 333.481875) scale(0.16 -0.16)">
     <defs>
      <path id="Arial-BoldMT-61" d="M 1116 2306 
L 319 2450 
Q 453 2931 781 3162 
Q 1109 3394 1756 3394 
Q 2344 3394 2631 3255 
Q 2919 3116 3036 2902 
Q 3153 2688 3153 2116 
L 3144 1091 
Q 3144 653 3186 445 
Q 3228 238 3344 0 
L 2475 0 
Q 2441 88 2391 259 
Q 2369 338 2359 363 
Q 2134 144 1878 34 
Q 1622 -75 1331 -75 
Q 819 -75 523 203 
Q 228 481 228 906 
Q 228 1188 362 1408 
Q 497 1628 739 1745 
Q 981 1863 1438 1950 
Q 2053 2066 2291 2166 
L 2291 2253 
Q 2291 2506 2166 2614 
Q 2041 2722 1694 2722 
Q 1459 2722 1328 2630 
Q 1197 2538 1116 2306 
z
M 2291 1594 
Q 2122 1538 1756 1459 
Q 1391 1381 1278 1306 
Q 1106 1184 1106 997 
Q 1106 813 1243 678 
Q 1381 544 1594 544 
Q 1831 544 2047 700 
Q 2206 819 2256 991 
Q 2291 1103 2291 1419 
L 2291 1594 
z
" transform="scale(0.015625)"/>
      <path id="Arial-BoldMT-69" d="M 459 3769 
L 459 4581 
L 1338 4581 
L 1338 3769 
L 459 3769 
z
M 459 0 
L 459 3319 
L 1338 3319 
L 1338 0 
L 459 0 
z
" transform="scale(0.015625)"/>
      <path id="Arial-BoldMT-62" d="M 422 0 
L 422 4581 
L 1300 4581 
L 1300 2931 
Q 1706 3394 2263 3394 
Q 2869 3394 3266 2955 
Q 3663 2516 3663 1694 
Q 3663 844 3258 384 
Q 2853 -75 2275 -75 
Q 1991 -75 1714 67 
Q 1438 209 1238 488 
L 1238 0 
L 422 0 
z
M 1294 1731 
Q 1294 1216 1456 969 
Q 1684 619 2063 619 
Q 2353 619 2558 867 
Q 2763 1116 2763 1650 
Q 2763 2219 2556 2470 
Q 2350 2722 2028 2722 
Q 1713 2722 1503 2476 
Q 1294 2231 1294 1731 
z
" transform="scale(0.015625)"/>
      <path id="Arial-BoldMT-2d" d="M 359 1222 
L 359 2100 
L 2084 2100 
L 2084 1222 
L 359 1222 
z
" transform="scale(0.015625)"/>
      <path id="Arial-BoldMT-70" d="M 434 3319 
L 1253 3319 
L 1253 2831 
Q 1413 3081 1684 3237 
Q 1956 3394 2288 3394 
Q 2866 3394 3269 2941 
Q 3672 2488 3672 1678 
Q 3672 847 3265 386 
Q 2859 -75 2281 -75 
Q 2006 -75 1782 34 
Q 1559 144 1313 409 
L 1313 -1263 
L 434 -1263 
L 434 3319 
z
M 1303 1716 
Q 1303 1156 1525 889 
Q 1747 622 2066 622 
Q 2372 622 2575 867 
Q 2778 1113 2778 1672 
Q 2778 2194 2568 2447 
Q 2359 2700 2050 2700 
Q 1728 2700 1515 2451 
Q 1303 2203 1303 1716 
z
" transform="scale(0.015625)"/>
      <path id="Arial-BoldMT-73" d="M 150 947 
L 1031 1081 
Q 1088 825 1259 692 
Q 1431 559 1741 559 
Q 2081 559 2253 684 
Q 2369 772 2369 919 
Q 2369 1019 2306 1084 
Q 2241 1147 2013 1200 
Q 950 1434 666 1628 
Q 272 1897 272 2375 
Q 272 2806 612 3100 
Q 953 3394 1669 3394 
Q 2350 3394 2681 3172 
Q 3013 2950 3138 2516 
L 2309 2363 
Q 2256 2556 2107 2659 
Q 1959 2763 1684 2763 
Q 1338 2763 1188 2666 
Q 1088 2597 1088 2488 
Q 1088 2394 1175 2328 
Q 1294 2241 1995 2081 
Q 2697 1922 2975 1691 
Q 3250 1456 3250 1038 
Q 3250 581 2869 253 
Q 2488 -75 1741 -75 
Q 1063 -75 667 200 
Q 272 475 150 947 
z
" transform="scale(0.015625)"/>
     </defs>
     <use xlink:href="#Arial-BoldMT-50"/>
     <use xlink:href="#Arial-BoldMT-61" transform="translate(66.699219 0)"/>
     <use xlink:href="#Arial-BoldMT-63" transform="translate(122.314453 0)"/>
     <use xlink:href="#Arial-BoldMT-69" transform="translate(177.929688 0)"/>
     <use xlink:href="#Arial-BoldMT-6e" transform="translate(205.712891 0)"/>
     <use xlink:href="#Arial-BoldMT-69" transform="translate(266.796875 0)"/>
     <use xlink:href="#Arial-BoldMT-61" transform="translate(294.580078 0)"/>
     <use xlink:href="#Arial-BoldMT-6e" transform="translate(350.195312 0)"/>
     <use xlink:href="#Arial-BoldMT-20" transform="translate(411.279297 0)"/>
     <use xlink:href="#Arial-BoldMT-62" transform="translate(439.0625 0)"/>
     <use xlink:href="#Arial-BoldMT-61" transform="translate(500.146484 0)"/>
     <use xlink:href="#Arial-BoldMT-6e" transform="translate(555.761719 0)"/>
     <use xlink:href="#Arial-BoldMT-64" transform="translate(616.845703 0)"/>
     <use xlink:href="#Arial-BoldMT-2d" transform="translate(677.929688 0)"/>
     <use xlink:href="#Arial-BoldMT-70" transform="translate(711.230469 0)"/>
     <use xlink:href="#Arial-BoldMT-61" transform="translate(772.314453 0)"/>
     <use xlink:href="#Arial-BoldMT-73" transform="translate(827.929688 0)"/>
     <use xlink:href="#Arial-BoldMT-73" transform="translate(883.544922 0)"/>
    </g>
   </g>
   <g id="text_19">
    <!-- Figure 2 | Frequency Fidelity &amp; Receptor Tuning -->
    <g style="fill: #262626" transform="translate(72.583437 21.759375) scale(0.2 -0.2)">
     <defs>
      <path id="Arial-BoldMT-67" d="M 378 -219 
L 1381 -341 
Q 1406 -516 1497 -581 
Q 1622 -675 1891 -675 
Q 2234 -675 2406 -572 
Q 2522 -503 2581 -350 
Q 2622 -241 2622 53 
L 2622 538 
Q 2228 0 1628 0 
Q 959 0 569 566 
Q 263 1013 263 1678 
Q 263 2513 664 2953 
Q 1066 3394 1663 3394 
Q 2278 3394 2678 2853 
L 2678 3319 
L 3500 3319 
L 3500 341 
Q 3500 -247 3403 -537 
Q 3306 -828 3131 -993 
Q 2956 -1159 2664 -1253 
Q 2372 -1347 1925 -1347 
Q 1081 -1347 728 -1058 
Q 375 -769 375 -325 
Q 375 -281 378 -219 
z
M 1163 1728 
Q 1163 1200 1367 954 
Q 1572 709 1872 709 
Q 2194 709 2416 961 
Q 2638 1213 2638 1706 
Q 2638 2222 2425 2472 
Q 2213 2722 1888 2722 
Q 1572 2722 1367 2476 
Q 1163 2231 1163 1728 
z
" transform="scale(0.015625)"/>
      <path id="Arial-BoldMT-32" d="M 3238 816 
L 3238 0 
L 159 0 
Q 209 463 459 877 
Q 709 1291 1447 1975 
Q 2041 2528 2175 2725 
Q 2356 2997 2356 3263 
Q 2356 3556 2198 3714 
Q 2041 3872 1763 3872 
Q 1488 3872 1325 3706 
Q 1163 3541 1138 3156 
L 263 3244 
Q 341 3969 753 4284 
Q 1166 4600 1784 4600 
Q 2463 4600 2850 4234 
Q 3238 3869 3238 3325 
Q 3238 3016 3127 2736 
Q 3016 2456 2775 2150 
Q 2616 1947 2200 1565 
Q 1784 1184 1673 1059 
Q 1563 934 1494 816 
L 3238 816 
z
" transform="scale(0.015625)"/>
      <path id="Arial-BoldMT-7c" d="M 550 -1347 
L 550 4659 
L 1247 4659 
L 1247 -1347 
L 550 -1347 
z
" transform="scale(0.015625)"/>
      <path id="Arial-BoldMT-6c" d="M 459 0 
L 459 4581 
L 1338 4581 
L 1338 0 
L 459 0 
z
" transform="scale(0.015625)"/>
      <path id="Arial-BoldMT-74" d="M 1981 3319 
L 1981 2619 
L 1381 2619 
L 1381 1281 
Q 1381 875 1398 808 
Q 1416 741 1477 697 
Q 1538 653 1625 653 
Q 1747 653 1978 738 
L 2053 56 
Q 1747 -75 1359 -75 
Q 1122 -75 931 4 
Q 741 84 652 211 
Q 563 338 528 553 
Q 500 706 500 1172 
L 500 2619 
L 97 2619 
L 97 3319 
L 500 3319 
L 500 3978 
L 1381 4491 
L 1381 3319 
L 1981 3319 
z
" transform="scale(0.015625)"/>
      <path id="Arial-BoldMT-26" d="M 4519 559 
L 3988 -119 
Q 3597 72 3238 406 
Q 2959 156 2646 37 
Q 2334 -81 1903 -81 
Q 1047 -81 616 400 
Q 281 772 281 1256 
Q 281 1697 543 2048 
Q 806 2400 1328 2659 
Q 1094 2938 975 3189 
Q 856 3441 856 3666 
Q 856 4081 1189 4370 
Q 1522 4659 2138 4659 
Q 2731 4659 3065 4356 
Q 3400 4053 3400 3616 
Q 3400 3338 3234 3088 
Q 3069 2838 2566 2522 
L 3203 1681 
Q 3316 1881 3397 2203 
L 4191 2022 
Q 4072 1600 3984 1404 
Q 3897 1209 3797 1078 
Q 3944 941 4176 777 
Q 4409 613 4519 559 
z
M 2128 3050 
L 2366 3231 
Q 2628 3434 2628 3634 
Q 2628 3803 2501 3922 
Q 2375 4041 2159 4041 
Q 1950 4041 1831 3936 
Q 1713 3831 1713 3694 
Q 1713 3531 1913 3300 
L 2128 3050 
z
M 1784 2097 
Q 1481 1944 1331 1728 
Q 1181 1513 1181 1288 
Q 1181 1003 1367 823 
Q 1553 644 1866 644 
Q 2072 644 2262 725 
Q 2453 806 2678 994 
L 1784 2097 
z
" transform="scale(0.015625)"/>
      <path id="Arial-BoldMT-52" d="M 469 0 
L 469 4581 
L 2416 4581 
Q 3150 4581 3483 4457 
Q 3816 4334 4016 4018 
Q 4216 3703 4216 3297 
Q 4216 2781 3912 2445 
Q 3609 2109 3006 2022 
Q 3306 1847 3501 1637 
Q 3697 1428 4028 894 
L 4588 0 
L 3481 0 
L 2813 997 
Q 2456 1531 2325 1670 
Q 2194 1809 2047 1861 
Q 1900 1913 1581 1913 
L 1394 1913 
L 1394 0 
L 469 0 
z
M 1394 2644 
L 2078 2644 
Q 2744 2644 2909 2700 
Q 3075 2756 3169 2893 
Q 3263 3031 3263 3238 
Q 3263 3469 3139 3611 
Q 3016 3753 2791 3791 
Q 2678 3806 2116 3806 
L 1394 3806 
L 1394 2644 
z
" transform="scale(0.015625)"/>
      <path id="Arial-BoldMT-6f" d="M 256 1706 
Q 256 2144 472 2553 
Q 688 2963 1083 3178 
Q 1478 3394 1966 3394 
Q 2719 3394 3200 2905 
Q 3681 2416 3681 1669 
Q 3681 916 3195 420 
Q 2709 -75 1972 -75 
Q 1516 -75 1102 131 
Q 688 338 472 736 
Q 256 1134 256 1706 
z
M 1156 1659 
Q 1156 1166 1390 903 
Q 1625 641 1969 641 
Q 2313 641 2545 903 
Q 2778 1166 2778 1666 
Q 2778 2153 2545 2415 
Q 2313 2678 1969 2678 
Q 1625 2678 1390 2415 
Q 1156 2153 1156 1659 
z
" transform="scale(0.015625)"/>
      <path id="Arial-BoldMT-54" d="M 1497 0 
L 1497 3806 
L 138 3806 
L 138 4581 
L 3778 4581 
L 3778 3806 
L 2422 3806 
L 2422 0 
L 1497 0 
z
" transform="scale(0.015625)"/>
     </defs>
     <use xlink:href="#Arial-BoldMT-46"/>
     <use xlink:href="#Arial-BoldMT-69" transform="translate(61.083984 0)"/>
     <use xlink:href="#Arial-BoldMT-67" transform="translate(88.867188 0)"/>
     <use xlink:href="#Arial-BoldMT-75" transform="translate(149.951172 0)"/>
     <use xlink:href="#Arial-BoldMT-72" transform="translate(211.035156 0)"/>
     <use xlink:href="#Arial-BoldMT-65" transform="translate(249.951172 0)"/>
     <use xlink:href="#Arial-BoldMT-20" transform="translate(305.566406 0)"/>
     <use xlink:href="#Arial-BoldMT-32" transform="translate(333.349609 0)"/>
     <use xlink:href="#Arial-BoldMT-20" transform="translate(388.964844 0)"/>
     <use xlink:href="#Arial-BoldMT-7c" transform="translate(416.748047 0)"/>
     <use xlink:href="#Arial-BoldMT-20" transform="translate(444.726562 0)"/>
     <use xlink:href="#Arial-BoldMT-46" transform="translate(472.509766 0)"/>
     <use xlink:href="#Arial-BoldMT-72" transform="translate(533.59375 0)"/>
     <use xlink:href="#Arial-BoldMT-65" transform="translate(572.509766 0)"/>
     <use xlink:href="#Arial-BoldMT-71" transform="translate(628.125 0)"/>
     <use xlink:href="#Arial-BoldMT-75" transform="translate(689.208984 0)"/>
     <use xlink:href="#Arial-BoldMT-65" transform="translate(750.292969 0)"/>
     <use xlink:href="#Arial-BoldMT-6e" transform="translate(805.908203 0)"/>
     <use xlink:href="#Arial-BoldMT-63" transform="translate(866.992188 0)"/>
     <use xlink:href="#Arial-BoldMT-79" transform="translate(922.607422 0)"/>
     <use xlink:href="#Arial-BoldMT-20" transform="translate(978.222656 0)"/>
     <use xlink:href="#Arial-BoldMT-46" transform="translate(1006.005859 0)"/>
     <use xlink:href="#Arial-BoldMT-69" transform="translate(1067.089844 0)"/>
     <use xlink:href="#Arial-BoldMT-64" transform="translate(1094.873047 0)"/>
     <use xlink:href="#Arial-BoldMT-65" transform="translate(1155.957031 0)"/>
     <use xlink:href="#Arial-BoldMT-6c" transform="translate(1211.572266 0)"/>
     <use xlink:href="#Arial-BoldMT-69" transform="translate(1239.355469 0)"/>
     <use xlink:href="#Arial-BoldMT-74" transform="translate(1267.138672 0)"/>
     <use xlink:href="#Arial-BoldMT-79" transform="translate(1300.439453 0)"/>
     <use xlink:href="#Arial-BoldMT-20" transform="translate(1356.054688 0)"/>
     <use xlink:href="#Arial-BoldMT-26" transform="translate(1383.837891 0)"/>
     <use xlink:href="#Arial-BoldMT-20" transform="translate(1456.054688 0)"/>
     <use xlink:href="#Arial-BoldMT-52" transform="translate(1483.837891 0)"/>
     <use xlink:href="#Arial-BoldMT-65" transform="translate(1556.054688 0)"/>
     <use xlink:href="#Arial-BoldMT-63" transform="translate(1611.669922 0)"/>
     <use xlink:href="#Arial-BoldMT-65" transform="translate(1667.285156 0)"/>
     <use xlink:href="#Arial-BoldMT-70" transform="translate(1722.900391 0)"/>
     <use xlink:href="#Arial-BoldMT-74" transform="translate(1783.984375 0)"/>
     <use xlink:href="#Arial-BoldMT-6f" transform="translate(1817.285156 0)"/>
     <use xlink:href="#Arial-BoldMT-72" transform="translate(1878.369141 0)"/>
     <use xlink:href="#Arial-BoldMT-20" transform="translate(1917.285156 0)"/>
     <use xlink:href="#Arial-BoldMT-54" transform="translate(1945.068359 0)"/>
     <use xlink:href="#Arial-BoldMT-75" transform="translate(1998.777344 0)"/>
     <use xlink:href="#Arial-BoldMT-6e" transform="translate(2059.861328 0)"/>
     <use xlink:href="#Arial-BoldMT-69" transform="translate(2120.945312 0)"/>
     <use xlink:href="#Arial-BoldMT-6e" transform="translate(2148.728516 0)"/>
     <use xlink:href="#Arial-BoldMT-67" transform="translate(2209.8125 0)"/>
    </g>
   </g>
   <g id="legend_1">
    <g id="patch_8">
     <path d="M 368.006875 352.399375 
L 511.656875 352.399375 
Q 514.856875 352.399375 514.856875 349.199375 
L 514.856875 258.739375 
Q 514.856875 255.539375 511.656875 255.539375 
L 368.006875 255.539375 
Q 364.806875 255.539375 364.806875 258.739375 
L 364.806875 349.199375 
Q 364.806875 352.399375 368.006875 352.399375 
z
" style="fill: #ffffff; opacity: 0.8; stroke: #cccccc; stroke-width: 1.5; stroke-linejoin: miter"/>
    </g>
    <g id="line2d_20">
     <path d="M 371.206875 267.986875 
L 387.206875 267.986875 
L 403.206875 267.986875 
" style="fill: none; stroke: #c73e1d; stroke-width: 3.2; stroke-linecap: round"/>
    </g>
    <g id="text_20">
     <!-- ULM_L | m(t) -->
     <g style="fill: #262626" transform="translate(416.006875 273.586875) scale(0.16 -0.16)">
      <defs>
       <path id="ArialMT-55" d="M 3500 4581 
L 4106 4581 
L 4106 1934 
Q 4106 1244 3950 837 
Q 3794 431 3386 176 
Q 2978 -78 2316 -78 
Q 1672 -78 1262 144 
Q 853 366 678 786 
Q 503 1206 503 1934 
L 503 4581 
L 1109 4581 
L 1109 1938 
Q 1109 1341 1220 1058 
Q 1331 775 1601 622 
Q 1872 469 2263 469 
Q 2931 469 3215 772 
Q 3500 1075 3500 1938 
L 3500 4581 
z
" transform="scale(0.015625)"/>
       <path id="ArialMT-4c" d="M 469 0 
L 469 4581 
L 1075 4581 
L 1075 541 
L 3331 541 
L 3331 0 
L 469 0 
z
" transform="scale(0.015625)"/>
       <path id="ArialMT-4d" d="M 475 0 
L 475 4581 
L 1388 4581 
L 2472 1338 
Q 2622 884 2691 659 
Q 2769 909 2934 1394 
L 4031 4581 
L 4847 4581 
L 4847 0 
L 4263 0 
L 4263 3834 
L 2931 0 
L 2384 0 
L 1059 3900 
L 1059 0 
L 475 0 
z
" transform="scale(0.015625)"/>
       <path id="ArialMT-5f" d="M -97 -1272 
L -97 -866 
L 3631 -866 
L 3631 -1272 
L -97 -1272 
z
" transform="scale(0.015625)"/>
       <path id="ArialMT-20" transform="scale(0.015625)"/>
       <path id="ArialMT-7c" d="M 588 -1347 
L 588 4659 
L 1078 4659 
L 1078 -1347 
L 588 -1347 
z
" transform="scale(0.015625)"/>
       <path id="ArialMT-6d" d="M 422 0 
L 422 3319 
L 925 3319 
L 925 2853 
Q 1081 3097 1340 3245 
Q 1600 3394 1931 3394 
Q 2300 3394 2536 3241 
Q 2772 3088 2869 2813 
Q 3263 3394 3894 3394 
Q 4388 3394 4653 3120 
Q 4919 2847 4919 2278 
L 4919 0 
L 4359 0 
L 4359 2091 
Q 4359 2428 4304 2576 
Q 4250 2725 4106 2815 
Q 3963 2906 3769 2906 
Q 3419 2906 3187 2673 
Q 2956 2441 2956 1928 
L 2956 0 
L 2394 0 
L 2394 2156 
Q 2394 2531 2256 2718 
Q 2119 2906 1806 2906 
Q 1569 2906 1367 2781 
Q 1166 2656 1075 2415 
Q 984 2175 984 1722 
L 984 0 
L 422 0 
z
" transform="scale(0.015625)"/>
       <path id="ArialMT-28" d="M 1497 -1347 
Q 1031 -759 709 28 
Q 388 816 388 1659 
Q 388 2403 628 3084 
Q 909 3875 1497 4659 
L 1900 4659 
Q 1522 4009 1400 3731 
Q 1209 3300 1100 2831 
Q 966 2247 966 1656 
Q 966 153 1900 -1347 
L 1497 -1347 
z
" transform="scale(0.015625)"/>
       <path id="ArialMT-74" d="M 1650 503 
L 1731 6 
Q 1494 -44 1306 -44 
Q 1000 -44 831 53 
Q 663 150 594 308 
Q 525 466 525 972 
L 525 2881 
L 113 2881 
L 113 3319 
L 525 3319 
L 525 4141 
L 1084 4478 
L 1084 3319 
L 1650 3319 
L 1650 2881 
L 1084 2881 
L 1084 941 
Q 1084 700 1114 631 
Q 1144 563 1211 522 
Q 1278 481 1403 481 
Q 1497 481 1650 503 
z
" transform="scale(0.015625)"/>
       <path id="ArialMT-29" d="M 791 -1347 
L 388 -1347 
Q 1322 153 1322 1656 
Q 1322 2244 1188 2822 
Q 1081 3291 891 3722 
Q 769 4003 388 4659 
L 791 4659 
Q 1378 3875 1659 3084 
Q 1900 2403 1900 1659 
Q 1900 816 1576 28 
Q 1253 -759 791 -1347 
z
" transform="scale(0.015625)"/>
      </defs>
      <use xlink:href="#ArialMT-55"/>
      <use xlink:href="#ArialMT-4c" transform="translate(72.216797 0)"/>
      <use xlink:href="#ArialMT-4d" transform="translate(127.832031 0)"/>
      <use xlink:href="#ArialMT-5f" transform="translate(211.132812 0)"/>
      <use xlink:href="#ArialMT-4c" transform="translate(266.748047 0)"/>
      <use xlink:href="#ArialMT-20" transform="translate(318.613281 0)"/>
      <use xlink:href="#ArialMT-7c" transform="translate(346.396484 0)"/>
      <use xlink:href="#ArialMT-20" transform="translate(372.373047 0)"/>
      <use xlink:href="#ArialMT-6d" transform="translate(400.15625 0)"/>
      <use xlink:href="#ArialMT-28" transform="translate(483.457031 0)"/>
      <use xlink:href="#ArialMT-74" transform="translate(516.757812 0)"/>
      <use xlink:href="#ArialMT-29" transform="translate(544.541016 0)"/>
     </g>
    </g>
    <g id="line2d_21">
     <path d="M 371.206875 291.001875 
L 387.206875 291.001875 
L 403.206875 291.001875 
" style="fill: none; stroke-dasharray: 8.14,3.52; stroke-dashoffset: 0; stroke: #c73e1d; stroke-opacity: 0.8; stroke-width: 2.2"/>
    </g>
    <g id="text_21">
     <!-- ULM_L | u(t) -->
     <g style="fill: #262626" transform="translate(416.006875 296.601875) scale(0.16 -0.16)">
      <defs>
       <path id="ArialMT-75" d="M 2597 0 
L 2597 488 
Q 2209 -75 1544 -75 
Q 1250 -75 995 37 
Q 741 150 617 320 
Q 494 491 444 738 
Q 409 903 409 1263 
L 409 3319 
L 972 3319 
L 972 1478 
Q 972 1038 1006 884 
Q 1059 663 1231 536 
Q 1403 409 1656 409 
Q 1909 409 2131 539 
Q 2353 669 2445 892 
Q 2538 1116 2538 1541 
L 2538 3319 
L 3100 3319 
L 3100 0 
L 2597 0 
z
" transform="scale(0.015625)"/>
      </defs>
      <use xlink:href="#ArialMT-55"/>
      <use xlink:href="#ArialMT-4c" transform="translate(72.216797 0)"/>
      <use xlink:href="#ArialMT-4d" transform="translate(127.832031 0)"/>
      <use xlink:href="#ArialMT-5f" transform="translate(211.132812 0)"/>
      <use xlink:href="#ArialMT-4c" transform="translate(266.748047 0)"/>
      <use xlink:href="#ArialMT-20" transform="translate(318.613281 0)"/>
      <use xlink:href="#ArialMT-7c" transform="translate(346.396484 0)"/>
      <use xlink:href="#ArialMT-20" transform="translate(372.373047 0)"/>
      <use xlink:href="#ArialMT-75" transform="translate(400.15625 0)"/>
      <use xlink:href="#ArialMT-28" transform="translate(455.771484 0)"/>
      <use xlink:href="#ArialMT-74" transform="translate(489.072266 0)"/>
      <use xlink:href="#ArialMT-29" transform="translate(516.855469 0)"/>
     </g>
    </g>
    <g id="line2d_22">
     <path d="M 371.206875 314.016875 
L 387.206875 314.016875 
L 403.206875 314.016875 
" style="fill: none; stroke: #2a6fbb; stroke-width: 3.2; stroke-linecap: round"/>
    </g>
    <g id="text_22">
     <!-- LM_L | m(t) -->
     <g style="fill: #262626" transform="translate(416.006875 319.616875) scale(0.16 -0.16)">
      <use xlink:href="#ArialMT-4c"/>
      <use xlink:href="#ArialMT-4d" transform="translate(55.615234 0)"/>
      <use xlink:href="#ArialMT-5f" transform="translate(138.916016 0)"/>
      <use xlink:href="#ArialMT-4c" transform="translate(194.53125 0)"/>
      <use xlink:href="#ArialMT-20" transform="translate(246.396484 0)"/>
      <use xlink:href="#ArialMT-7c" transform="translate(274.179688 0)"/>
      <use xlink:href="#ArialMT-20" transform="translate(300.15625 0)"/>
      <use xlink:href="#ArialMT-6d" transform="translate(327.939453 0)"/>
      <use xlink:href="#ArialMT-28" transform="translate(411.240234 0)"/>
      <use xlink:href="#ArialMT-74" transform="translate(444.541016 0)"/>
      <use xlink:href="#ArialMT-29" transform="translate(472.324219 0)"/>
     </g>
    </g>
    <g id="line2d_23">
     <path d="M 371.206875 337.031875 
L 387.206875 337.031875 
L 403.206875 337.031875 
" style="fill: none; stroke-dasharray: 8.14,3.52; stroke-dashoffset: 0; stroke: #2a6fbb; stroke-opacity: 0.8; stroke-width: 2.2"/>
    </g>
    <g id="text_23">
     <!-- LM_L | u(t) -->
     <g style="fill: #262626" transform="translate(416.006875 342.631875) scale(0.16 -0.16)">
      <use xlink:href="#ArialMT-4c"/>
      <use xlink:href="#ArialMT-4d" transform="translate(55.615234 0)"/>
      <use xlink:href="#ArialMT-5f" transform="translate(138.916016 0)"/>
      <use xlink:href="#ArialMT-4c" transform="translate(194.53125 0)"/>
      <use xlink:href="#ArialMT-20" transform="translate(246.396484 0)"/>
      <use xlink:href="#ArialMT-7c" transform="translate(274.179688 0)"/>
      <use xlink:href="#ArialMT-20" transform="translate(300.15625 0)"/>
      <use xlink:href="#ArialMT-75" transform="translate(327.939453 0)"/>
      <use xlink:href="#ArialMT-28" transform="translate(383.554688 0)"/>
      <use xlink:href="#ArialMT-74" transform="translate(416.855469 0)"/>
      <use xlink:href="#ArialMT-29" transform="translate(444.638672 0)"/>
     </g>
    </g>
   </g>
  </g>
 </g>
 <defs>
  <clipPath id="p5c38f142b1">
   <rect x="76.456875" y="27.759375" width="446.4" height="332.64"/>
  </clipPath>
 </defs>
</svg>
