<?xml version="1.0" encoding="utf-8" standalone="no"?>
<!DOCTYPE svg PUBLIC "-//W3C//DTD SVG 1.1//EN"
  "http://www.w3.org/Graphics/SVG/1.1/DTD/svg11.dtd">
<svg xmlns:xlink="http://www.w3.org/1999/xlink" width="545.071406pt" height="396.674062pt" viewBox="0 0 545.071406 396.674062" xmlns="http://www.w3.org/2000/svg" version="1.1">
 <metadata>
  <rdf:RDF xmlns:dc="http://purl.org/dc/elements/1.1/" xmlns:cc="http://creativecommons.org/ns#" xmlns:rdf="http://www.w3.org/1999/02/22-rdf-syntax-ns#">
   <cc:Work>
    <dc:type rdf:resource="http://purl.org/dc/dcmitype/StillImage"/>
    <dc:date>2026-03-08T19:48:57.391751</dc:date>
    <dc:format>image/svg+xml</dc:format>
    <dc:creator>
     <cc:Agent>
      <dc:title>Matplotlib v3.10.0, https://matplotlib.org/</dc:title>
     </cc:Agent>
    </dc:creator>
   </cc:Work>
  </rdf:RDF>
 </metadata>
 <defs>
  <style type="text/css">*{stroke-linejoin: round; stroke-linecap: butt}</style>
 </defs>
 <g id="figure_1">
  <g id="patch_1">
   <path d="M 0 396.674062 
L 545.071406 396.674062 
L 545.071406 0 
L 0 0 
z
" style="fill: #ffffff"/>
  </g>
  <g id="axes_1">
   <g id="patch_2">
    <path d="M 76.456875 339.84 
L 522.856875 339.84 
L 522.856875 7.2 
L 76.456875 7.2 
z
" style="fill: #ffffff"/>
   </g>
   <g id="patch_3">
    <path d="M 160.156875 339.84 
L 243.856875 339.84 
L 243.856875 7.2 
L 160.156875 7.2 
z
" clip-path="url(#p1c30b7e431)" style="fill: #d9d9d9; opacity: 0.7; stroke: #d9d9d9; stroke-width: 1.5; stroke-linejoin: miter"/>
   </g>
   <g id="matplotlib.axis_1">
    <g id="xtick_1">
     <g id="line2d_1">
      <path d="M 76.456875 339.84 
L 76.456875 7.2 
" clip-path="url(#p1c30b7e431)" style="fill: none; stroke-dasharray: 5.55,2.4; stroke-dashoffset: 0; stroke: #cccccc; stroke-opacity: 0.35; stroke-width: 1.5"/>
     </g>
     <g id="text_1">
      <!-- 0 -->
      <g style="fill: #262626" transform="translate(71.452031 365.224063) scale(0.18 -0.18)">
       <defs>
        <path id="ArialMT-30" d="M 266 2259 
Q 266 3072 433 3567 
Q 600 4063 929 4331 
Q 1259 4600 1759 4600 
Q 2128 4600 2406 4451 
Q 2684 4303 2865 4023 
Q 3047 3744 3150 3342 
Q 3253 2941 3253 2259 
Q 3253 1453 3087 958 
Q 2922 463 2592 192 
Q 2263 -78 1759 -78 
Q 1097 -78 719 397 
Q 266 969 266 2259 
z
M 844 2259 
Q 844 1131 1108 757 
Q 1372 384 1759 384 
Q 2147 384 2411 759 
Q 2675 1134 2675 2259 
Q 2675 3391 2411 3762 
Q 2147 4134 1753 4134 
Q 1366 4134 1134 3806 
Q 844 3388 844 2259 
z
" transform="scale(0.015625)"/>
       </defs>
       <use xlink:href="#ArialMT-30"/>
      </g>
     </g>
    </g>
    <g id="xtick_2">
     <g id="line2d_2">
      <path d="M 132.256875 339.84 
L 132.256875 7.2 
" clip-path="url(#p1c30b7e431)" style="fill: none; stroke-dasharray: 5.55,2.4; stroke-dashoffset: 0; stroke: #cccccc; stroke-opacity: 0.35; stroke-width: 1.5"/>
     </g>
     <g id="text_2">
      <!-- 100 -->
      <g style="fill: #262626" transform="translate(117.242344 365.224063) scale(0.18 -0.18)">
       <defs>
        <path id="ArialMT-31" d="M 2384 0 
L 1822 0 
L 1822 3584 
Q 1619 3391 1289 3197 
Q 959 3003 697 2906 
L 697 3450 
Q 1169 3672 1522 3987 
Q 1875 4303 2022 4600 
L 2384 4600 
L 2384 0 
z
" transform="scale(0.015625)"/>
       </defs>
       <use xlink:href="#ArialMT-31"/>
       <use xlink:href="#ArialMT-30" transform="translate(55.615234 0)"/>
       <use xlink:href="#ArialMT-30" transform="translate(111.230469 0)"/>
      </g>
     </g>
    </g>
    <g id="xtick_3">
     <g id="line2d_3">
      <path d="M 188.056875 339.84 
L 188.056875 7.2 
" clip-path="url(#p1c30b7e431)" style="fill: none; stroke-dasharray: 5.55,2.4; stroke-dashoffset: 0; stroke: #cccccc; stroke-opacity: 0.35; stroke-width: 1.5"/>
     </g>
     <g id="text_3">
      <!-- 200 -->
      <g style="fill: #262626" transform="translate(173.042344 365.224063) scale(0.18 -0.18)">
       <defs>
        <path id="ArialMT-32" d="M 3222 541 
L 3222 0 
L 194 0 
Q 188 203 259 391 
Q 375 700 629 1000 
Q 884 1300 1366 1694 
Q 2113 2306 2375 2664 
Q 2638 3022 2638 3341 
Q 2638 3675 2398 3904 
Q 2159 4134 1775 4134 
Q 1369 4134 1125 3890 
Q 881 3647 878 3216 
L 300 3275 
Q 359 3922 746 4261 
Q 1134 4600 1788 4600 
Q 2447 4600 2831 4234 
Q 3216 3869 3216 3328 
Q 3216 3053 3103 2787 
Q 2991 2522 2730 2228 
Q 2469 1934 1863 1422 
Q 1356 997 1212 845 
Q 1069 694 975 541 
L 3222 541 
z
" transform="scale(0.015625)"/>
       </defs>
       <use xlink:href="#ArialMT-32"/>
       <use xlink:href="#ArialMT-30" transform="translate(55.615234 0)"/>
       <use xlink:href="#ArialMT-30" transform="translate(111.230469 0)"/>
      </g>
     </g>
    </g>
    <g id="xtick_4">
     <g id="line2d_4">
      <path d="M 243.856875 339.84 
L 243.856875 7.2 
" clip-path="url(#p1c30b7e431)" style="fill: none; stroke-dasharray: 5.55,2.4; stroke-dashoffset: 0; stroke: #cccccc; stroke-opacity: 0.35; stroke-width: 1.5"/>
     </g>
     <g id="text_4">
      <!-- 300 -->
      <g style="fill: #262626" transform="translate(228.842344 365.224063) scale(0.18 -0.18)">
       <defs>
        <path id="ArialMT-33" d="M 269 1209 
L 831 1284 
Q 928 806 1161 595 
Q 1394 384 1728 384 
Q 2125 384 2398 659 
Q 2672 934 2672 1341 
Q 2672 1728 2419 1979 
Q 2166 2231 1775 2231 
Q 1616 2231 1378 2169 
L 1441 2663 
Q 1497 2656 1531 2656 
Q 1891 2656 2178 2843 
Q 2466 3031 2466 3422 
Q 2466 3731 2256 3934 
Q 2047 4138 1716 4138 
Q 1388 4138 1169 3931 
Q 950 3725 888 3313 
L 325 3413 
Q 428 3978 793 4289 
Q 1159 4600 1703 4600 
Q 2078 4600 2393 4439 
Q 2709 4278 2876 4000 
Q 3044 3722 3044 3409 
Q 3044 3113 2884 2869 
Q 2725 2625 2413 2481 
Q 2819 2388 3044 2092 
Q 3269 1797 3269 1353 
Q 3269 753 2831 336 
Q 2394 -81 1725 -81 
Q 1122 -81 723 278 
Q 325 638 269 1209 
z
" transform="scale(0.015625)"/>
       </defs>
       <use xlink:href="#ArialMT-33"/>
       <use xlink:href="#ArialMT-30" transform="translate(55.615234 0)"/>
       <use xlink:href="#ArialMT-30" transform="translate(111.230469 0)"/>
      </g>
     </g>
    </g>
    <g id="xtick_5">
     <g id="line2d_5">
      <path d="M 299.656875 339.84 
L 299.656875 7.2 
" clip-path="url(#p1c30b7e431)" style="fill: none; stroke-dasharray: 5.55,2.4; stroke-dashoffset: 0; stroke: #cccccc; stroke-opacity: 0.35; stroke-width: 1.5"/>
     </g>
     <g id="text_5">
      <!-- 400 -->
      <g style="fill: #262626" transform="translate(284.642344 365.224063) scale(0.18 -0.18)">
       <defs>
        <path id="ArialMT-34" d="M 2069 0 
L 2069 1097 
L 81 1097 
L 81 1613 
L 2172 4581 
L 2631 4581 
L 2631 1613 
L 3250 1613 
L 3250 1097 
L 2631 1097 
L 2631 0 
L 2069 0 
z
M 2069 1613 
L 2069 3678 
L 634 1613 
L 2069 1613 
z
" transform="scale(0.015625)"/>
       </defs>
       <use xlink:href="#ArialMT-34"/>
       <use xlink:href="#ArialMT-30" transform="translate(55.615234 0)"/>
       <use xlink:href="#ArialMT-30" transform="translate(111.230469 0)"/>
      </g>
     </g>
    </g>
    <g id="xtick_6">
     <g id="line2d_6">
      <path d="M 355.456875 339.84 
L 355.456875 7.2 
" clip-path="url(#p1c30b7e431)" style="fill: none; stroke-dasharray: 5.55,2.4; stroke-dashoffset: 0; stroke: #cccccc; stroke-opacity: 0.35; stroke-width: 1.5"/>
     </g>
     <g id="text_6">
      <!-- 500 -->
      <g style="fill: #262626" transform="translate(340.442344 365.224063) scale(0.18 -0.18)">
       <defs>
        <path id="ArialMT-35" d="M 266 1200 
L 856 1250 
Q 922 819 1161 601 
Q 1400 384 1738 384 
Q 2144 384 2425 690 
Q 2706 997 2706 1503 
Q 2706 1984 2436 2262 
Q 2166 2541 1728 2541 
Q 1456 2541 1237 2417 
Q 1019 2294 894 2097 
L 366 2166 
L 809 4519 
L 3088 4519 
L 3088 3981 
L 1259 3981 
L 1013 2750 
Q 1425 3038 1878 3038 
Q 2478 3038 2890 2622 
Q 3303 2206 3303 1553 
Q 3303 931 2941 478 
Q 2500 -78 1738 -78 
Q 1113 -78 717 272 
Q 322 622 266 1200 
z
" transform="scale(0.015625)"/>
       </defs>
       <use xlink:href="#ArialMT-35"/>
       <use xlink:href="#ArialMT-30" transform="translate(55.615234 0)"/>
       <use xlink:href="#ArialMT-30" transform="translate(111.230469 0)"/>
      </g>
     </g>
    </g>
    <g id="xtick_7">
     <g id="line2d_7">
      <path d="M 411.256875 339.84 
L 411.256875 7.2 
" clip-path="url(#p1c30b7e431)" style="fill: none; stroke-dasharray: 5.55,2.4; stroke-dashoffset: 0; stroke: #cccccc; stroke-opacity: 0.35; stroke-width: 1.5"/>
     </g>
     <g id="text_7">
      <!-- 600 -->
      <g style="fill: #262626" transform="translate(396.242344 365.224063) scale(0.18 -0.18)">
       <defs>
        <path id="ArialMT-36" d="M 3184 3459 
L 2625 3416 
Q 2550 3747 2413 3897 
Q 2184 4138 1850 4138 
Q 1581 4138 1378 3988 
Q 1113 3794 959 3422 
Q 806 3050 800 2363 
Q 1003 2672 1297 2822 
Q 1591 2972 1913 2972 
Q 2475 2972 2870 2558 
Q 3266 2144 3266 1488 
Q 3266 1056 3080 686 
Q 2894 316 2569 119 
Q 2244 -78 1831 -78 
Q 1128 -78 684 439 
Q 241 956 241 2144 
Q 241 3472 731 4075 
Q 1159 4600 1884 4600 
Q 2425 4600 2770 4297 
Q 3116 3994 3184 3459 
z
M 888 1484 
Q 888 1194 1011 928 
Q 1134 663 1356 523 
Q 1578 384 1822 384 
Q 2178 384 2434 671 
Q 2691 959 2691 1453 
Q 2691 1928 2437 2201 
Q 2184 2475 1800 2475 
Q 1419 2475 1153 2201 
Q 888 1928 888 1484 
z
" transform="scale(0.015625)"/>
       </defs>
       <use xlink:href="#ArialMT-36"/>
       <use xlink:href="#ArialMT-30" transform="translate(55.615234 0)"/>
       <use xlink:href="#ArialMT-30" transform="translate(111.230469 0)"/>
      </g>
     </g>
    </g>
    <g id="xtick_8">
     <g id="line2d_8">
      <path d="M 467.056875 339.84 
L 467.056875 7.2 
" clip-path="url(#p1c30b7e431)" style="fill: none; stroke-dasharray: 5.55,2.4; stroke-dashoffset: 0; stroke: #cccccc; stroke-opacity: 0.35; stroke-width: 1.5"/>
     </g>
     <g id="text_8">
      <!-- 700 -->
      <g style="fill: #262626" transform="translate(452.042344 365.224063) scale(0.18 -0.18)">
       <defs>
        <path id="ArialMT-37" d="M 303 3981 
L 303 4522 
L 3269 4522 
L 3269 4084 
Q 2831 3619 2401 2847 
Q 1972 2075 1738 1259 
Q 1569 684 1522 0 
L 944 0 
Q 953 541 1156 1306 
Q 1359 2072 1739 2783 
Q 2119 3494 2547 3981 
L 303 3981 
z
" transform="scale(0.015625)"/>
       </defs>
       <use xlink:href="#ArialMT-37"/>
       <use xlink:href="#ArialMT-30" transform="translate(55.615234 0)"/>
       <use xlink:href="#ArialMT-30" transform="translate(111.230469 0)"/>
      </g>
     </g>
    </g>
    <g id="xtick_9">
     <g id="line2d_9">
      <path d="M 522.856875 339.84 
L 522.856875 7.2 
" clip-path="url(#p1c30b7e431)" style="fill: none; stroke-dasharray: 5.55,2.4; stroke-dashoffset: 0; stroke: #cccccc; stroke-opacity: 0.35; stroke-width: 1.5"/>
     </g>
     <g id="text_9">
      <!-- 800 -->
      <g style="fill: #262626" transform="translate(507.842344 365.224063) scale(0.18 -0.18)">
       <defs>
        <path id="ArialMT-38" d="M 1131 2484 
Q 781 2613 612 2850 
Q 444 3088 444 3419 
Q 444 3919 803 4259 
Q 1163 4600 1759 4600 
Q 2359 4600 2725 4251 
Q 3091 3903 3091 3403 
Q 3091 3084 2923 2848 
Q 2756 2613 2416 2484 
Q 2838 2347 3058 2040 
Q 3278 1734 3278 1309 
Q 3278 722 2862 322 
Q 2447 -78 1769 -78 
Q 1091 -78 675 323 
Q 259 725 259 1325 
Q 259 1772 486 2073 
Q 713 2375 1131 2484 
z
M 1019 3438 
Q 1019 3113 1228 2906 
Q 1438 2700 1772 2700 
Q 2097 2700 2305 2904 
Q 2513 3109 2513 3406 
Q 2513 3716 2298 3927 
Q 2084 4138 1766 4138 
Q 1444 4138 1231 3931 
Q 1019 3725 1019 3438 
z
M 838 1322 
Q 838 1081 952 856 
Q 1066 631 1291 507 
Q 1516 384 1775 384 
Q 2178 384 2440 643 
Q 2703 903 2703 1303 
Q 2703 1709 2433 1975 
Q 2163 2241 1756 2241 
Q 1359 2241 1098 1978 
Q 838 1716 838 1322 
z
" transform="scale(0.015625)"/>
       </defs>
       <use xlink:href="#ArialMT-38"/>
       <use xlink:href="#ArialMT-30" transform="translate(55.615234 0)"/>
       <use xlink:href="#ArialMT-30" transform="translate(111.230469 0)"/>
      </g>
     </g>
    </g>
    <g id="text_10">
     <!-- Frequency [Hz] -->
     <g style="fill: #262626" transform="translate(234.652969 385.685625) scale(0.18 -0.18)">
      <defs>
       <path id="Arial-BoldMT-46" d="M 472 0 
L 472 4581 
L 3613 4581 
L 3613 3806 
L 1397 3806 
L 1397 2722 
L 3309 2722 
L 3309 1947 
L 1397 1947 
L 1397 0 
L 472 0 
z
" transform="scale(0.015625)"/>
       <path id="Arial-BoldMT-72" d="M 1300 0 
L 422 0 
L 422 3319 
L 1238 3319 
L 1238 2847 
Q 1447 3181 1614 3287 
Q 1781 3394 1994 3394 
Q 2294 3394 2572 3228 
L 2300 2463 
Q 2078 2606 1888 2606 
Q 1703 2606 1575 2504 
Q 1447 2403 1373 2137 
Q 1300 1872 1300 1025 
L 1300 0 
z
" transform="scale(0.015625)"/>
       <path id="Arial-BoldMT-65" d="M 2381 1056 
L 3256 909 
Q 3088 428 2723 176 
Q 2359 -75 1813 -75 
Q 947 -75 531 491 
Q 203 944 203 1634 
Q 203 2459 634 2926 
Q 1066 3394 1725 3394 
Q 2466 3394 2894 2905 
Q 3322 2416 3303 1406 
L 1103 1406 
Q 1113 1016 1316 798 
Q 1519 581 1822 581 
Q 2028 581 2168 693 
Q 2309 806 2381 1056 
z
M 2431 1944 
Q 2422 2325 2234 2523 
Q 2047 2722 1778 2722 
Q 1491 2722 1303 2513 
Q 1116 2303 1119 1944 
L 2431 1944 
z
" transform="scale(0.015625)"/>
       <path id="Arial-BoldMT-71" d="M 2628 -1263 
L 2628 406 
Q 2456 184 2200 54 
Q 1944 -75 1647 -75 
Q 1081 -75 716 350 
Q 284 847 284 1697 
Q 284 2497 689 2945 
Q 1094 3394 1694 3394 
Q 2025 3394 2267 3253 
Q 2509 3113 2697 2828 
L 2697 3319 
L 3506 3319 
L 3506 -1263 
L 2628 -1263 
z
M 2656 1700 
Q 2656 2209 2448 2457 
Q 2241 2706 1928 2706 
Q 1609 2706 1395 2453 
Q 1181 2200 1181 1650 
Q 1181 1103 1387 861 
Q 1594 619 1897 619 
Q 2200 619 2428 891 
Q 2656 1163 2656 1700 
z
" transform="scale(0.015625)"/>
       <path id="Arial-BoldMT-75" d="M 2644 0 
L 2644 497 
Q 2463 231 2167 78 
Q 1872 -75 1544 -75 
Q 1209 -75 943 72 
Q 678 219 559 484 
Q 441 750 441 1219 
L 441 3319 
L 1319 3319 
L 1319 1794 
Q 1319 1094 1367 936 
Q 1416 778 1544 686 
Q 1672 594 1869 594 
Q 2094 594 2272 717 
Q 2450 841 2515 1023 
Q 2581 1206 2581 1919 
L 2581 3319 
L 3459 3319 
L 3459 0 
L 2644 0 
z
" transform="scale(0.015625)"/>
       <path id="Arial-BoldMT-6e" d="M 3478 0 
L 2600 0 
L 2600 1694 
Q 2600 2231 2544 2389 
Q 2488 2547 2361 2634 
Q 2234 2722 2056 2722 
Q 1828 2722 1647 2597 
Q 1466 2472 1398 2265 
Q 1331 2059 1331 1503 
L 1331 0 
L 453 0 
L 453 3319 
L 1269 3319 
L 1269 2831 
Q 1703 3394 2363 3394 
Q 2653 3394 2893 3289 
Q 3134 3184 3257 3021 
Q 3381 2859 3429 2653 
Q 3478 2447 3478 2063 
L 3478 0 
z
" transform="scale(0.015625)"/>
       <path id="Arial-BoldMT-63" d="M 3353 2338 
L 2488 2181 
Q 2444 2441 2289 2572 
Q 2134 2703 1888 2703 
Q 1559 2703 1364 2476 
Q 1169 2250 1169 1719 
Q 1169 1128 1367 884 
Q 1566 641 1900 641 
Q 2150 641 2309 783 
Q 2469 925 2534 1272 
L 3397 1125 
Q 3263 531 2881 228 
Q 2500 -75 1859 -75 
Q 1131 -75 698 384 
Q 266 844 266 1656 
Q 266 2478 700 2936 
Q 1134 3394 1875 3394 
Q 2481 3394 2839 3133 
Q 3197 2872 3353 2338 
z
" transform="scale(0.015625)"/>
       <path id="Arial-BoldMT-79" d="M 44 3319 
L 978 3319 
L 1772 963 
L 2547 3319 
L 3456 3319 
L 2284 125 
L 2075 -453 
Q 1959 -744 1854 -897 
Q 1750 -1050 1614 -1145 
Q 1478 -1241 1279 -1294 
Q 1081 -1347 831 -1347 
Q 578 -1347 334 -1294 
L 256 -606 
Q 463 -647 628 -647 
Q 934 -647 1081 -467 
Q 1228 -288 1306 -9 
L 44 3319 
z
" transform="scale(0.015625)"/>
       <path id="Arial-BoldMT-20" transform="scale(0.015625)"/>
       <path id="Arial-BoldMT-5b" d="M 456 -1291 
L 456 4581 
L 2013 4581 
L 2013 3891 
L 1291 3891 
L 1291 -600 
L 2013 -600 
L 2013 -1291 
L 456 -1291 
z
" transform="scale(0.015625)"/>
       <path id="Arial-BoldMT-48" d="M 469 0 
L 469 4581 
L 1394 4581 
L 1394 2778 
L 3206 2778 
L 3206 4581 
L 4131 4581 
L 4131 0 
L 3206 0 
L 3206 2003 
L 1394 2003 
L 1394 0 
L 469 0 
z
" transform="scale(0.015625)"/>
       <path id="Arial-BoldMT-7a" d="M 106 0 
L 106 684 
L 1350 2113 
Q 1656 2463 1803 2609 
Q 1650 2600 1400 2597 
L 228 2591 
L 228 3319 
L 2972 3319 
L 2972 2697 
L 1703 1234 
L 1256 750 
Q 1622 772 1709 772 
L 3069 772 
L 3069 0 
L 106 0 
z
" transform="scale(0.015625)"/>
       <path id="Arial-BoldMT-5d" d="M 1675 4581 
L 1675 -1291 
L 119 -1291 
L 119 -600 
L 841 -600 
L 841 3897 
L 119 3897 
L 119 4581 
L 1675 4581 
z
" transform="scale(0.015625)"/>
      </defs>
      <use xlink:href="#Arial-BoldMT-46"/>
      <use xlink:href="#Arial-BoldMT-72" transform="translate(61.083984 0)"/>
      <use xlink:href="#Arial-BoldMT-65" transform="translate(100 0)"/>
      <use xlink:href="#Arial-BoldMT-71" transform="translate(155.615234 0)"/>
      <use xlink:href="#Arial-BoldMT-75" transform="translate(216.699219 0)"/>
      <use xlink:href="#Arial-BoldMT-65" transform="translate(277.783203 0)"/>
      <use xlink:href="#Arial-BoldMT-6e" transform="translate(333.398438 0)"/>
      <use xlink:href="#Arial-BoldMT-63" transform="translate(394.482422 0)"/>
      <use xlink:href="#Arial-BoldMT-79" transform="translate(450.097656 0)"/>
      <use xlink:href="#Arial-BoldMT-20" transform="translate(505.712891 0)"/>
      <use xlink:href="#Arial-BoldMT-5b" transform="translate(533.496094 0)"/>
      <use xlink:href="#Arial-BoldMT-48" transform="translate(566.796875 0)"/>
      <use xlink:href="#Arial-BoldMT-7a" transform="translate(639.013672 0)"/>
      <use xlink:href="#Arial-BoldMT-5d" transform="translate(689.013672 0)"/>
     </g>
    </g>
   </g>
   <g id="matplotlib.axis_2">
    <g id="ytick_1">
     <g id="line2d_10">
      <path d="M 76.456875 339.84 
L 522.856875 339.84 
" clip-path="url(#p1c30b7e431)" style="fill: none; stroke-dasharray: 5.55,2.4; stroke-dashoffset: 0; stroke: #cccccc; stroke-opacity: 0.35; stroke-width: 1.5"/>
     </g>
     <g id="text_11">
      <!-- -200 -->
      <g style="fill: #262626" transform="translate(27.934375 346.282031) scale(0.18 -0.18)">
       <defs>
        <path id="ArialMT-2d" d="M 203 1375 
L 203 1941 
L 1931 1941 
L 1931 1375 
L 203 1375 
z
" transform="scale(0.015625)"/>
       </defs>
       <use xlink:href="#ArialMT-2d"/>
       <use xlink:href="#ArialMT-32" transform="translate(33.300781 0)"/>
       <use xlink:href="#ArialMT-30" transform="translate(88.916016 0)"/>
       <use xlink:href="#ArialMT-30" transform="translate(144.53125 0)"/>
      </g>
     </g>
    </g>
    <g id="ytick_2">
     <g id="line2d_11">
      <path d="M 76.456875 280.44 
L 522.856875 280.44 
" clip-path="url(#p1c30b7e431)" style="fill: none; stroke-dasharray: 5.55,2.4; stroke-dashoffset: 0; stroke: #cccccc; stroke-opacity: 0.35; stroke-width: 1.5"/>
     </g>
     <g id="text_12">
      <!-- -150 -->
      <g style="fill: #262626" transform="translate(27.934375 286.882031) scale(0.18 -0.18)">
       <use xlink:href="#ArialMT-2d"/>
       <use xlink:href="#ArialMT-31" transform="translate(33.300781 0)"/>
       <use xlink:href="#ArialMT-35" transform="translate(88.916016 0)"/>
       <use xlink:href="#ArialMT-30" transform="translate(144.53125 0)"/>
      </g>
     </g>
    </g>
    <g id="ytick_3">
     <g id="line2d_12">
      <path d="M 76.456875 221.04 
L 522.856875 221.04 
" clip-path="url(#p1c30b7e431)" style="fill: none; stroke-dasharray: 5.55,2.4; stroke-dashoffset: 0; stroke: #cccccc; stroke-opacity: 0.35; stroke-width: 1.5"/>
     </g>
     <g id="text_13">
      <!-- -100 -->
      <g style="fill: #262626" transform="translate(27.934375 227.482031) scale(0.18 -0.18)">
       <use xlink:href="#ArialMT-2d"/>
       <use xlink:href="#ArialMT-31" transform="translate(33.300781 0)"/>
       <use xlink:href="#ArialMT-30" transform="translate(88.916016 0)"/>
       <use xlink:href="#ArialMT-30" transform="translate(144.53125 0)"/>
      </g>
     </g>
    </g>
    <g id="ytick_4">
     <g id="line2d_13">
      <path d="M 76.456875 161.64 
L 522.856875 161.64 
" clip-path="url(#p1c30b7e431)" style="fill: none; stroke-dasharray: 5.55,2.4; stroke-dashoffset: 0; stroke: #cccccc; stroke-opacity: 0.35; stroke-width: 1.5"/>
     </g>
     <g id="text_14">
      <!-- -50 -->
      <g style="fill: #262626" transform="translate(37.944063 168.082031) scale(0.18 -0.18)">
       <use xlink:href="#ArialMT-2d"/>
       <use xlink:href="#ArialMT-35" transform="translate(33.300781 0)"/>
       <use xlink:href="#ArialMT-30" transform="translate(88.916016 0)"/>
      </g>
     </g>
    </g>
    <g id="ytick_5">
     <g id="line2d_14">
      <path d="M 76.456875 102.24 
L 522.856875 102.24 
" clip-path="url(#p1c30b7e431)" style="fill: none; stroke-dasharray: 5.55,2.4; stroke-dashoffset: 0; stroke: #cccccc; stroke-opacity: 0.35; stroke-width: 1.5"/>
     </g>
     <g id="text_15">
      <!-- 0 -->
      <g style="fill: #262626" transform="translate(53.947188 108.682031) scale(0.18 -0.18)">
       <use xlink:href="#ArialMT-30"/>
      </g>
     </g>
    </g>
    <g id="ytick_6">
     <g id="line2d_15">
      <path d="M 76.456875 42.84 
L 522.856875 42.84 
" clip-path="url(#p1c30b7e431)" style="fill: none; stroke-dasharray: 5.55,2.4; stroke-dashoffset: 0; stroke: #cccccc; stroke-opacity: 0.35; stroke-width: 1.5"/>
     </g>
     <g id="text_16">
      <!-- 50 -->
      <g style="fill: #262626" transform="translate(43.9375 49.282031) scale(0.18 -0.18)">
       <use xlink:href="#ArialMT-35"/>
       <use xlink:href="#ArialMT-30" transform="translate(55.615234 0)"/>
      </g>
     </g>
    </g>
    <g id="text_17">
     <!-- PSD [dB] -->
     <g style="fill: #262626" transform="translate(20.303438 212.516719) rotate(-90) scale(0.18 -0.18)">
      <defs>
       <path id="Arial-BoldMT-50" d="M 466 0 
L 466 4581 
L 1950 4581 
Q 2794 4581 3050 4513 
Q 3444 4409 3709 4064 
Q 3975 3719 3975 3172 
Q 3975 2750 3822 2462 
Q 3669 2175 3433 2011 
Q 3197 1847 2953 1794 
Q 2622 1728 1994 1728 
L 1391 1728 
L 1391 0 
L 466 0 
z
M 1391 3806 
L 1391 2506 
L 1897 2506 
Q 2444 2506 2628 2578 
Q 2813 2650 2917 2803 
Q 3022 2956 3022 3159 
Q 3022 3409 2875 3571 
Q 2728 3734 2503 3775 
Q 2338 3806 1838 3806 
L 1391 3806 
z
" transform="scale(0.015625)"/>
       <path id="Arial-BoldMT-53" d="M 231 1491 
L 1131 1578 
Q 1213 1125 1461 912 
Q 1709 700 2131 700 
Q 2578 700 2804 889 
Q 3031 1078 3031 1331 
Q 3031 1494 2936 1608 
Q 2841 1722 2603 1806 
Q 2441 1863 1863 2006 
Q 1119 2191 819 2459 
Q 397 2838 397 3381 
Q 397 3731 595 4036 
Q 794 4341 1167 4500 
Q 1541 4659 2069 4659 
Q 2931 4659 3367 4281 
Q 3803 3903 3825 3272 
L 2900 3231 
Q 2841 3584 2645 3739 
Q 2450 3894 2059 3894 
Q 1656 3894 1428 3728 
Q 1281 3622 1281 3444 
Q 1281 3281 1419 3166 
Q 1594 3019 2269 2859 
Q 2944 2700 3267 2529 
Q 3591 2359 3773 2064 
Q 3956 1769 3956 1334 
Q 3956 941 3737 597 
Q 3519 253 3119 86 
Q 2719 -81 2122 -81 
Q 1253 -81 787 320 
Q 322 722 231 1491 
z
" transform="scale(0.015625)"/>
       <path id="Arial-BoldMT-44" d="M 463 4581 
L 2153 4581 
Q 2725 4581 3025 4494 
Q 3428 4375 3715 4072 
Q 4003 3769 4153 3330 
Q 4303 2891 4303 2247 
Q 4303 1681 4163 1272 
Q 3991 772 3672 463 
Q 3431 228 3022 97 
Q 2716 0 2203 0 
L 463 0 
L 463 4581 
z
M 1388 3806 
L 1388 772 
L 2078 772 
Q 2466 772 2638 816 
Q 2863 872 3011 1006 
Q 3159 1141 3253 1448 
Q 3347 1756 3347 2288 
Q 3347 2819 3253 3103 
Q 3159 3388 2990 3547 
Q 2822 3706 2563 3763 
Q 2369 3806 1803 3806 
L 1388 3806 
z
" transform="scale(0.015625)"/>
       <path id="Arial-BoldMT-64" d="M 3503 0 
L 2688 0 
L 2688 488 
Q 2484 203 2207 64 
Q 1931 -75 1650 -75 
Q 1078 -75 670 386 
Q 263 847 263 1672 
Q 263 2516 659 2955 
Q 1056 3394 1663 3394 
Q 2219 3394 2625 2931 
L 2625 4581 
L 3503 4581 
L 3503 0 
z
M 1159 1731 
Q 1159 1200 1306 963 
Q 1519 619 1900 619 
Q 2203 619 2415 876 
Q 2628 1134 2628 1647 
Q 2628 2219 2422 2470 
Q 2216 2722 1894 2722 
Q 1581 2722 1370 2473 
Q 1159 2225 1159 1731 
z
" transform="scale(0.015625)"/>
       <path id="Arial-BoldMT-42" d="M 469 4581 
L 2300 4581 
Q 2844 4581 3111 4536 
Q 3378 4491 3589 4347 
Q 3800 4203 3940 3964 
Q 4081 3725 4081 3428 
Q 4081 3106 3907 2837 
Q 3734 2569 3438 2434 
Q 3856 2313 4081 2019 
Q 4306 1725 4306 1328 
Q 4306 1016 4161 720 
Q 4016 425 3764 248 
Q 3513 72 3144 31 
Q 2913 6 2028 0 
L 469 0 
L 469 4581 
z
M 1394 3819 
L 1394 2759 
L 2000 2759 
Q 2541 2759 2672 2775 
Q 2909 2803 3045 2939 
Q 3181 3075 3181 3297 
Q 3181 3509 3064 3642 
Q 2947 3775 2716 3803 
Q 2578 3819 1925 3819 
L 1394 3819 
z
M 1394 1997 
L 1394 772 
L 2250 772 
Q 2750 772 2884 800 
Q 3091 838 3220 983 
Q 3350 1128 3350 1372 
Q 3350 1578 3250 1722 
Q 3150 1866 2961 1931 
Q 2772 1997 2141 1997 
L 1394 1997 
z
" transform="scale(0.015625)"/>
      </defs>
      <use xlink:href="#Arial-BoldMT-50"/>
      <use xlink:href="#Arial-BoldMT-53" transform="translate(66.699219 0)"/>
      <use xlink:href="#Arial-BoldMT-44" transform="translate(133.398438 0)"/>
      <use xlink:href="#Arial-BoldMT-20" transform="translate(205.615234 0)"/>
      <use xlink:href="#Arial-BoldMT-5b" transform="translate(233.398438 0)"/>
      <use xlink:href="#Arial-BoldMT-64" transform="translate(266.699219 0)"/>
      <use xlink:href="#Arial-BoldMT-42" transform="translate(327.783203 0)"/>
      <use xlink:href="#Arial-BoldMT-5d" transform="translate(400 0)"/>
     </g>
    </g>
   </g>
   <g id="patch_4">
    <path d="M 76.456875 339.84 
L 76.456875 7.2 
" style="fill: none; stroke: #262626; stroke-width: 1.875; stroke-linejoin: miter; stroke-linecap: square"/>
   </g>
   <g id="patch_5">
    <path d="M 522.856875 339.84 
L 522.856875 7.2 
" style="fill: none; stroke: #262626; stroke-width: 1.875; stroke-linejoin: miter; stroke-linecap: square"/>
   </g>
   <g id="patch_6">
    <path d="M 76.456875 339.84 
L 522.856875 339.84 
" style="fill: none; stroke: #262626; stroke-width: 1.875; stroke-linejoin: miter; stroke-linecap: square"/>
   </g>
   <g id="patch_7">
    <path d="M 76.456875 7.2 
L 522.856875 7.2 
" style="fill: none; stroke: #262626; stroke-width: 1.875; stroke-linejoin: miter; stroke-linecap: square"/>
   </g>
   <g id="text_18">
    <!-- Pacinian band-pass -->
    <g style="fill: #262626" transform="translate(126.880625 312.9225) scale(0.16 -0.16)">
     <defs>
      <path id="Arial-BoldMT-61" d="M 1116 2306 
L 319 2450 
Q 453 2931 781 3162 
Q 1109 3394 1756 3394 
Q 2344 3394 2631 3255 
Q 2919 3116 3036 2902 
Q 3153 2688 3153 2116 
L 3144 1091 
Q 3144 653 3186 445 
Q 3228 238 3344 0 
L 2475 0 
Q 2441 88 2391 259 
Q 2369 338 2359 363 
Q 2134 144 1878 34 
Q 1622 -75 1331 -75 
Q 819 -75 523 203 
Q 228 481 228 906 
Q 228 1188 362 1408 
Q 497 1628 739 1745 
Q 981 1863 1438 1950 
Q 2053 2066 2291 2166 
L 2291 2253 
Q 2291 2506 2166 2614 
Q 2041 2722 1694 2722 
Q 1459 2722 1328 2630 
Q 1197 2538 1116 2306 
z
M 2291 1594 
Q 2122 1538 1756 1459 
Q 1391 1381 1278 1306 
Q 1106 1184 1106 997 
Q 1106 813 1243 678 
Q 1381 544 1594 544 
Q 1831 544 2047 700 
Q 2206 819 2256 991 
Q 2291 1103 2291 1419 
L 2291 1594 
z
" transform="scale(0.015625)"/>
      <path id="Arial-BoldMT-69" d="M 459 3769 
L 459 4581 
L 1338 4581 
L 1338 3769 
L 459 3769 
z
M 459 0 
L 459 3319 
L 1338 3319 
L 1338 0 
L 459 0 
z
" transform="scale(0.015625)"/>
      <path id="Arial-BoldMT-62" d="M 422 0 
L 422 4581 
L 1300 4581 
L 1300 2931 
Q 1706 3394 2263 3394 
Q 2869 3394 3266 2955 
Q 3663 2516 3663 1694 
Q 3663 844 3258 384 
Q 2853 -75 2275 -75 
Q 1991 -75 1714 67 
Q 1438 209 1238 488 
L 1238 0 
L 422 0 
z
M 1294 1731 
Q 1294 1216 1456 969 
Q 1684 619 2063 619 
Q 2353 619 2558 867 
Q 2763 1116 2763 1650 
Q 2763 2219 2556 2470 
Q 2350 2722 2028 2722 
Q 1713 2722 1503 2476 
Q 1294 2231 1294 1731 
z
" transform="scale(0.015625)"/>
      <path id="Arial-BoldMT-2d" d="M 359 1222 
L 359 2100 
L 2084 2100 
L 2084 1222 
L 359 1222 
z
" transform="scale(0.015625)"/>
      <path id="Arial-BoldMT-70" d="M 434 3319 
L 1253 3319 
L 1253 2831 
Q 1413 3081 1684 3237 
Q 1956 3394 2288 3394 
Q 2866 3394 3269 2941 
Q 3672 2488 3672 1678 
Q 3672 847 3265 386 
Q 2859 -75 2281 -75 
Q 2006 -75 1782 34 
Q 1559 144 1313 409 
L 1313 -1263 
L 434 -1263 
L 434 3319 
z
M 1303 1716 
Q 1303 1156 1525 889 
Q 1747 622 2066 622 
Q 2372 622 2575 867 
Q 2778 1113 2778 1672 
Q 2778 2194 2568 2447 
Q 2359 2700 2050 2700 
Q 1728 2700 1515 2451 
Q 1303 2203 1303 1716 
z
" transform="scale(0.015625)"/>
      <path id="Arial-BoldMT-73" d="M 150 947 
L 1031 1081 
Q 1088 825 1259 692 
Q 1431 559 1741 559 
Q 2081 559 2253 684 
Q 2369 772 2369 919 
Q 2369 1019 2306 1084 
Q 2241 1147 2013 1200 
Q 950 1434 666 1628 
Q 272 1897 272 2375 
Q 272 2806 612 3100 
Q 953 3394 1669 3394 
Q 2350 3394 2681 3172 
Q 3013 2950 3138 2516 
L 2309 2363 
Q 2256 2556 2107 2659 
Q 1959 2763 1684 2763 
Q 1338 2763 1188 2666 
Q 1088 2597 1088 2488 
Q 1088 2394 1175 2328 
Q 1294 2241 1995 2081 
Q 2697 1922 2975 1691 
Q 3250 1456 3250 1038 
Q 3250 581 2869 253 
Q 2488 -75 1741 -75 
Q 1063 -75 667 200 
Q 272 475 150 947 
z
" transform="scale(0.015625)"/>
     </defs>
     <use xlink:href="#Arial-BoldMT-50"/>
     <use xlink:href="#Arial-BoldMT-61" transform="translate(66.699219 0)"/>
     <use xlink:href="#Arial-BoldMT-63" transform="translate(122.314453 0)"/>
     <use xlink:href="#Arial-BoldMT-69" transform="translate(177.929688 0)"/>
     <use xlink:href="#Arial-BoldMT-6e" transform="translate(205.712891 0)"/>
     <use xlink:href="#Arial-BoldMT-69" transform="translate(266.796875 0)"/>
     <use xlink:href="#Arial-BoldMT-61" transform="translate(294.580078 0)"/>
     <use xlink:href="#Arial-BoldMT-6e" transform="translate(350.195312 0)"/>
     <use xlink:href="#Arial-BoldMT-20" transform="translate(411.279297 0)"/>
     <use xlink:href="#Arial-BoldMT-62" transform="translate(439.0625 0)"/>
     <use xlink:href="#Arial-BoldMT-61" transform="translate(500.146484 0)"/>
     <use xlink:href="#Arial-BoldMT-6e" transform="translate(555.761719 0)"/>
     <use xlink:href="#Arial-BoldMT-64" transform="translate(616.845703 0)"/>
     <use xlink:href="#Arial-BoldMT-2d" transform="translate(677.929688 0)"/>
     <use xlink:href="#Arial-BoldMT-70" transform="translate(711.230469 0)"/>
     <use xlink:href="#Arial-BoldMT-61" transform="translate(772.314453 0)"/>
     <use xlink:href="#Arial-BoldMT-73" transform="translate(827.929688 0)"/>
     <use xlink:href="#Arial-BoldMT-73" transform="translate(883.544922 0)"/>
    </g>
   </g>
   <g id="legend_1">
    <g id="patch_8">
     <path d="M 368.006875 331.84 
L 511.656875 331.84 
Q 514.856875 331.84 514.856875 328.64 
L 514.856875 238.18 
Q 514.856875 234.98 511.656875 234.98 
L 368.006875 234.98 
Q 364.806875 234.98 364.806875 238.18 
L 364.806875 328.64 
Q 364.806875 331.84 368.006875 331.84 
z
" style="fill: #ffffff; opacity: 0.8; stroke: #cccccc; stroke-width: 1.5; stroke-linejoin: miter"/>
    </g>
    <g id="line2d_16">
     <path d="M 371.206875 247.4275 
L 387.206875 247.4275 
L 403.206875 247.4275 
" style="fill: none; stroke: #440154; stroke-width: 3.2; stroke-linecap: round"/>
    </g>
    <g id="text_19">
     <!-- ULM_L | m(t) -->
     <g style="fill: #262626" transform="translate(416.006875 253.0275) scale(0.16 -0.16)">
      <defs>
       <path id="ArialMT-55" d="M 3500 4581 
L 4106 4581 
L 4106 1934 
Q 4106 1244 3950 837 
Q 3794 431 3386 176 
Q 2978 -78 2316 -78 
Q 1672 -78 1262 144 
Q 853 366 678 786 
Q 503 1206 503 1934 
L 503 4581 
L 1109 4581 
L 1109 1938 
Q 1109 1341 1220 1058 
Q 1331 775 1601 622 
Q 1872 469 2263 469 
Q 2931 469 3215 772 
Q 3500 1075 3500 1938 
L 3500 4581 
z
" transform="scale(0.015625)"/>
       <path id="ArialMT-4c" d="M 469 0 
L 469 4581 
L 1075 4581 
L 1075 541 
L 3331 541 
L 3331 0 
L 469 0 
z
" transform="scale(0.015625)"/>
       <path id="ArialMT-4d" d="M 475 0 
L 475 4581 
L 1388 4581 
L 2472 1338 
Q 2622 884 2691 659 
Q 2769 909 2934 1394 
L 4031 4581 
L 4847 4581 
L 4847 0 
L 4263 0 
L 4263 3834 
L 2931 0 
L 2384 0 
L 1059 3900 
L 1059 0 
L 475 0 
z
" transform="scale(0.015625)"/>
       <path id="ArialMT-5f" d="M -97 -1272 
L -97 -866 
L 3631 -866 
L 3631 -1272 
L -97 -1272 
z
" transform="scale(0.015625)"/>
       <path id="ArialMT-20" transform="scale(0.015625)"/>
       <path id="ArialMT-7c" d="M 588 -1347 
L 588 4659 
L 1078 4659 
L 1078 -1347 
L 588 -1347 
z
" transform="scale(0.015625)"/>
       <path id="ArialMT-6d" d="M 422 0 
L 422 3319 
L 925 3319 
L 925 2853 
Q 1081 3097 1340 3245 
Q 1600 3394 1931 3394 
Q 2300 3394 2536 3241 
Q 2772 3088 2869 2813 
Q 3263 3394 3894 3394 
Q 4388 3394 4653 3120 
Q 4919 2847 4919 2278 
L 4919 0 
L 4359 0 
L 4359 2091 
Q 4359 2428 4304 2576 
Q 4250 2725 4106 2815 
Q 3963 2906 3769 2906 
Q 3419 2906 3187 2673 
Q 2956 2441 2956 1928 
L 2956 0 
L 2394 0 
L 2394 2156 
Q 2394 2531 2256 2718 
Q 2119 2906 1806 2906 
Q 1569 2906 1367 2781 
Q 1166 2656 1075 2415 
Q 984 2175 984 1722 
L 984 0 
L 422 0 
z
" transform="scale(0.015625)"/>
       <path id="ArialMT-28" d="M 1497 -1347 
Q 1031 -759 709 28 
Q 388 816 388 1659 
Q 388 2403 628 3084 
Q 909 3875 1497 4659 
L 1900 4659 
Q 1522 4009 1400 3731 
Q 1209 3300 1100 2831 
Q 966 2247 966 1656 
Q 966 153 1900 -1347 
L 1497 -1347 
z
" transform="scale(0.015625)"/>
       <path id="ArialMT-74" d="M 1650 503 
L 1731 6 
Q 1494 -44 1306 -44 
Q 1000 -44 831 53 
Q 663 150 594 308 
Q 525 466 525 972 
L 525 2881 
L 113 2881 
L 113 3319 
L 525 3319 
L 525 4141 
L 1084 4478 
L 1084 3319 
L 1650 3319 
L 1650 2881 
L 1084 2881 
L 1084 941 
Q 1084 700 1114 631 
Q 1144 563 1211 522 
Q 1278 481 1403 481 
Q 1497 481 1650 503 
z
" transform="scale(0.015625)"/>
       <path id="ArialMT-29" d="M 791 -1347 
L 388 -1347 
Q 1322 153 1322 1656 
Q 1322 2244 1188 2822 
Q 1081 3291 891 3722 
Q 769 4003 388 4659 
L 791 4659 
Q 1378 3875 1659 3084 
Q 1900 2403 1900 1659 
Q 1900 816 1576 28 
Q 1253 -759 791 -1347 
z
" transform="scale(0.015625)"/>
      </defs>
      <use xlink:href="#ArialMT-55"/>
      <use xlink:href="#ArialMT-4c" transform="translate(72.216797 0)"/>
      <use xlink:href="#ArialMT-4d" transform="translate(127.832031 0)"/>
      <use xlink:href="#ArialMT-5f" transform="translate(211.132812 0)"/>
      <use xlink:href="#ArialMT-4c" transform="translate(266.748047 0)"/>
      <use xlink:href="#ArialMT-20" transform="translate(318.613281 0)"/>
      <use xlink:href="#ArialMT-7c" transform="translate(346.396484 0)"/>
      <use xlink:href="#ArialMT-20" transform="translate(372.373047 0)"/>
      <use xlink:href="#ArialMT-6d" transform="translate(400.15625 0)"/>
      <use xlink:href="#ArialMT-28" transform="translate(483.457031 0)"/>
      <use xlink:href="#ArialMT-74" transform="translate(516.757812 0)"/>
      <use xlink:href="#ArialMT-29" transform="translate(544.541016 0)"/>
     </g>
    </g>
    <g id="line2d_17">
     <path d="M 371.206875 270.4425 
L 387.206875 270.4425 
L 403.206875 270.4425 
" style="fill: none; stroke-dasharray: 8.14,3.52; stroke-dashoffset: 0; stroke: #440154; stroke-opacity: 0.8; stroke-width: 2.2"/>
    </g>
    <g id="text_20">
     <!-- ULM_L | u(t) -->
     <g style="fill: #262626" transform="translate(416.006875 276.0425) scale(0.16 -0.16)">
      <defs>
       <path id="ArialMT-75" d="M 2597 0 
L 2597 488 
Q 2209 -75 1544 -75 
Q 1250 -75 995 37 
Q 741 150 617 320 
Q 494 491 444 738 
Q 409 903 409 1263 
L 409 3319 
L 972 3319 
L 972 1478 
Q 972 1038 1006 884 
Q 1059 663 1231 536 
Q 1403 409 1656 409 
Q 1909 409 2131 539 
Q 2353 669 2445 892 
Q 2538 1116 2538 1541 
L 2538 3319 
L 3100 3319 
L 3100 0 
L 2597 0 
z
" transform="scale(0.015625)"/>
      </defs>
      <use xlink:href="#ArialMT-55"/>
      <use xlink:href="#ArialMT-4c" transform="translate(72.216797 0)"/>
      <use xlink:href="#ArialMT-4d" transform="translate(127.832031 0)"/>
      <use xlink:href="#ArialMT-5f" transform="translate(211.132812 0)"/>
      <use xlink:href="#ArialMT-4c" transform="translate(266.748047 0)"/>
      <use xlink:href="#ArialMT-20" transform="translate(318.613281 0)"/>
      <use xlink:href="#ArialMT-7c" transform="translate(346.396484 0)"/>
      <use xlink:href="#ArialMT-20" transform="translate(372.373047 0)"/>
      <use xlink:href="#ArialMT-75" transform="translate(400.15625 0)"/>
      <use xlink:href="#ArialMT-28" transform="translate(455.771484 0)"/>
      <use xlink:href="#ArialMT-74" transform="translate(489.072266 0)"/>
      <use xlink:href="#ArialMT-29" transform="translate(516.855469 0)"/>
     </g>
    </g>
    <g id="line2d_18">
     <path d="M 371.206875 293.4575 
L 387.206875 293.4575 
L 403.206875 293.4575 
" style="fill: none; stroke: #fde725; stroke-width: 3.2; stroke-linecap: round"/>
    </g>
    <g id="text_21">
     <!-- LM_L | m(t) -->
     <g style="fill: #262626" transform="translate(416.006875 299.0575) scale(0.16 -0.16)">
      <use xlink:href="#ArialMT-4c"/>
      <use xlink:href="#ArialMT-4d" transform="translate(55.615234 0)"/>
      <use xlink:href="#ArialMT-5f" transform="translate(138.916016 0)"/>
      <use xlink:href="#ArialMT-4c" transform="translate(194.53125 0)"/>
      <use xlink:href="#ArialMT-20" transform="translate(246.396484 0)"/>
      <use xlink:href="#ArialMT-7c" transform="translate(274.179688 0)"/>
      <use xlink:href="#ArialMT-20" transform="translate(300.15625 0)"/>
      <use xlink:href="#ArialMT-6d" transform="translate(327.939453 0)"/>
      <use xlink:href="#ArialMT-28" transform="translate(411.240234 0)"/>
      <use xlink:href="#ArialMT-74" transform="translate(444.541016 0)"/>
      <use xlink:href="#ArialMT-29" transform="translate(472.324219 0)"/>
     </g>
    </g>
    <g id="line2d_19">
     <path d="M 371.206875 316.4725 
L 387.206875 316.4725 
L 403.206875 316.4725 
" style="fill: none; stroke-dasharray: 8.14,3.52; stroke-dashoffset: 0; stroke: #fde725; stroke-opacity: 0.8; stroke-width: 2.2"/>
    </g>
    <g id="text_22">
     <!-- LM_L | u(t) -->
     <g style="fill: #262626" transform="translate(416.006875 322.0725) scale(0.16 -0.16)">
      <use xlink:href="#ArialMT-4c"/>
      <use xlink:href="#ArialMT-4d" transform="translate(55.615234 0)"/>
      <use xlink:href="#ArialMT-5f" transform="translate(138.916016 0)"/>
      <use xlink:href="#ArialMT-4c" transform="translate(194.53125 0)"/>
      <use xlink:href="#ArialMT-20" transform="translate(246.396484 0)"/>
      <use xlink:href="#ArialMT-7c" transform="translate(274.179688 0)"/>
      <use xlink:href="#ArialMT-20" transform="translate(300.15625 0)"/>
      <use xlink:href="#ArialMT-75" transform="translate(327.939453 0)"/>
      <use xlink:href="#ArialMT-28" transform="translate(383.554688 0)"/>
      <use xlink:href="#ArialMT-74" transform="translate(416.855469 0)"/>
      <use xlink:href="#ArialMT-29" transform="translate(444.638672 0)"/>
     </g>
    </g>
   </g>
   <g id="line2d_20">
    <path d="M 76.456875 70.986394 
L 77.166409 63.865487 
L 78.585476 64.118117 
L 80.004543 64.623843 
L 81.423611 65.3832 
L 82.842678 66.395889 
L 84.261746 67.659209 
L 85.680813 69.165564 
L 87.809414 71.842339 
L 89.938015 74.915896 
L 95.614285 83.756386 
L 98.452419 88.068027 
L 99.161953 88.886804 
L 99.871487 89.387322 
L 100.581021 89.442035 
L 101.290554 89.011947 
L 102.000088 88.180956 
L 103.419155 85.920768 
L 105.547756 82.587327 
L 106.966824 80.851083 
L 108.385891 79.550106 
L 109.804958 78.621002 
L 113.352627 76.7227 
L 114.771694 75.453215 
L 116.190762 73.772952 
L 119.73843 69.301365 
L 121.867031 67.161927 
L 126.124233 63.333422 
L 128.252834 60.866331 
L 134.638638 52.833057 
L 138.186306 48.611808 
L 141.024441 44.840865 
L 145.991177 38.117068 
L 148.119778 35.606704 
L 150.248379 33.414577 
L 152.37698 31.53843 
L 154.505581 29.960071 
L 156.634182 28.664206 
L 158.762783 27.650755 
L 160.891384 26.941841 
L 162.310452 26.660677 
L 163.729519 26.55582 
L 165.148586 26.653425 
L 166.567654 26.98615 
L 167.986721 27.594361 
L 169.405789 28.526645 
L 170.824856 29.834762 
L 172.243923 31.543085 
L 174.372524 34.435657 
L 175.082058 35.101912 
L 175.791592 35.328454 
L 176.501125 35.012596 
L 177.210659 34.221609 
L 178.629727 31.939986 
L 180.048794 29.63116 
L 181.467861 27.704322 
L 182.886929 26.215003 
L 184.305996 25.13392 
L 185.725063 24.423883 
L 187.144131 24.056606 
L 188.563198 24.015027 
L 189.982266 24.292921 
L 191.401333 24.894797 
L 192.8204 25.837065 
L 194.239468 27.151264 
L 195.658535 28.890992 
L 197.077603 31.14642 
L 198.49667 34.076979 
L 199.206204 35.882574 
L 199.915737 37.996167 
L 200.625271 40.523755 
L 201.334805 43.648559 
L 202.044338 47.720794 
L 202.753872 53.454729 
L 203.463406 60.595049 
L 204.172939 57.39234 
L 204.882473 51.943698 
L 205.592007 48.528654 
L 206.301541 46.29336 
L 207.011074 44.77077 
L 207.720608 43.725763 
L 208.430142 43.026185 
L 209.139675 42.589586 
L 209.849209 42.359219 
L 210.558743 42.291858 
L 211.97781 42.50206 
L 215.525479 43.435377 
L 216.944546 43.385627 
L 218.363613 43.052247 
L 221.911282 41.97922 
L 224.039883 41.61181 
L 226.878018 41.401839 
L 234.682888 41.068853 
L 236.811489 41.265779 
L 238.94009 41.688039 
L 241.068691 42.311325 
L 243.906826 43.375657 
L 246.744961 44.649416 
L 249.583096 46.168207 
L 252.42123 48.002895 
L 255.259365 50.134088 
L 265.192837 58.134405 
L 272.997708 64.787639 
L 278.673977 68.999221 
L 280.802578 70.940546 
L 282.931179 73.193731 
L 287.897915 78.8181 
L 288.607449 79.239449 
L 289.316982 79.397876 
L 290.026516 79.277952 
L 290.73605 78.91508 
L 292.155117 77.754224 
L 294.283718 75.923427 
L 295.702786 75.060199 
L 297.121853 74.598426 
L 298.54092 74.567243 
L 299.250454 74.718208 
L 300.669521 75.365236 
L 302.088589 76.498516 
L 303.507656 78.170736 
L 304.926724 80.475553 
L 306.345791 83.584905 
L 307.055325 85.536849 
L 307.764858 87.84237 
L 308.474392 90.613718 
L 309.183926 94.026509 
L 310.602993 103.15965 
L 311.312527 104.743989 
L 312.731594 98.582185 
L 313.441128 96.410478 
L 314.150662 94.939778 
L 314.860195 93.971717 
L 315.569729 93.376185 
L 316.279263 93.067719 
L 316.988796 92.987051 
L 317.69833 93.090273 
L 318.407864 93.342562 
L 319.826931 94.180136 
L 321.955532 95.913166 
L 325.503201 98.940423 
L 326.922268 99.944162 
L 328.341335 100.703555 
L 329.760403 101.170685 
L 334.017605 102.013298 
L 335.436672 102.699997 
L 336.85574 103.725042 
L 339.693875 106.131503 
L 340.403408 106.544892 
L 341.112942 106.799134 
L 341.822476 106.897807 
L 343.241543 106.800088 
L 344.66061 106.697262 
L 345.370144 106.763693 
L 346.079678 106.948053 
L 346.789211 107.266327 
L 347.498745 107.725316 
L 348.917813 109.041454 
L 351.046414 111.465889 
L 351.755947 112.077361 
L 352.465481 112.430655 
L 353.175015 112.498811 
L 353.884548 112.336419 
L 356.013149 111.500897 
L 356.722683 111.379855 
L 357.432217 111.411333 
L 358.14175 111.612824 
L 358.851284 111.991486 
L 359.560818 112.545498 
L 360.979885 114.109514 
L 362.398953 115.922094 
L 363.108486 116.651709 
L 363.81802 117.084668 
L 364.527554 117.162764 
L 365.237087 116.944529 
L 367.365688 115.851274 
L 368.075222 115.685758 
L 368.784756 115.708295 
L 369.49429 115.941599 
L 370.203823 116.400071 
L 370.913357 117.092755 
L 371.622891 118.021476 
L 373.041958 120.488225 
L 373.751492 121.83333 
L 374.461025 122.938323 
L 375.170559 123.463131 
L 375.880093 123.255465 
L 376.589626 122.516633 
L 378.008694 120.727685 
L 378.718228 120.053803 
L 379.427761 119.619402 
L 380.137295 119.441674 
L 380.846829 119.525863 
L 381.556362 119.874493 
L 382.265896 120.490164 
L 382.97543 121.373746 
L 383.684963 122.516033 
L 385.813564 126.622976 
L 386.523098 127.338535 
L 387.232632 127.221901 
L 387.942166 126.452471 
L 389.361233 124.486883 
L 390.070767 123.745149 
L 390.7803 123.269968 
L 391.489834 123.080191 
L 392.199368 123.183917 
L 392.908901 123.59044 
L 393.618435 124.31577 
L 394.327969 125.385224 
L 395.037502 126.832305 
L 395.747036 128.684892 
L 397.166104 133.1569 
L 397.875637 134.461086 
L 398.585171 133.869469 
L 400.713772 128.652223 
L 401.423306 127.516031 
L 402.132839 126.768215 
L 402.842373 126.376354 
L 403.551907 126.315991 
L 404.26144 126.573733 
L 404.970974 127.146369 
L 405.680508 128.038248 
L 406.390042 129.254798 
L 407.809109 132.546595 
L 408.518643 134.27657 
L 409.228176 135.407915 
L 409.93771 135.396486 
L 410.647244 134.42198 
L 412.066311 131.961945 
L 412.775845 131.091517 
L 413.485378 130.566892 
L 414.194912 130.399007 
L 414.904446 130.596532 
L 415.613979 131.181056 
L 416.323513 132.198237 
L 417.033047 133.734025 
L 417.742581 135.946966 
L 418.452114 139.137698 
L 419.161648 143.841303 
L 419.871182 149.291664 
L 420.580715 146.508442 
L 421.290249 141.177645 
L 421.999783 137.533048 
L 422.709316 135.063812 
L 423.41885 133.370838 
L 424.128384 132.243825 
L 424.837917 131.569193 
L 425.547451 131.285745 
L 426.256985 131.364992 
L 426.966519 131.803252 
L 427.676052 132.620807 
L 428.385586 133.867784 
L 429.09512 135.640567 
L 429.804653 138.121324 
L 430.514187 141.678959 
L 431.223721 147.127057 
L 431.933254 154.443352 
L 432.642788 150.020691 
L 433.352322 144.086898 
L 434.061855 140.462114 
L 434.771389 138.130849 
L 435.480923 136.61584 
L 436.190457 135.692456 
L 436.89999 135.247754 
L 437.609524 135.227631 
L 438.319058 135.616564 
L 439.028591 136.432526 
L 439.738125 137.733386 
L 440.447659 139.640234 
L 441.157192 142.401458 
L 441.866726 146.593541 
L 442.57626 153.980488 
L 443.285793 163.493791 
L 443.995327 151.645937 
L 444.704861 145.867843 
L 445.414395 142.518875 
L 446.123928 140.374756 
L 446.833462 138.993978 
L 447.542996 138.177065 
L 448.252529 137.826189 
L 448.962063 137.897823 
L 449.671597 138.386002 
L 450.38113 139.320306 
L 451.090664 140.776973 
L 451.800198 142.913352 
L 452.509731 146.067698 
L 453.219265 151.127081 
L 453.928799 162.089376 
L 454.638333 163.065441 
L 455.347866 151.797704 
L 456.0574 146.878017 
L 456.766934 143.927845 
L 457.476467 142.015984 
L 458.186001 140.791564 
L 458.895535 140.09173 
L 459.605068 139.836805 
L 460.314602 139.994124 
L 461.024136 140.565859 
L 461.733669 141.589643 
L 462.443203 143.152406 
L 463.152737 145.429604 
L 463.862271 148.79608 
L 464.571804 154.206335 
L 465.281338 164.162571 
L 465.990872 159.542884 
L 466.700405 151.997098 
L 467.409939 147.823784 
L 468.119473 145.178366 
L 468.829006 143.426304 
L 469.53854 142.294535 
L 470.248074 141.648225 
L 470.957607 141.418806 
L 471.667141 141.576704 
L 472.376675 142.121228 
L 473.086208 143.079587 
L 473.795742 144.513664 
L 474.505276 146.536936 
L 475.21481 149.343578 
L 476.633877 157.57118 
L 477.343411 157.566499 
L 478.762478 149.996071 
L 479.472012 147.558829 
L 480.181545 145.896694 
L 480.891079 144.821521 
L 481.600613 144.224683 
L 482.310146 144.048521 
L 483.01968 144.270198 
L 483.729214 144.895514 
L 484.438748 145.96015 
L 485.148281 147.53848 
L 485.857815 149.761255 
L 486.567349 152.827689 
L 487.276882 156.802084 
L 487.986416 159.687731 
L 488.69595 157.365218 
L 489.405483 153.541775 
L 490.115017 150.585756 
L 490.824551 148.487596 
L 491.534084 147.041536 
L 492.243618 146.107208 
L 492.953152 145.600911 
L 493.662686 145.476099 
L 494.372219 145.711649 
L 495.081753 146.30566 
L 495.791287 147.271695 
L 496.50082 148.63291 
L 497.210354 150.401371 
L 498.629421 154.525614 
L 499.338955 155.473357 
L 500.048489 154.650281 
L 501.467556 151.056623 
L 502.17709 149.604119 
L 502.886624 148.564611 
L 503.596157 147.924979 
L 504.305691 147.664622 
L 505.015225 147.773652 
L 505.724758 148.257726 
L 506.434292 149.139878 
L 507.143826 150.459903 
L 507.853359 152.260605 
L 509.272427 156.771089 
L 509.98196 157.63959 
L 510.691494 156.157856 
L 512.110562 151.370801 
L 512.820095 149.516965 
L 513.529629 148.10914 
L 514.239163 147.0928 
L 514.948696 146.419975 
L 515.65823 146.057039 
L 516.367764 145.983772 
L 517.077297 146.191731 
L 517.786831 146.683592 
L 518.496365 147.473914 
L 519.205898 148.5918 
L 519.915432 150.086339 
L 520.624966 152.036441 
L 521.3345 154.566179 
L 522.044033 157.851905 
L 522.753567 161.956967 
L 523.463101 165.383073 
L 523.463101 165.383073 
" clip-path="url(#p1c30b7e431)" style="fill: none; stroke-dasharray: 8.14,3.52; stroke-dashoffset: 0; stroke: #440154; stroke-opacity: 0.8; stroke-width: 2.2"/>
   </g>
   <g id="line2d_21">
    <path d="M 76.456875 80.041141 
L 77.166409 72.926514 
L 78.585476 73.229075 
L 80.004543 73.832648 
L 81.423611 74.731643 
L 82.842678 75.91046 
L 84.971279 78.112599 
L 88.518948 82.025642 
L 89.938015 83.205749 
L 91.357083 84.051407 
L 93.485684 84.90709 
L 95.614285 85.516963 
L 97.033352 85.718485 
L 98.452419 85.587639 
L 99.161953 85.356218 
L 100.581021 84.54208 
L 102.000088 83.331477 
L 104.128689 81.102227 
L 107.676357 77.366563 
L 109.804958 75.442093 
L 114.771694 71.163809 
L 117.609829 68.1946 
L 121.867031 63.635625 
L 126.833767 58.498977 
L 129.671902 55.184785 
L 138.186306 44.632612 
L 142.443508 38.933703 
L 145.991177 34.263818 
L 148.829312 30.942583 
L 150.957913 28.789475 
L 153.086514 26.951331 
L 155.215115 25.433031 
L 157.343716 24.232633 
L 159.472317 23.347196 
L 161.600918 22.776493 
L 163.729519 22.525402 
L 165.148586 22.540866 
L 166.567654 22.708203 
L 167.986721 23.033314 
L 169.405789 23.522257 
L 170.824856 24.179483 
L 172.953457 25.476033 
L 175.082058 27.077876 
L 177.920193 29.215866 
L 179.33926 29.922942 
L 180.048794 30.113252 
L 181.467861 30.151484 
L 182.886929 29.839959 
L 186.434597 28.777355 
L 187.853665 28.589321 
L 189.272732 28.632115 
L 190.691799 28.930771 
L 192.110867 29.499119 
L 193.529934 30.344235 
L 194.949001 31.464858 
L 196.368069 32.841883 
L 200.625271 37.475704 
L 201.334805 38.015247 
L 202.044338 38.396515 
L 202.753872 38.611904 
L 203.463406 38.676725 
L 204.882473 38.492438 
L 208.430142 37.731146 
L 210.558743 37.634729 
L 217.65408 37.812115 
L 221.201748 37.333868 
L 226.168484 36.668392 
L 230.425686 36.334332 
L 233.263821 36.287416 
L 236.101956 36.472663 
L 238.230557 36.803863 
L 240.359158 37.312362 
L 243.197292 38.261069 
L 246.035427 39.50097 
L 248.873562 41.01567 
L 251.711697 42.79155 
L 255.259365 45.329794 
L 259.516567 48.681422 
L 266.611904 54.58512 
L 272.288174 59.200272 
L 279.383511 64.707779 
L 280.802578 65.490155 
L 282.221646 65.990972 
L 284.350247 66.342333 
L 286.478848 66.682756 
L 287.897915 67.171181 
L 289.316982 68.009675 
L 290.73605 69.283685 
L 292.155117 71.030317 
L 294.283718 74.128708 
L 294.993252 74.91345 
L 295.702786 75.29125 
L 296.412319 75.158107 
L 297.121853 74.572819 
L 298.54092 72.743069 
L 299.959988 70.933402 
L 301.379055 69.56291 
L 302.798123 68.695238 
L 304.21719 68.307512 
L 305.636257 68.370139 
L 307.055325 68.86567 
L 308.474392 69.79316 
L 309.893459 71.170695 
L 311.312527 73.040202 
L 312.731594 75.477386 
L 314.150662 78.610679 
L 315.569729 82.649981 
L 316.988796 87.849414 
L 318.407864 93.453363 
L 319.117397 94.803011 
L 319.826931 94.444075 
L 321.245999 92.130206 
L 321.955532 91.272424 
L 322.665066 90.748226 
L 323.3746 90.53501 
L 324.084133 90.600514 
L 324.793667 90.915307 
L 325.503201 91.453239 
L 326.212734 92.187822 
L 327.631802 94.099658 
L 329.050869 96.143813 
L 329.760403 96.941222 
L 330.469937 97.44347 
L 331.17947 97.626679 
L 331.889004 97.560316 
L 334.017605 96.995155 
L 334.727139 96.95386 
L 335.436672 97.048283 
L 336.146206 97.287128 
L 336.85574 97.668113 
L 338.274807 98.799841 
L 341.112942 101.470646 
L 341.822476 101.884133 
L 342.532009 102.115652 
L 343.951077 102.157307 
L 345.370144 102.04405 
L 346.789211 102.183849 
L 347.498745 102.414151 
L 348.917813 103.222852 
L 350.33688 104.414414 
L 352.465481 106.289547 
L 353.175015 106.72127 
L 353.884548 106.990922 
L 354.594082 107.106591 
L 358.14175 107.089275 
L 359.560818 107.561491 
L 360.979885 108.447803 
L 363.81802 110.689291 
L 364.527554 111.084642 
L 365.237087 111.339268 
L 366.656155 111.482116 
L 368.784756 111.482202 
L 370.203823 111.839919 
L 371.622891 112.659816 
L 373.041958 113.889647 
L 374.461025 115.239227 
L 375.170559 115.791784 
L 375.880093 116.16612 
L 376.589626 116.326993 
L 377.29916 116.292633 
L 380.846829 115.570992 
L 381.556362 115.690208 
L 382.265896 115.951117 
L 382.97543 116.353677 
L 384.394497 117.529847 
L 386.523098 119.582549 
L 387.232632 120.043237 
L 387.942166 120.272904 
L 388.651699 120.270631 
L 390.070767 119.842308 
L 391.489834 119.43363 
L 392.199368 119.400689 
L 392.908901 119.534847 
L 393.618435 119.86442 
L 394.327969 120.416372 
L 395.037502 121.222145 
L 395.747036 122.324212 
L 396.45657 123.785325 
L 397.166104 125.703675 
L 397.875637 128.238026 
L 398.585171 131.628415 
L 399.294705 135.930451 
L 400.004238 138.404984 
L 400.713772 135.124402 
L 401.423306 131.010298 
L 402.132839 127.846581 
L 402.842373 125.453677 
L 403.551907 123.595763 
L 404.26144 122.118996 
L 404.970974 120.925291 
L 406.390042 119.148926 
L 407.809109 117.957414 
L 409.228176 117.206409 
L 410.647244 116.840649 
L 412.066311 116.859224 
L 413.485378 117.297282 
L 414.194912 117.692571 
L 414.904446 118.219334 
L 415.613979 118.891172 
L 416.323513 119.72517 
L 417.033047 120.743299 
L 417.742581 121.974621 
L 418.452114 123.458833 
L 419.161648 125.252045 
L 419.871182 127.436206 
L 420.580715 130.132687 
L 421.290249 133.505668 
L 422.709316 141.11379 
L 423.41885 140.392569 
L 424.837917 134.757512 
L 425.547451 132.941177 
L 426.256985 131.743298 
L 426.966519 131.030389 
L 427.676052 130.714442 
L 428.385586 130.739267 
L 429.09512 131.067681 
L 429.804653 131.671217 
L 430.514187 132.519108 
L 433.352322 136.575716 
L 434.061855 136.859661 
L 434.771389 136.630978 
L 437.609524 134.492933 
L 438.319058 134.323507 
L 439.028591 134.388575 
L 439.738125 134.693943 
L 440.447659 135.238049 
L 441.157192 136.010104 
L 442.57626 138.082255 
L 443.285793 139.178833 
L 443.995327 140.051139 
L 444.704861 140.462312 
L 445.414395 140.323967 
L 446.123928 139.778515 
L 447.542996 138.405954 
L 448.252529 137.896118 
L 448.962063 137.599609 
L 449.671597 137.541519 
L 450.38113 137.73233 
L 451.090664 138.17545 
L 451.800198 138.867712 
L 452.509731 139.792546 
L 454.638333 143.109948 
L 455.347866 143.683774 
L 456.0574 143.604768 
L 456.766934 142.973596 
L 458.895535 140.473787 
L 459.605068 139.967672 
L 460.314602 139.711262 
L 461.024136 139.714943 
L 461.733669 139.983924 
L 462.443203 140.522473 
L 463.152737 141.333106 
L 463.862271 142.409314 
L 465.990872 146.427698 
L 466.700405 147.164579 
L 467.409939 147.054776 
L 468.119473 146.250933 
L 469.53854 144.144448 
L 470.248074 143.325063 
L 470.957607 142.773277 
L 471.667141 142.507182 
L 472.376675 142.532408 
L 473.086208 142.854157 
L 473.795742 143.481748 
L 474.505276 144.428845 
L 475.21481 145.707561 
L 476.633877 149.122097 
L 477.343411 150.80502 
L 478.052944 151.654392 
L 478.762478 151.184915 
L 480.891079 147.013816 
L 481.600613 146.030034 
L 482.310146 145.386221 
L 483.01968 145.074415 
L 483.729214 145.086125 
L 484.438748 145.419962 
L 485.148281 146.083607 
L 485.857815 147.092668 
L 486.567349 148.463157 
L 488.69595 153.803159 
L 489.405483 154.352385 
L 490.115017 153.41689 
L 491.534084 150.086998 
L 492.243618 148.727626 
L 492.953152 147.731527 
L 493.662686 147.094045 
L 494.372219 146.800536 
L 495.081753 146.843751 
L 495.791287 147.229922 
L 496.50082 147.983155 
L 497.210354 149.152013 
L 497.919888 150.820829 
L 498.629421 153.125137 
L 499.338955 156.235304 
L 500.048489 159.952204 
L 500.758022 161.526021 
L 501.467556 158.534212 
L 502.17709 154.848233 
L 502.886624 151.944093 
L 503.596157 149.755971 
L 504.305691 148.103899 
L 505.015225 146.857579 
L 505.724758 145.929145 
L 506.434292 145.257357 
L 507.143826 144.796957 
L 507.853359 144.512036 
L 508.562893 144.371764 
L 509.98196 144.410374 
L 512.820095 144.893465 
L 513.529629 144.896624 
L 514.239163 144.787786 
L 514.948696 144.547854 
L 515.65823 144.171515 
L 517.077297 143.058254 
L 519.205898 140.887053 
L 521.3345 138.777455 
L 522.753567 137.657373 
L 523.463101 137.216163 
L 523.463101 137.216163 
" clip-path="url(#p1c30b7e431)" style="fill: none; stroke-dasharray: 8.14,3.52; stroke-dashoffset: 0; stroke: #fde725; stroke-opacity: 0.8; stroke-width: 2.2"/>
   </g>
   <g id="line2d_22">
    <path d="M 76.456875 36.384723 
L 77.166409 20.215587 
L 77.875942 13.847002 
L 78.585476 9.916138 
L 79.29501 7.151031 
L 80.004543 5.068207 
L 80.714077 3.439993 
L 81.423611 2.142138 
L 82.133145 1.099782 
L 82.842678 0.264588 
L 84.261746 -0.905828 
L 84.439938 -1 
M 89.621404 -1 
L 90.647549 -0.378982 
L 92.066616 0.838185 
L 93.485684 2.478803 
L 94.904751 4.596605 
L 96.323818 7.286088 
L 97.742886 10.718038 
L 99.161953 15.235854 
L 99.871487 18.12551 
L 100.581021 21.699419 
L 101.290554 26.439739 
L 102.000088 33.770321 
L 102.709622 55.414985 
L 103.419155 38.791894 
L 104.128689 31.908228 
L 104.838223 28.659715 
L 105.547756 26.863461 
L 106.25729 25.897389 
L 106.966824 25.5026 
L 107.676357 25.553623 
L 108.385891 25.988617 
L 109.095425 26.783736 
L 109.804958 27.944489 
L 110.514492 29.506995 
L 111.224026 31.550095 
L 111.93356 34.228674 
L 112.643093 37.867206 
L 113.352627 43.295619 
L 114.062161 54.056072 
L 114.771694 58.248401 
L 115.481228 46.336299 
L 116.190762 41.673381 
L 116.900295 39.076891 
L 117.609829 37.538211 
L 118.319363 36.686075 
L 119.028896 36.349486 
L 119.73843 36.444134 
L 120.447964 36.933417 
L 121.157498 37.814717 
L 121.867031 39.11831 
L 122.576565 40.918069 
L 123.286099 43.363323 
L 123.995632 46.769094 
L 124.705166 51.937663 
L 125.4147 62.211968 
L 126.124233 67.50088 
L 126.833767 54.889068 
L 127.543301 49.990913 
L 128.252834 47.221917 
L 128.962368 45.536962 
L 129.671902 44.555485 
L 130.381436 44.103394 
L 131.090969 44.095636 
L 131.800503 44.496344 
L 132.510037 45.305184 
L 133.21957 46.557134 
L 133.929104 48.335502 
L 134.638638 50.810249 
L 135.348171 54.350151 
L 136.057705 59.952657 
L 136.767239 72.643121 
L 137.476772 69.81452 
L 138.186306 60.015192 
L 138.89584 55.603833 
L 139.605374 53.012605 
L 140.314907 51.409233 
L 141.024441 50.471482 
L 141.733975 50.048961 
L 142.443508 50.069602 
L 143.153042 50.507322 
L 143.862576 51.372093 
L 144.572109 52.713362 
L 145.281643 54.639612 
L 145.991177 57.37358 
L 146.70071 61.421851 
L 147.410244 68.281165 
L 148.119778 81.144912 
L 148.829312 68.986128 
L 149.538845 62.656977 
L 150.248379 59.177686 
L 150.957913 57.028788 
L 151.667446 55.700404 
L 152.37698 54.971123 
L 153.086514 54.736082 
L 153.796047 54.951599 
L 154.505581 55.61619 
L 155.215115 56.768013 
L 155.924648 58.494424 
L 156.634182 60.952664 
L 157.343716 64.365518 
L 158.05325 68.524302 
L 158.762783 69.817119 
L 160.181851 62.619646 
L 160.891384 60.00982 
L 161.600918 58.234961 
L 162.310452 57.114589 
L 163.019985 56.549816 
L 163.729519 56.503879 
L 164.439053 56.988356 
L 165.148586 58.051911 
L 165.85812 59.727165 
L 166.567654 61.712638 
L 167.277188 62.346248 
L 167.986721 59.832217 
L 169.405789 52.435621 
L 170.824856 46.819862 
L 172.243923 42.657776 
L 173.662991 39.420198 
L 175.082058 36.816755 
L 176.501125 34.68147 
L 177.920193 32.913082 
L 179.33926 31.447086 
L 180.758328 30.241526 
L 182.177395 29.269072 
L 183.596462 28.512272 
L 185.01553 27.960586 
L 186.434597 27.608523 
L 187.853665 27.454512 
L 189.272732 27.500288 
L 190.691799 27.750653 
L 192.110867 28.213545 
L 193.529934 28.900378 
L 194.949001 29.82669 
L 196.368069 31.013206 
L 197.787136 32.48754 
L 199.206204 34.286957 
L 200.625271 36.463063 
L 202.044338 39.090197 
L 203.463406 42.281635 
L 204.882473 46.223999 
L 206.301541 51.259163 
L 207.011074 54.382562 
L 207.720608 58.090491 
L 209.139675 67.480904 
L 209.849209 70.100974 
L 210.558743 68.462324 
L 211.268276 66.25617 
L 211.97781 64.835989 
L 212.687344 64.168788 
L 213.396877 64.113787 
L 214.106411 64.580227 
L 214.815945 65.525121 
L 215.525479 66.940068 
L 216.235012 68.835996 
L 218.363613 76.133402 
L 219.073147 76.734273 
L 219.782681 75.667823 
L 220.492214 74.188794 
L 221.201748 73.019135 
L 221.911282 72.338244 
L 222.620815 72.163143 
L 223.330349 72.492636 
L 224.039883 73.349266 
L 224.749417 74.798653 
L 225.45895 76.969811 
L 226.168484 80.058584 
L 226.878018 84.006778 
L 227.587551 86.115932 
L 228.297085 83.110784 
L 229.006619 79.344801 
L 229.716152 76.521305 
L 230.425686 74.535415 
L 231.13522 73.188954 
L 231.844753 72.353421 
L 232.554287 71.955179 
L 233.263821 71.958203 
L 233.973354 72.355744 
L 234.682888 73.169659 
L 235.392422 74.458134 
L 236.101956 76.337872 
L 236.811489 79.04103 
L 237.521023 83.078208 
L 238.94009 96.47899 
L 239.649624 88.055111 
L 240.359158 82.587028 
L 241.068691 79.300785 
L 241.778225 77.177005 
L 242.487759 75.804894 
L 243.197292 74.992556 
L 243.906826 74.644455 
L 244.61636 74.717515 
L 245.325894 75.204945 
L 246.035427 76.133452 
L 246.744961 77.571174 
L 247.454495 79.650631 
L 248.164028 82.617294 
L 248.873562 86.870561 
L 249.583096 91.894316 
L 250.292629 90.737687 
L 251.002163 85.791666 
L 251.711697 82.128046 
L 252.42123 79.621992 
L 253.130764 77.908574 
L 253.840298 76.777891 
L 254.549832 76.114496 
L 255.259365 75.856407 
L 255.968899 75.975672 
L 256.678433 76.470408 
L 257.387966 77.363825 
L 258.0975 78.709253 
L 258.807034 80.601919 
L 259.516567 83.193891 
L 260.935635 90.461374 
L 261.645168 91.031341 
L 263.064236 84.356085 
L 263.77377 81.90627 
L 264.483303 80.186321 
L 265.192837 79.035417 
L 265.902371 78.350725 
L 266.611904 78.074314 
L 267.321438 78.180616 
L 268.030972 78.67098 
L 268.740505 79.574897 
L 269.450039 80.959232 
L 270.159573 82.951163 
L 270.869106 85.788393 
L 271.57864 89.897095 
L 272.288174 95.289043 
L 272.997708 95.269267 
L 273.707241 89.904272 
L 274.416775 85.819454 
L 275.126309 82.975718 
L 275.835842 80.933422 
L 276.545376 79.4358 
L 277.25491 78.327761 
L 277.964443 77.50149 
L 279.383511 76.338538 
L 280.802578 75.220142 
L 281.512112 74.454013 
L 282.221646 73.47946 
L 283.640713 70.976128 
L 287.188381 64.000401 
L 288.607449 61.598036 
L 290.026516 59.512117 
L 291.445583 57.739888 
L 292.864651 56.271965 
L 294.283718 55.099327 
L 295.702786 54.214842 
L 297.121853 53.613203 
L 298.54092 53.29053 
L 299.959988 53.243961 
L 301.379055 53.471269 
L 302.798123 53.970431 
L 304.21719 54.739087 
L 305.636257 55.773855 
L 307.055325 57.069533 
L 308.474392 58.618381 
L 309.893459 60.409952 
L 312.022061 63.526675 
L 314.150662 67.138067 
L 316.279263 71.27874 
L 318.407864 76.054538 
L 322.665066 86.30209 
L 323.3746 87.476782 
L 324.084133 88.379058 
L 325.503201 89.615145 
L 326.922268 90.421647 
L 327.631802 90.624856 
L 328.341335 90.612755 
L 329.050869 90.352874 
L 330.469937 89.27377 
L 331.889004 88.080181 
L 332.598538 87.642874 
L 333.308071 87.374648 
L 334.017605 87.301766 
L 334.727139 87.440895 
L 335.436672 87.801915 
L 336.146206 88.386938 
L 336.85574 89.183535 
L 338.984341 92.056379 
L 339.693875 92.513792 
L 340.403408 92.353975 
L 341.112942 91.654829 
L 343.241543 88.863927 
L 343.951077 88.235855 
L 344.66061 87.854 
L 345.370144 87.733821 
L 346.079678 87.886585 
L 346.789211 88.325646 
L 347.498745 89.069145 
L 348.208279 90.139151 
L 348.917813 91.552263 
L 351.046414 96.600081 
L 351.755947 96.764693 
L 352.465481 95.547519 
L 353.884548 92.076005 
L 354.594082 90.681615 
L 355.303616 89.627422 
L 356.013149 88.898776 
L 356.722683 88.472101 
L 357.432217 88.326753 
L 358.14175 88.446748 
L 358.851284 88.818805 
L 359.560818 89.427713 
L 360.979885 91.225865 
L 362.398953 93.168597 
L 363.108486 93.730753 
L 363.81802 93.795121 
L 364.527554 93.412536 
L 366.656155 91.637762 
L 367.365688 91.341383 
L 368.075222 91.310584 
L 368.784756 91.582171 
L 369.49429 92.19563 
L 370.203823 93.206231 
L 370.913357 94.70086 
L 371.622891 96.822814 
L 372.332424 99.805018 
L 373.751492 107.489801 
L 374.461025 105.227288 
L 375.170559 100.873194 
L 375.880093 97.528412 
L 376.589626 95.128564 
L 377.29916 93.412196 
L 378.008694 92.211359 
L 378.718228 91.425801 
L 379.427761 90.995565 
L 380.137295 90.885404 
L 380.846829 91.075983 
L 381.556362 91.55806 
L 382.265896 92.326605 
L 382.97543 93.370734 
L 385.104031 97.310063 
L 385.813564 97.996891 
L 386.523098 97.820067 
L 387.232632 96.952852 
L 388.651699 94.770237 
L 389.361233 93.936166 
L 390.070767 93.384999 
L 390.7803 93.138857 
L 391.489834 93.211923 
L 392.199368 93.624985 
L 392.908901 94.415794 
L 393.618435 95.652483 
L 394.327969 97.459669 
L 395.037502 100.081735 
L 395.747036 104.074422 
L 396.45657 111.11184 
L 397.166104 121.448331 
L 397.875637 109.232422 
L 398.585171 103.056246 
L 399.294705 99.376065 
L 400.004238 96.886835 
L 400.713772 95.117018 
L 401.423306 93.844325 
L 402.132839 92.945325 
L 402.842373 92.342753 
L 403.551907 91.982822 
L 404.26144 91.823803 
L 404.970974 91.829505 
L 406.390042 92.196427 
L 410.647244 94.042932 
L 412.066311 94.864738 
L 412.775845 95.470472 
L 413.485378 96.277006 
L 414.194912 97.339838 
L 414.904446 98.71032 
L 417.033047 103.885998 
L 417.742581 104.052451 
L 418.452114 102.512774 
L 419.871182 98.127415 
L 420.580715 96.314315 
L 421.290249 94.860509 
L 421.999783 93.738315 
L 422.709316 92.915535 
L 423.41885 92.366875 
L 424.128384 92.075735 
L 424.837917 92.033975 
L 425.547451 92.241762 
L 426.256985 92.708207 
L 426.966519 93.453286 
L 427.676052 94.511926 
L 428.385586 95.942191 
L 429.09512 97.842327 
L 429.804653 100.390054 
L 430.514187 103.949829 
L 431.223721 109.461891 
L 431.933254 120.866226 
L 432.642788 119.137092 
L 433.352322 109.77881 
L 434.061855 105.372209 
L 434.771389 102.757197 
L 435.480923 101.123376 
L 436.190457 100.153111 
L 436.89999 99.698257 
L 437.609524 99.688447 
L 438.319058 100.098956 
L 439.028591 100.940347 
L 439.738125 102.260127 
L 440.447659 104.155765 
L 441.157192 106.801687 
L 441.866726 110.462876 
L 442.57626 115.011337 
L 443.285793 116.428524 
L 444.704861 108.930027 
L 445.414395 106.357367 
L 446.123928 104.623344 
L 446.833462 103.516842 
L 447.542996 102.913299 
L 448.252529 102.742413 
L 448.962063 102.966285 
L 449.671597 103.564897 
L 450.38113 104.520281 
L 452.509731 108.431532 
L 453.219265 108.856224 
L 453.928799 108.207024 
L 456.0574 104.231802 
L 456.766934 103.314573 
L 457.476467 102.739072 
L 458.186001 102.513111 
L 458.895535 102.645936 
L 459.605068 103.158928 
L 460.314602 104.092878 
L 461.024136 105.514803 
L 461.733669 107.517384 
L 463.152737 112.984962 
L 463.862271 113.850957 
L 464.571804 111.475787 
L 465.281338 108.337321 
L 465.990872 105.708285 
L 466.700405 103.691723 
L 467.409939 102.192474 
L 468.119473 101.121681 
L 468.829006 100.418185 
L 469.53854 100.044124 
L 470.248074 99.979707 
L 470.957607 100.220368 
L 471.667141 100.776512 
L 472.376675 101.676249 
L 473.086208 102.97274 
L 473.795742 104.760747 
L 474.505276 107.215844 
L 475.21481 110.703069 
L 475.924343 116.180909 
L 476.633877 128.13154 
L 477.343411 126.634681 
L 478.052944 116.62146 
L 478.762478 112.145378 
L 479.472012 109.539913 
L 480.181545 107.95712 
L 480.891079 107.074706 
L 481.600613 106.747188 
L 482.310146 106.909228 
L 483.01968 107.539353 
L 483.729214 108.637978 
L 484.438748 110.188692 
L 485.148281 112.034198 
L 485.857815 113.55083 
L 486.567349 113.576276 
L 487.276882 111.914706 
L 488.69595 107.63404 
L 489.405483 105.978645 
L 490.115017 104.724344 
L 490.824551 103.83876 
L 491.534084 103.289946 
L 492.243618 103.055391 
L 492.953152 103.122762 
L 493.662686 103.488749 
L 494.372219 104.15701 
L 495.081753 105.133796 
L 495.791287 106.416416 
L 497.919888 110.975246 
L 498.629421 111.492192 
L 499.338955 110.982216 
L 501.467556 107.928699 
L 502.17709 107.445687 
L 502.886624 107.395179 
L 503.596157 107.830898 
L 504.305691 108.83332 
L 505.015225 110.523496 
L 506.434292 115.612087 
L 507.143826 115.2273 
L 509.272427 104.150452 
L 509.98196 101.530908 
L 510.691494 99.39713 
L 511.401028 97.639058 
L 512.820095 94.970194 
L 514.239163 93.147531 
L 515.65823 91.964625 
L 517.077297 91.291872 
L 518.496365 91.036388 
L 519.915432 91.122733 
L 521.3345 91.483187 
L 522.753567 92.053619 
L 523.463101 92.398383 
L 523.463101 92.398383 
" clip-path="url(#p1c30b7e431)" style="fill: none; stroke: #440154; stroke-width: 3.2; stroke-linecap: round"/>
   </g>
   <g id="line2d_23">
    <path d="M 76.456875 34.381598 
L 77.166409 16.827768 
L 77.875942 10.280699 
L 78.585476 6.311592 
L 79.29501 3.532678 
L 80.004543 1.443413 
L 81.157128 -1 
M 93.596364 -1 
L 94.904751 0.962578 
L 96.323818 3.651725 
L 97.742886 7.082838 
L 99.161953 11.598715 
L 99.871487 14.486499 
L 100.581021 18.057203 
L 101.290554 22.79123 
L 102.000088 30.105172 
L 102.709622 51.67867 
L 103.419155 35.227272 
L 104.128689 28.308577 
L 104.838223 25.050253 
L 105.547756 23.249297 
L 106.25729 22.280332 
L 106.966824 21.883423 
L 107.676357 21.93264 
L 108.385891 22.365875 
L 109.095425 23.159075 
L 109.804958 24.317525 
L 110.514492 25.877038 
L 111.224026 27.915939 
L 111.93356 30.58808 
L 112.643093 34.215385 
L 113.352627 39.619088 
L 114.062161 50.279026 
L 114.771694 54.920279 
L 115.481228 42.799461 
L 116.190762 38.102896 
L 116.900295 35.491808 
L 117.609829 33.944188 
L 118.319363 33.085262 
L 119.028896 32.74261 
L 119.73843 32.831108 
L 120.447964 33.313504 
L 121.157498 34.186446 
L 121.867031 35.479167 
L 122.576565 37.263735 
L 123.286099 39.685817 
L 123.995632 43.051348 
L 124.705166 48.131522 
L 125.4147 58.04387 
L 126.124233 64.951186 
L 126.833767 51.582797 
L 127.543301 46.564862 
L 128.252834 43.744589 
L 128.962368 42.028943 
L 129.671902 41.024898 
L 130.381436 40.553388 
L 131.090969 40.526618 
L 131.800503 40.906609 
L 132.510037 41.690751 
L 133.21957 42.910787 
L 133.929104 44.644409 
L 134.638638 47.049916 
L 135.348171 50.466005 
L 136.057705 55.779267 
L 136.767239 66.990889 
L 137.476772 68.326882 
L 138.186306 57.232118 
L 138.89584 52.543715 
L 139.605374 49.828047 
L 140.314907 48.15025 
L 141.024441 47.159176 
L 141.733975 46.692564 
L 142.443508 46.671877 
L 143.153042 47.066278 
L 143.862576 47.880919 
L 144.572109 49.158715 
L 145.281643 50.997101 
L 145.991177 53.596258 
L 146.70071 57.406427 
L 147.410244 63.752376 
L 148.119778 81.891488 
L 148.829312 68.271985 
L 149.538845 60.501974 
L 150.248379 56.594503 
L 150.957913 54.227543 
L 151.667446 52.752753 
L 152.37698 51.903907 
L 153.086514 51.555064 
L 153.796047 51.648682 
L 154.505581 52.170831 
L 155.215115 53.145888 
L 155.924648 54.645852 
L 156.634182 56.823037 
L 157.343716 60.005799 
L 158.05325 65.047525 
L 158.762783 75.645844 
L 159.472317 77.911041 
L 160.181851 66.371917 
L 160.891384 61.462644 
L 161.600918 58.578775 
L 162.310452 56.763652 
L 163.019985 55.664629 
L 163.729519 55.125693 
L 164.439053 55.081556 
L 165.148586 55.524796 
L 165.85812 56.501909 
L 166.567654 58.131917 
L 167.277188 60.658677 
L 167.986721 64.53292 
L 168.696255 69.590288 
L 169.405789 68.235442 
L 170.115322 62.354737 
L 170.824856 57.921967 
L 171.53439 54.680839 
L 172.243923 52.196169 
L 172.953457 50.223065 
L 173.662991 48.619365 
L 175.082058 46.192257 
L 176.501125 44.483048 
L 177.920193 43.253377 
L 179.33926 42.349028 
L 181.467861 41.376904 
L 183.596462 40.676807 
L 186.434597 40.019037 
L 188.563198 39.747965 
L 190.691799 39.744325 
L 192.110867 39.941013 
L 193.529934 40.339929 
L 194.949001 40.983747 
L 196.368069 41.921637 
L 197.787136 43.212371 
L 199.206204 44.930636 
L 200.625271 47.179343 
L 202.044338 50.114589 
L 203.463406 54.000806 
L 204.172939 56.442067 
L 204.882473 59.340289 
L 205.592007 62.827835 
L 207.011074 71.057627 
L 207.720608 72.180088 
L 209.139675 68.164317 
L 209.849209 66.822335 
L 210.558743 66.172961 
L 211.268276 66.12529 
L 211.97781 66.634302 
L 212.687344 67.712916 
L 213.396877 69.447891 
L 214.106411 72.054685 
L 214.815945 76.064226 
L 215.525479 83.218354 
L 216.235012 108.437255 
L 216.944546 83.485472 
L 217.65408 76.866475 
L 218.363613 73.32149 
L 219.073147 71.146693 
L 219.782681 69.810951 
L 220.492214 69.08857 
L 221.201748 68.87445 
L 221.911282 69.126803 
L 222.620815 69.84843 
L 223.330349 71.085779 
L 224.039883 72.942249 
L 224.749417 75.60591 
L 226.168484 83.631623 
L 226.878018 83.540199 
L 228.297085 75.733325 
L 229.006619 73.196013 
L 229.716152 71.436814 
L 230.425686 70.263279 
L 231.13522 69.562879 
L 231.844753 69.273297 
L 232.554287 69.365162 
L 233.263821 69.834052 
L 233.973354 70.698183 
L 234.682888 71.999457 
L 235.392422 73.80333 
L 236.101956 76.174626 
L 236.811489 79.008657 
L 237.521023 81.315789 
L 238.230557 80.976159 
L 240.359158 73.932111 
L 241.068691 72.455424 
L 241.778225 71.454264 
L 242.487759 70.866039 
L 243.197292 70.650911 
L 243.906826 70.789427 
L 244.61636 71.279665 
L 245.325894 72.1355 
L 246.035427 73.384183 
L 246.744961 75.055607 
L 248.164028 79.376499 
L 248.873562 80.905595 
L 249.583096 80.560219 
L 251.711697 74.997418 
L 252.42123 73.693666 
L 253.130764 72.789662 
L 253.840298 72.248381 
L 254.549832 72.038973 
L 255.259365 72.139902 
L 255.968899 72.536401 
L 256.678433 73.214721 
L 257.387966 74.150786 
L 259.516567 77.502812 
L 260.226101 77.990567 
L 260.935635 77.776658 
L 261.645168 77.02906 
L 263.064236 75.192355 
L 263.77377 74.49265 
L 264.483303 74.033944 
L 265.192837 73.826783 
L 265.902371 73.859718 
L 266.611904 74.102363 
L 268.740505 75.314232 
L 269.450039 75.429345 
L 270.159573 75.192467 
L 270.869106 74.633082 
L 272.997708 72.49438 
L 273.707241 72.05711 
L 274.416775 71.880334 
L 275.126309 72.001776 
L 275.835842 72.438824 
L 277.25491 73.962247 
L 277.964443 74.312842 
L 278.673977 73.434384 
L 279.383511 71.247896 
L 281.512112 63.189665 
L 282.931179 58.879617 
L 284.350247 55.417293 
L 285.769314 52.590427 
L 287.188381 50.24844 
L 288.607449 48.290219 
L 290.026516 46.6474 
L 291.445583 45.273613 
L 292.864651 44.137841 
L 294.283718 43.220106 
L 295.702786 42.508475 
L 297.121853 41.996906 
L 298.54092 41.68372 
L 299.959988 41.570593 
L 301.379055 41.661982 
L 302.798123 41.964967 
L 304.21719 42.489451 
L 305.636257 43.248757 
L 307.055325 44.260661 
L 308.474392 45.549071 
L 309.893459 47.146678 
L 311.312527 49.09937 
L 312.731594 51.473976 
L 314.150662 54.373078 
L 315.569729 57.966442 
L 316.988796 62.567751 
L 317.69833 65.431393 
L 318.407864 68.857689 
L 319.117397 73.099947 
L 320.536465 83.670163 
L 321.245999 82.716602 
L 321.955532 79.30421 
L 322.665066 76.984713 
L 323.3746 75.67578 
L 324.084133 75.10471 
L 324.793667 75.114509 
L 325.503201 75.631682 
L 326.212734 76.641213 
L 326.922268 78.181509 
L 327.631802 80.359562 
L 328.341335 83.398509 
L 329.050869 87.740721 
L 329.760403 93.816562 
L 330.469937 95.572978 
L 331.17947 90.218998 
L 331.889004 86.256467 
L 332.598538 83.749511 
L 333.308071 82.184217 
L 334.017605 81.291219 
L 334.727139 80.934953 
L 335.436672 81.05222 
L 336.146206 81.62726 
L 336.85574 82.685215 
L 337.565273 84.298247 
L 338.274807 86.603314 
L 338.984341 89.810344 
L 339.693875 93.908705 
L 340.403408 96.250043 
L 341.112942 93.278051 
L 341.822476 89.476869 
L 342.532009 86.633819 
L 343.241543 84.631156 
L 343.951077 83.261626 
L 344.66061 82.391499 
L 345.370144 81.942572 
L 346.079678 81.872905 
L 346.789211 82.16631 
L 347.498745 82.827811 
L 348.208279 83.882795 
L 348.917813 85.377202 
L 349.627346 87.369658 
L 351.046414 92.55136 
L 351.755947 93.991275 
L 352.465481 92.808956 
L 353.884548 88.143856 
L 354.594082 86.405577 
L 355.303616 85.159643 
L 356.013149 84.344339 
L 356.722683 83.908892 
L 357.432217 83.819956 
L 358.14175 84.058795 
L 358.851284 84.616843 
L 359.560818 85.488954 
L 360.270352 86.659112 
L 362.398953 90.641945 
L 363.108486 90.909887 
L 363.81802 90.226067 
L 365.946621 86.712064 
L 366.656155 85.942542 
L 367.365688 85.488186 
L 368.075222 85.357777 
L 368.784756 85.561521 
L 369.49429 86.120738 
L 370.203823 87.075567 
L 370.913357 88.494957 
L 371.622891 90.490953 
L 372.332424 93.224932 
L 373.751492 99.797868 
L 374.461025 98.525882 
L 375.880093 91.755277 
L 376.589626 89.436408 
L 377.29916 87.760608 
L 378.008694 86.588645 
L 378.718228 85.83111 
L 379.427761 85.434346 
L 380.137295 85.369293 
L 380.846829 85.625277 
L 381.556362 86.207181 
L 382.265896 87.134553 
L 382.97543 88.44045 
L 383.684963 90.162881 
L 385.813564 96.248166 
L 386.523098 95.864027 
L 389.361233 88.263515 
L 390.070767 87.116554 
L 390.7803 86.274168 
L 391.489834 85.681189 
L 392.199368 85.283761 
L 393.618435 84.833438 
L 395.037502 84.330822 
L 395.747036 83.854127 
L 396.45657 83.160608 
L 397.875637 81.199814 
L 401.423306 75.508647 
L 402.842373 73.593336 
L 404.26144 71.975961 
L 405.680508 70.654821 
L 407.099575 69.625511 
L 408.518643 68.887378 
L 409.93771 68.444046 
L 411.356777 68.302401 
L 412.775845 68.471481 
L 414.194912 68.961512 
L 415.613979 69.782784 
L 417.033047 70.943664 
L 418.452114 72.446677 
L 419.871182 74.281096 
L 421.999783 77.564657 
L 426.966519 86.152213 
L 428.385586 88.81874 
L 429.804653 91.962873 
L 431.933254 97.480667 
L 432.642788 98.780803 
L 433.352322 99.186038 
L 434.061855 98.752215 
L 435.480923 97.103491 
L 436.190457 96.486714 
L 436.89999 96.153342 
L 437.609524 96.128941 
L 438.319058 96.421724 
L 439.028591 97.034927 
L 439.738125 97.966136 
L 441.157192 100.628422 
L 441.866726 102.0426 
L 442.57626 102.990281 
L 443.285793 103.037837 
L 443.995327 102.249699 
L 445.414395 100.012181 
L 446.123928 99.165917 
L 446.833462 98.638795 
L 447.542996 98.454756 
L 448.252529 98.62568 
L 448.962063 99.165114 
L 449.671597 100.089964 
L 450.38113 101.406755 
L 451.800198 104.741983 
L 452.509731 105.688285 
L 453.219265 105.095658 
L 456.0574 98.217672 
L 456.766934 97.194302 
L 457.476467 96.514621 
L 458.186001 96.15834 
L 458.895535 96.113651 
L 459.605068 96.378709 
L 460.314602 96.961656 
L 461.024136 97.879513 
L 461.733669 99.152949 
L 463.152737 102.694205 
L 463.862271 104.513327 
L 464.571804 105.40139 
L 465.281338 104.731993 
L 467.409939 99.829632 
L 468.119473 98.702511 
L 468.829006 97.94177 
L 469.53854 97.531166 
L 470.248074 97.459604 
L 470.957607 97.728066 
L 471.667141 98.353172 
L 472.376675 99.371603 
L 473.086208 100.847106 
L 473.795742 102.878713 
L 474.505276 105.587691 
L 475.21481 108.911776 
L 475.924343 111.429867 
L 476.633877 110.225771 
L 478.052944 104.264539 
L 478.762478 102.177474 
L 479.472012 100.696212 
L 480.181545 99.711285 
L 480.891079 99.150132 
L 481.600613 98.971773 
L 482.310146 99.159522 
L 483.01968 99.716732 
L 483.729214 100.664222 
L 484.438748 102.034485 
L 485.148281 103.844505 
L 486.567349 107.818967 
L 487.276882 108.025072 
L 487.986416 106.293347 
L 489.405483 101.77852 
L 490.115017 100.036325 
L 490.824551 98.696555 
L 491.534084 97.716716 
L 492.243618 97.059477 
L 492.953152 96.700261 
L 493.662686 96.628 
L 494.372219 96.84572 
L 495.081753 97.373105 
L 495.791287 98.253035 
L 496.50082 99.566261 
L 497.210354 101.465749 
L 497.919888 104.269373 
L 498.629421 108.786835 
L 499.338955 118.374759 
L 500.048489 121.719205 
L 500.758022 108.913542 
L 501.467556 103.079359 
L 502.17709 99.211729 
L 502.886624 96.29033 
L 504.305691 91.931255 
L 505.724758 88.646604 
L 507.143826 85.954974 
L 509.272427 82.570109 
L 511.401028 79.687539 
L 513.529629 77.190948 
L 515.65823 75.069413 
L 517.786831 73.356506 
L 519.205898 72.46436 
L 520.624966 71.787879 
L 522.044033 71.339551 
L 523.463101 71.13096 
L 523.463101 71.13096 
" clip-path="url(#p1c30b7e431)" style="fill: none; stroke: #fde725; stroke-width: 3.2; stroke-linecap: round"/>
   </g>
  </g>
 </g>
 <defs>
  <clipPath id="p1c30b7e431">
   <rect x="76.456875" y="7.2" width="446.4" height="332.64"/>
  </clipPath>
 </defs>
</svg>
