<?xml version="1.0" encoding="utf-8" standalone="no"?>
<!DOCTYPE svg PUBLIC "-//W3C//DTD SVG 1.1//EN"
  "http://www.w3.org/Graphics/SVG/1.1/DTD/svg11.dtd">
<svg xmlns:xlink="http://www.w3.org/1999/xlink" width="584.399516pt" height="577.623265pt" viewBox="0 0 584.399516 577.623265" xmlns="http://www.w3.org/2000/svg" version="1.1">
 <metadata>
  <rdf:RDF xmlns:dc="http://purl.org/dc/elements/1.1/" xmlns:cc="http://creativecommons.org/ns#" xmlns:rdf="http://www.w3.org/1999/02/22-rdf-syntax-ns#">
   <cc:Work>
    <dc:type rdf:resource="http://purl.org/dc/dcmitype/StillImage"/>
    <dc:date>2026-03-09T00:30:48.387149</dc:date>
    <dc:format>image/svg+xml</dc:format>
    <dc:creator>
     <cc:Agent>
      <dc:title>Matplotlib v3.10.1, https://matplotlib.org/</dc:title>
     </cc:Agent>
    </dc:creator>
   </cc:Work>
  </rdf:RDF>
 </metadata>
 <defs>
  <style type="text/css">*{stroke-linejoin: round; stroke-linecap: butt}</style>
 </defs>
 <g id="figure_1">
  <g id="patch_1">
   <path d="M 0 577.623265 
L 584.399516 577.623265 
L 584.399516 0 
L 0 0 
z
" style="fill: #ffffff"/>
  </g>
  <g id="axes_1">
   <g id="patch_2">
    <path d="M 58.228125 518.692953 
L 569.721078 518.692953 
L 569.721078 7.2 
L 58.228125 7.2 
z
" style="fill: #ffffff"/>
   </g>
   <g id="matplotlib.axis_1">
    <g id="xtick_1">
     <g id="line2d_1">
      <path d="M 95.757629 518.692953 
L 95.757629 7.2 
" clip-path="url(#p54c2e6291a)" style="fill: none; stroke-dasharray: 5.55,2.4; stroke-dashoffset: 0; stroke: #cccccc; stroke-opacity: 0.35; stroke-width: 1.5"/>
     </g>
     <g id="text_1">
      <!-- -1.00 -->
      <g style="fill: #262626" transform="translate(75.246067 544.077015) scale(0.18 -0.18)">
       <defs>
        <path id="ArialMT-2d" d="M 203 1375 
L 203 1941 
L 1931 1941 
L 1931 1375 
L 203 1375 
z
" transform="scale(0.015625)"/>
        <path id="ArialMT-31" d="M 2384 0 
L 1822 0 
L 1822 3584 
Q 1619 3391 1289 3197 
Q 959 3003 697 2906 
L 697 3450 
Q 1169 3672 1522 3987 
Q 1875 4303 2022 4600 
L 2384 4600 
L 2384 0 
z
" transform="scale(0.015625)"/>
        <path id="ArialMT-2e" d="M 581 0 
L 581 641 
L 1222 641 
L 1222 0 
L 581 0 
z
" transform="scale(0.015625)"/>
        <path id="ArialMT-30" d="M 266 2259 
Q 266 3072 433 3567 
Q 600 4063 929 4331 
Q 1259 4600 1759 4600 
Q 2128 4600 2406 4451 
Q 2684 4303 2865 4023 
Q 3047 3744 3150 3342 
Q 3253 2941 3253 2259 
Q 3253 1453 3087 958 
Q 2922 463 2592 192 
Q 2263 -78 1759 -78 
Q 1097 -78 719 397 
Q 266 969 266 2259 
z
M 844 2259 
Q 844 1131 1108 757 
Q 1372 384 1759 384 
Q 2147 384 2411 759 
Q 2675 1134 2675 2259 
Q 2675 3391 2411 3762 
Q 2147 4134 1753 4134 
Q 1366 4134 1134 3806 
Q 844 3388 844 2259 
z
" transform="scale(0.015625)"/>
       </defs>
       <use xlink:href="#ArialMT-2d"/>
       <use xlink:href="#ArialMT-31" transform="translate(33.300781 0)"/>
       <use xlink:href="#ArialMT-2e" transform="translate(88.916016 0)"/>
       <use xlink:href="#ArialMT-30" transform="translate(116.699219 0)"/>
       <use xlink:href="#ArialMT-30" transform="translate(172.314453 0)"/>
      </g>
     </g>
    </g>
    <g id="xtick_2">
     <g id="line2d_2">
      <path d="M 153.748509 518.692953 
L 153.748509 7.2 
" clip-path="url(#p54c2e6291a)" style="fill: none; stroke-dasharray: 5.55,2.4; stroke-dashoffset: 0; stroke: #cccccc; stroke-opacity: 0.35; stroke-width: 1.5"/>
     </g>
     <g id="text_2">
      <!-- -0.75 -->
      <g style="fill: #262626" transform="translate(133.236947 544.077015) scale(0.18 -0.18)">
       <defs>
        <path id="ArialMT-37" d="M 303 3981 
L 303 4522 
L 3269 4522 
L 3269 4084 
Q 2831 3619 2401 2847 
Q 1972 2075 1738 1259 
Q 1569 684 1522 0 
L 944 0 
Q 953 541 1156 1306 
Q 1359 2072 1739 2783 
Q 2119 3494 2547 3981 
L 303 3981 
z
" transform="scale(0.015625)"/>
        <path id="ArialMT-35" d="M 266 1200 
L 856 1250 
Q 922 819 1161 601 
Q 1400 384 1738 384 
Q 2144 384 2425 690 
Q 2706 997 2706 1503 
Q 2706 1984 2436 2262 
Q 2166 2541 1728 2541 
Q 1456 2541 1237 2417 
Q 1019 2294 894 2097 
L 366 2166 
L 809 4519 
L 3088 4519 
L 3088 3981 
L 1259 3981 
L 1013 2750 
Q 1425 3038 1878 3038 
Q 2478 3038 2890 2622 
Q 3303 2206 3303 1553 
Q 3303 931 2941 478 
Q 2500 -78 1738 -78 
Q 1113 -78 717 272 
Q 322 622 266 1200 
z
" transform="scale(0.015625)"/>
       </defs>
       <use xlink:href="#ArialMT-2d"/>
       <use xlink:href="#ArialMT-30" transform="translate(33.300781 0)"/>
       <use xlink:href="#ArialMT-2e" transform="translate(88.916016 0)"/>
       <use xlink:href="#ArialMT-37" transform="translate(116.699219 0)"/>
       <use xlink:href="#ArialMT-35" transform="translate(172.314453 0)"/>
      </g>
     </g>
    </g>
    <g id="xtick_3">
     <g id="line2d_3">
      <path d="M 211.73939 518.692953 
L 211.73939 7.2 
" clip-path="url(#p54c2e6291a)" style="fill: none; stroke-dasharray: 5.55,2.4; stroke-dashoffset: 0; stroke: #cccccc; stroke-opacity: 0.35; stroke-width: 1.5"/>
     </g>
     <g id="text_3">
      <!-- -0.50 -->
      <g style="fill: #262626" transform="translate(191.227827 544.077015) scale(0.18 -0.18)">
       <use xlink:href="#ArialMT-2d"/>
       <use xlink:href="#ArialMT-30" transform="translate(33.300781 0)"/>
       <use xlink:href="#ArialMT-2e" transform="translate(88.916016 0)"/>
       <use xlink:href="#ArialMT-35" transform="translate(116.699219 0)"/>
       <use xlink:href="#ArialMT-30" transform="translate(172.314453 0)"/>
      </g>
     </g>
    </g>
    <g id="xtick_4">
     <g id="line2d_4">
      <path d="M 269.73027 518.692953 
L 269.73027 7.2 
" clip-path="url(#p54c2e6291a)" style="fill: none; stroke-dasharray: 5.55,2.4; stroke-dashoffset: 0; stroke: #cccccc; stroke-opacity: 0.35; stroke-width: 1.5"/>
     </g>
     <g id="text_4">
      <!-- -0.25 -->
      <g style="fill: #262626" transform="translate(249.218708 544.077015) scale(0.18 -0.18)">
       <defs>
        <path id="ArialMT-32" d="M 3222 541 
L 3222 0 
L 194 0 
Q 188 203 259 391 
Q 375 700 629 1000 
Q 884 1300 1366 1694 
Q 2113 2306 2375 2664 
Q 2638 3022 2638 3341 
Q 2638 3675 2398 3904 
Q 2159 4134 1775 4134 
Q 1369 4134 1125 3890 
Q 881 3647 878 3216 
L 300 3275 
Q 359 3922 746 4261 
Q 1134 4600 1788 4600 
Q 2447 4600 2831 4234 
Q 3216 3869 3216 3328 
Q 3216 3053 3103 2787 
Q 2991 2522 2730 2228 
Q 2469 1934 1863 1422 
Q 1356 997 1212 845 
Q 1069 694 975 541 
L 3222 541 
z
" transform="scale(0.015625)"/>
       </defs>
       <use xlink:href="#ArialMT-2d"/>
       <use xlink:href="#ArialMT-30" transform="translate(33.300781 0)"/>
       <use xlink:href="#ArialMT-2e" transform="translate(88.916016 0)"/>
       <use xlink:href="#ArialMT-32" transform="translate(116.699219 0)"/>
       <use xlink:href="#ArialMT-35" transform="translate(172.314453 0)"/>
      </g>
     </g>
    </g>
    <g id="xtick_5">
     <g id="line2d_5">
      <path d="M 327.72115 518.692953 
L 327.72115 7.2 
" clip-path="url(#p54c2e6291a)" style="fill: none; stroke-dasharray: 5.55,2.4; stroke-dashoffset: 0; stroke: #cccccc; stroke-opacity: 0.35; stroke-width: 1.5"/>
     </g>
     <g id="text_5">
      <!-- 0.00 -->
      <g style="fill: #262626" transform="translate(310.206307 544.077015) scale(0.18 -0.18)">
       <use xlink:href="#ArialMT-30"/>
       <use xlink:href="#ArialMT-2e" transform="translate(55.615234 0)"/>
       <use xlink:href="#ArialMT-30" transform="translate(83.398438 0)"/>
       <use xlink:href="#ArialMT-30" transform="translate(139.013672 0)"/>
      </g>
     </g>
    </g>
    <g id="xtick_6">
     <g id="line2d_6">
      <path d="M 385.712031 518.692953 
L 385.712031 7.2 
" clip-path="url(#p54c2e6291a)" style="fill: none; stroke-dasharray: 5.55,2.4; stroke-dashoffset: 0; stroke: #cccccc; stroke-opacity: 0.35; stroke-width: 1.5"/>
     </g>
     <g id="text_6">
      <!-- 0.25 -->
      <g style="fill: #262626" transform="translate(368.197187 544.077015) scale(0.18 -0.18)">
       <use xlink:href="#ArialMT-30"/>
       <use xlink:href="#ArialMT-2e" transform="translate(55.615234 0)"/>
       <use xlink:href="#ArialMT-32" transform="translate(83.398438 0)"/>
       <use xlink:href="#ArialMT-35" transform="translate(139.013672 0)"/>
      </g>
     </g>
    </g>
    <g id="xtick_7">
     <g id="line2d_7">
      <path d="M 443.702911 518.692953 
L 443.702911 7.2 
" clip-path="url(#p54c2e6291a)" style="fill: none; stroke-dasharray: 5.55,2.4; stroke-dashoffset: 0; stroke: #cccccc; stroke-opacity: 0.35; stroke-width: 1.5"/>
     </g>
     <g id="text_7">
      <!-- 0.50 -->
      <g style="fill: #262626" transform="translate(426.188067 544.077015) scale(0.18 -0.18)">
       <use xlink:href="#ArialMT-30"/>
       <use xlink:href="#ArialMT-2e" transform="translate(55.615234 0)"/>
       <use xlink:href="#ArialMT-35" transform="translate(83.398438 0)"/>
       <use xlink:href="#ArialMT-30" transform="translate(139.013672 0)"/>
      </g>
     </g>
    </g>
    <g id="xtick_8">
     <g id="line2d_8">
      <path d="M 501.693791 518.692953 
L 501.693791 7.2 
" clip-path="url(#p54c2e6291a)" style="fill: none; stroke-dasharray: 5.55,2.4; stroke-dashoffset: 0; stroke: #cccccc; stroke-opacity: 0.35; stroke-width: 1.5"/>
     </g>
     <g id="text_8">
      <!-- 0.75 -->
      <g style="fill: #262626" transform="translate(484.178948 544.077015) scale(0.18 -0.18)">
       <use xlink:href="#ArialMT-30"/>
       <use xlink:href="#ArialMT-2e" transform="translate(55.615234 0)"/>
       <use xlink:href="#ArialMT-37" transform="translate(83.398438 0)"/>
       <use xlink:href="#ArialMT-35" transform="translate(139.013672 0)"/>
      </g>
     </g>
    </g>
    <g id="xtick_9">
     <g id="line2d_9">
      <path d="M 559.684672 518.692953 
L 559.684672 7.2 
" clip-path="url(#p54c2e6291a)" style="fill: none; stroke-dasharray: 5.55,2.4; stroke-dashoffset: 0; stroke: #cccccc; stroke-opacity: 0.35; stroke-width: 1.5"/>
     </g>
     <g id="text_9">
      <!-- 1.00 -->
      <g style="fill: #262626" transform="translate(542.169828 544.077015) scale(0.18 -0.18)">
       <use xlink:href="#ArialMT-31"/>
       <use xlink:href="#ArialMT-2e" transform="translate(55.615234 0)"/>
       <use xlink:href="#ArialMT-30" transform="translate(83.398438 0)"/>
       <use xlink:href="#ArialMT-30" transform="translate(139.013672 0)"/>
      </g>
     </g>
    </g>
    <g id="text_10">
     <!-- Subjective BT score (log-odds ± SE) -->
     <g style="fill: #262626" transform="translate(142.358976 566.21389) scale(0.2 -0.2)">
      <defs>
       <path id="Arial-BoldMT-53" d="M 231 1491 
L 1131 1578 
Q 1213 1125 1461 912 
Q 1709 700 2131 700 
Q 2578 700 2804 889 
Q 3031 1078 3031 1331 
Q 3031 1494 2936 1608 
Q 2841 1722 2603 1806 
Q 2441 1863 1863 2006 
Q 1119 2191 819 2459 
Q 397 2838 397 3381 
Q 397 3731 595 4036 
Q 794 4341 1167 4500 
Q 1541 4659 2069 4659 
Q 2931 4659 3367 4281 
Q 3803 3903 3825 3272 
L 2900 3231 
Q 2841 3584 2645 3739 
Q 2450 3894 2059 3894 
Q 1656 3894 1428 3728 
Q 1281 3622 1281 3444 
Q 1281 3281 1419 3166 
Q 1594 3019 2269 2859 
Q 2944 2700 3267 2529 
Q 3591 2359 3773 2064 
Q 3956 1769 3956 1334 
Q 3956 941 3737 597 
Q 3519 253 3119 86 
Q 2719 -81 2122 -81 
Q 1253 -81 787 320 
Q 322 722 231 1491 
z
" transform="scale(0.015625)"/>
       <path id="Arial-BoldMT-75" d="M 2644 0 
L 2644 497 
Q 2463 231 2167 78 
Q 1872 -75 1544 -75 
Q 1209 -75 943 72 
Q 678 219 559 484 
Q 441 750 441 1219 
L 441 3319 
L 1319 3319 
L 1319 1794 
Q 1319 1094 1367 936 
Q 1416 778 1544 686 
Q 1672 594 1869 594 
Q 2094 594 2272 717 
Q 2450 841 2515 1023 
Q 2581 1206 2581 1919 
L 2581 3319 
L 3459 3319 
L 3459 0 
L 2644 0 
z
" transform="scale(0.015625)"/>
       <path id="Arial-BoldMT-62" d="M 422 0 
L 422 4581 
L 1300 4581 
L 1300 2931 
Q 1706 3394 2263 3394 
Q 2869 3394 3266 2955 
Q 3663 2516 3663 1694 
Q 3663 844 3258 384 
Q 2853 -75 2275 -75 
Q 1991 -75 1714 67 
Q 1438 209 1238 488 
L 1238 0 
L 422 0 
z
M 1294 1731 
Q 1294 1216 1456 969 
Q 1684 619 2063 619 
Q 2353 619 2558 867 
Q 2763 1116 2763 1650 
Q 2763 2219 2556 2470 
Q 2350 2722 2028 2722 
Q 1713 2722 1503 2476 
Q 1294 2231 1294 1731 
z
" transform="scale(0.015625)"/>
       <path id="Arial-BoldMT-6a" d="M 441 3769 
L 441 4581 
L 1319 4581 
L 1319 3769 
L 441 3769 
z
M 1319 3319 
L 1319 103 
Q 1319 -531 1236 -792 
Q 1153 -1053 917 -1200 
Q 681 -1347 316 -1347 
Q 184 -1347 32 -1323 
Q -119 -1300 -294 -1253 
L -141 -503 
Q -78 -516 -23 -523 
Q 31 -531 78 -531 
Q 213 -531 298 -473 
Q 384 -416 412 -334 
Q 441 -253 441 153 
L 441 3319 
L 1319 3319 
z
" transform="scale(0.015625)"/>
       <path id="Arial-BoldMT-65" d="M 2381 1056 
L 3256 909 
Q 3088 428 2723 176 
Q 2359 -75 1813 -75 
Q 947 -75 531 491 
Q 203 944 203 1634 
Q 203 2459 634 2926 
Q 1066 3394 1725 3394 
Q 2466 3394 2894 2905 
Q 3322 2416 3303 1406 
L 1103 1406 
Q 1113 1016 1316 798 
Q 1519 581 1822 581 
Q 2028 581 2168 693 
Q 2309 806 2381 1056 
z
M 2431 1944 
Q 2422 2325 2234 2523 
Q 2047 2722 1778 2722 
Q 1491 2722 1303 2513 
Q 1116 2303 1119 1944 
L 2431 1944 
z
" transform="scale(0.015625)"/>
       <path id="Arial-BoldMT-63" d="M 3353 2338 
L 2488 2181 
Q 2444 2441 2289 2572 
Q 2134 2703 1888 2703 
Q 1559 2703 1364 2476 
Q 1169 2250 1169 1719 
Q 1169 1128 1367 884 
Q 1566 641 1900 641 
Q 2150 641 2309 783 
Q 2469 925 2534 1272 
L 3397 1125 
Q 3263 531 2881 228 
Q 2500 -75 1859 -75 
Q 1131 -75 698 384 
Q 266 844 266 1656 
Q 266 2478 700 2936 
Q 1134 3394 1875 3394 
Q 2481 3394 2839 3133 
Q 3197 2872 3353 2338 
z
" transform="scale(0.015625)"/>
       <path id="Arial-BoldMT-74" d="M 1981 3319 
L 1981 2619 
L 1381 2619 
L 1381 1281 
Q 1381 875 1398 808 
Q 1416 741 1477 697 
Q 1538 653 1625 653 
Q 1747 653 1978 738 
L 2053 56 
Q 1747 -75 1359 -75 
Q 1122 -75 931 4 
Q 741 84 652 211 
Q 563 338 528 553 
Q 500 706 500 1172 
L 500 2619 
L 97 2619 
L 97 3319 
L 500 3319 
L 500 3978 
L 1381 4491 
L 1381 3319 
L 1981 3319 
z
" transform="scale(0.015625)"/>
       <path id="Arial-BoldMT-69" d="M 459 3769 
L 459 4581 
L 1338 4581 
L 1338 3769 
L 459 3769 
z
M 459 0 
L 459 3319 
L 1338 3319 
L 1338 0 
L 459 0 
z
" transform="scale(0.015625)"/>
       <path id="Arial-BoldMT-76" d="M 1372 0 
L 34 3319 
L 956 3319 
L 1581 1625 
L 1763 1059 
Q 1834 1275 1853 1344 
Q 1897 1484 1947 1625 
L 2578 3319 
L 3481 3319 
L 2163 0 
L 1372 0 
z
" transform="scale(0.015625)"/>
       <path id="Arial-BoldMT-20" transform="scale(0.015625)"/>
       <path id="Arial-BoldMT-42" d="M 469 4581 
L 2300 4581 
Q 2844 4581 3111 4536 
Q 3378 4491 3589 4347 
Q 3800 4203 3940 3964 
Q 4081 3725 4081 3428 
Q 4081 3106 3907 2837 
Q 3734 2569 3438 2434 
Q 3856 2313 4081 2019 
Q 4306 1725 4306 1328 
Q 4306 1016 4161 720 
Q 4016 425 3764 248 
Q 3513 72 3144 31 
Q 2913 6 2028 0 
L 469 0 
L 469 4581 
z
M 1394 3819 
L 1394 2759 
L 2000 2759 
Q 2541 2759 2672 2775 
Q 2909 2803 3045 2939 
Q 3181 3075 3181 3297 
Q 3181 3509 3064 3642 
Q 2947 3775 2716 3803 
Q 2578 3819 1925 3819 
L 1394 3819 
z
M 1394 1997 
L 1394 772 
L 2250 772 
Q 2750 772 2884 800 
Q 3091 838 3220 983 
Q 3350 1128 3350 1372 
Q 3350 1578 3250 1722 
Q 3150 1866 2961 1931 
Q 2772 1997 2141 1997 
L 1394 1997 
z
" transform="scale(0.015625)"/>
       <path id="Arial-BoldMT-54" d="M 1497 0 
L 1497 3806 
L 138 3806 
L 138 4581 
L 3778 4581 
L 3778 3806 
L 2422 3806 
L 2422 0 
L 1497 0 
z
" transform="scale(0.015625)"/>
       <path id="Arial-BoldMT-73" d="M 150 947 
L 1031 1081 
Q 1088 825 1259 692 
Q 1431 559 1741 559 
Q 2081 559 2253 684 
Q 2369 772 2369 919 
Q 2369 1019 2306 1084 
Q 2241 1147 2013 1200 
Q 950 1434 666 1628 
Q 272 1897 272 2375 
Q 272 2806 612 3100 
Q 953 3394 1669 3394 
Q 2350 3394 2681 3172 
Q 3013 2950 3138 2516 
L 2309 2363 
Q 2256 2556 2107 2659 
Q 1959 2763 1684 2763 
Q 1338 2763 1188 2666 
Q 1088 2597 1088 2488 
Q 1088 2394 1175 2328 
Q 1294 2241 1995 2081 
Q 2697 1922 2975 1691 
Q 3250 1456 3250 1038 
Q 3250 581 2869 253 
Q 2488 -75 1741 -75 
Q 1063 -75 667 200 
Q 272 475 150 947 
z
" transform="scale(0.015625)"/>
       <path id="Arial-BoldMT-6f" d="M 256 1706 
Q 256 2144 472 2553 
Q 688 2963 1083 3178 
Q 1478 3394 1966 3394 
Q 2719 3394 3200 2905 
Q 3681 2416 3681 1669 
Q 3681 916 3195 420 
Q 2709 -75 1972 -75 
Q 1516 -75 1102 131 
Q 688 338 472 736 
Q 256 1134 256 1706 
z
M 1156 1659 
Q 1156 1166 1390 903 
Q 1625 641 1969 641 
Q 2313 641 2545 903 
Q 2778 1166 2778 1666 
Q 2778 2153 2545 2415 
Q 2313 2678 1969 2678 
Q 1625 2678 1390 2415 
Q 1156 2153 1156 1659 
z
" transform="scale(0.015625)"/>
       <path id="Arial-BoldMT-72" d="M 1300 0 
L 422 0 
L 422 3319 
L 1238 3319 
L 1238 2847 
Q 1447 3181 1614 3287 
Q 1781 3394 1994 3394 
Q 2294 3394 2572 3228 
L 2300 2463 
Q 2078 2606 1888 2606 
Q 1703 2606 1575 2504 
Q 1447 2403 1373 2137 
Q 1300 1872 1300 1025 
L 1300 0 
z
" transform="scale(0.015625)"/>
       <path id="Arial-BoldMT-28" d="M 1916 -1347 
L 1313 -1347 
Q 834 -625 584 153 
Q 334 931 334 1659 
Q 334 2563 644 3369 
Q 913 4069 1325 4659 
L 1925 4659 
Q 1497 3713 1336 3048 
Q 1175 2384 1175 1641 
Q 1175 1128 1270 590 
Q 1366 53 1531 -431 
Q 1641 -750 1916 -1347 
z
" transform="scale(0.015625)"/>
       <path id="Arial-BoldMT-6c" d="M 459 0 
L 459 4581 
L 1338 4581 
L 1338 0 
L 459 0 
z
" transform="scale(0.015625)"/>
       <path id="Arial-BoldMT-67" d="M 378 -219 
L 1381 -341 
Q 1406 -516 1497 -581 
Q 1622 -675 1891 -675 
Q 2234 -675 2406 -572 
Q 2522 -503 2581 -350 
Q 2622 -241 2622 53 
L 2622 538 
Q 2228 0 1628 0 
Q 959 0 569 566 
Q 263 1013 263 1678 
Q 263 2513 664 2953 
Q 1066 3394 1663 3394 
Q 2278 3394 2678 2853 
L 2678 3319 
L 3500 3319 
L 3500 341 
Q 3500 -247 3403 -537 
Q 3306 -828 3131 -993 
Q 2956 -1159 2664 -1253 
Q 2372 -1347 1925 -1347 
Q 1081 -1347 728 -1058 
Q 375 -769 375 -325 
Q 375 -281 378 -219 
z
M 1163 1728 
Q 1163 1200 1367 954 
Q 1572 709 1872 709 
Q 2194 709 2416 961 
Q 2638 1213 2638 1706 
Q 2638 2222 2425 2472 
Q 2213 2722 1888 2722 
Q 1572 2722 1367 2476 
Q 1163 2231 1163 1728 
z
" transform="scale(0.015625)"/>
       <path id="Arial-BoldMT-2d" d="M 359 1222 
L 359 2100 
L 2084 2100 
L 2084 1222 
L 359 1222 
z
" transform="scale(0.015625)"/>
       <path id="Arial-BoldMT-64" d="M 3503 0 
L 2688 0 
L 2688 488 
Q 2484 203 2207 64 
Q 1931 -75 1650 -75 
Q 1078 -75 670 386 
Q 263 847 263 1672 
Q 263 2516 659 2955 
Q 1056 3394 1663 3394 
Q 2219 3394 2625 2931 
L 2625 4581 
L 3503 4581 
L 3503 0 
z
M 1159 1731 
Q 1159 1200 1306 963 
Q 1519 619 1900 619 
Q 2203 619 2415 876 
Q 2628 1134 2628 1647 
Q 2628 2219 2422 2470 
Q 2216 2722 1894 2722 
Q 1581 2722 1370 2473 
Q 1159 2225 1159 1731 
z
" transform="scale(0.015625)"/>
       <path id="Arial-BoldMT-b1" d="M 1356 1113 
L 1356 2303 
L 156 2303 
L 156 3125 
L 1356 3125 
L 1356 4316 
L 2156 4316 
L 2156 3125 
L 3359 3125 
L 3359 2303 
L 2156 2303 
L 2156 1113 
L 1356 1113 
z
M 156 0 
L 156 822 
L 3359 822 
L 3359 0 
L 156 0 
z
" transform="scale(0.015625)"/>
       <path id="Arial-BoldMT-45" d="M 466 0 
L 466 4581 
L 3863 4581 
L 3863 3806 
L 1391 3806 
L 1391 2791 
L 3691 2791 
L 3691 2019 
L 1391 2019 
L 1391 772 
L 3950 772 
L 3950 0 
L 466 0 
z
" transform="scale(0.015625)"/>
       <path id="Arial-BoldMT-29" d="M 216 -1347 
Q 475 -791 581 -494 
Q 688 -197 778 190 
Q 869 578 912 926 
Q 956 1275 956 1641 
Q 956 2384 797 3048 
Q 638 3713 209 4659 
L 806 4659 
Q 1278 3988 1539 3234 
Q 1800 2481 1800 1706 
Q 1800 1053 1594 306 
Q 1359 -531 822 -1347 
L 216 -1347 
z
" transform="scale(0.015625)"/>
      </defs>
      <use xlink:href="#Arial-BoldMT-53"/>
      <use xlink:href="#Arial-BoldMT-75" transform="translate(66.699219 0)"/>
      <use xlink:href="#Arial-BoldMT-62" transform="translate(127.783203 0)"/>
      <use xlink:href="#Arial-BoldMT-6a" transform="translate(188.867188 0)"/>
      <use xlink:href="#Arial-BoldMT-65" transform="translate(216.650391 0)"/>
      <use xlink:href="#Arial-BoldMT-63" transform="translate(272.265625 0)"/>
      <use xlink:href="#Arial-BoldMT-74" transform="translate(327.880859 0)"/>
      <use xlink:href="#Arial-BoldMT-69" transform="translate(361.181641 0)"/>
      <use xlink:href="#Arial-BoldMT-76" transform="translate(388.964844 0)"/>
      <use xlink:href="#Arial-BoldMT-65" transform="translate(444.580078 0)"/>
      <use xlink:href="#Arial-BoldMT-20" transform="translate(500.195312 0)"/>
      <use xlink:href="#Arial-BoldMT-42" transform="translate(527.978516 0)"/>
      <use xlink:href="#Arial-BoldMT-54" transform="translate(600.195312 0)"/>
      <use xlink:href="#Arial-BoldMT-20" transform="translate(661.279297 0)"/>
      <use xlink:href="#Arial-BoldMT-73" transform="translate(689.0625 0)"/>
      <use xlink:href="#Arial-BoldMT-63" transform="translate(744.677734 0)"/>
      <use xlink:href="#Arial-BoldMT-6f" transform="translate(800.292969 0)"/>
      <use xlink:href="#Arial-BoldMT-72" transform="translate(861.376953 0)"/>
      <use xlink:href="#Arial-BoldMT-65" transform="translate(900.292969 0)"/>
      <use xlink:href="#Arial-BoldMT-20" transform="translate(955.908203 0)"/>
      <use xlink:href="#Arial-BoldMT-28" transform="translate(983.691406 0)"/>
      <use xlink:href="#Arial-BoldMT-6c" transform="translate(1016.992188 0)"/>
      <use xlink:href="#Arial-BoldMT-6f" transform="translate(1044.775391 0)"/>
      <use xlink:href="#Arial-BoldMT-67" transform="translate(1105.859375 0)"/>
      <use xlink:href="#Arial-BoldMT-2d" transform="translate(1166.943359 0)"/>
      <use xlink:href="#Arial-BoldMT-6f" transform="translate(1200.244141 0)"/>
      <use xlink:href="#Arial-BoldMT-64" transform="translate(1261.328125 0)"/>
      <use xlink:href="#Arial-BoldMT-64" transform="translate(1322.412109 0)"/>
      <use xlink:href="#Arial-BoldMT-73" transform="translate(1383.496094 0)"/>
      <use xlink:href="#Arial-BoldMT-20" transform="translate(1439.111328 0)"/>
      <use xlink:href="#Arial-BoldMT-b1" transform="translate(1466.894531 0)"/>
      <use xlink:href="#Arial-BoldMT-20" transform="translate(1521.777344 0)"/>
      <use xlink:href="#Arial-BoldMT-53" transform="translate(1549.560547 0)"/>
      <use xlink:href="#Arial-BoldMT-45" transform="translate(1616.259766 0)"/>
      <use xlink:href="#Arial-BoldMT-29" transform="translate(1682.958984 0)"/>
     </g>
    </g>
   </g>
   <g id="matplotlib.axis_2">
    <g id="ytick_1">
     <g id="line2d_10">
      <path d="M 58.228125 439.050901 
L 569.721078 439.050901 
" clip-path="url(#p54c2e6291a)" style="fill: none; stroke-dasharray: 5.55,2.4; stroke-dashoffset: 0; stroke: #cccccc; stroke-opacity: 0.35; stroke-width: 1.5"/>
     </g>
     <g id="text_11">
      <!-- -2 -->
      <g style="fill: #262626" transform="translate(29.725 445.492933) scale(0.18 -0.18)">
       <use xlink:href="#ArialMT-2d"/>
       <use xlink:href="#ArialMT-32" transform="translate(33.300781 0)"/>
      </g>
     </g>
    </g>
    <g id="ytick_2">
     <g id="line2d_11">
      <path d="M 58.228125 344.509292 
L 569.721078 344.509292 
" clip-path="url(#p54c2e6291a)" style="fill: none; stroke-dasharray: 5.55,2.4; stroke-dashoffset: 0; stroke: #cccccc; stroke-opacity: 0.35; stroke-width: 1.5"/>
     </g>
     <g id="text_12">
      <!-- -1 -->
      <g style="fill: #262626" transform="translate(29.725 350.951324) scale(0.18 -0.18)">
       <use xlink:href="#ArialMT-2d"/>
       <use xlink:href="#ArialMT-31" transform="translate(33.300781 0)"/>
      </g>
     </g>
    </g>
    <g id="ytick_3">
     <g id="line2d_12">
      <path d="M 58.228125 249.967683 
L 569.721078 249.967683 
" clip-path="url(#p54c2e6291a)" style="fill: none; stroke-dasharray: 5.55,2.4; stroke-dashoffset: 0; stroke: #cccccc; stroke-opacity: 0.35; stroke-width: 1.5"/>
     </g>
     <g id="text_13">
      <!-- 0 -->
      <g style="fill: #262626" transform="translate(35.718438 256.409715) scale(0.18 -0.18)">
       <use xlink:href="#ArialMT-30"/>
      </g>
     </g>
    </g>
    <g id="ytick_4">
     <g id="line2d_13">
      <path d="M 58.228125 155.426075 
L 569.721078 155.426075 
" clip-path="url(#p54c2e6291a)" style="fill: none; stroke-dasharray: 5.55,2.4; stroke-dashoffset: 0; stroke: #cccccc; stroke-opacity: 0.35; stroke-width: 1.5"/>
     </g>
     <g id="text_14">
      <!-- 1 -->
      <g style="fill: #262626" transform="translate(35.718438 161.868106) scale(0.18 -0.18)">
       <use xlink:href="#ArialMT-31"/>
      </g>
     </g>
    </g>
    <g id="ytick_5">
     <g id="line2d_14">
      <path d="M 58.228125 60.884466 
L 569.721078 60.884466 
" clip-path="url(#p54c2e6291a)" style="fill: none; stroke-dasharray: 5.55,2.4; stroke-dashoffset: 0; stroke: #cccccc; stroke-opacity: 0.35; stroke-width: 1.5"/>
     </g>
     <g id="text_15">
      <!-- 2 -->
      <g style="fill: #262626" transform="translate(35.718438 67.326497) scale(0.18 -0.18)">
       <use xlink:href="#ArialMT-32"/>
      </g>
     </g>
    </g>
    <g id="text_16">
     <!-- Predicted intensity z-score -->
     <g style="fill: #262626" transform="translate(21.515625 390.198039) rotate(-90) scale(0.2 -0.2)">
      <defs>
       <path id="Arial-BoldMT-50" d="M 466 0 
L 466 4581 
L 1950 4581 
Q 2794 4581 3050 4513 
Q 3444 4409 3709 4064 
Q 3975 3719 3975 3172 
Q 3975 2750 3822 2462 
Q 3669 2175 3433 2011 
Q 3197 1847 2953 1794 
Q 2622 1728 1994 1728 
L 1391 1728 
L 1391 0 
L 466 0 
z
M 1391 3806 
L 1391 2506 
L 1897 2506 
Q 2444 2506 2628 2578 
Q 2813 2650 2917 2803 
Q 3022 2956 3022 3159 
Q 3022 3409 2875 3571 
Q 2728 3734 2503 3775 
Q 2338 3806 1838 3806 
L 1391 3806 
z
" transform="scale(0.015625)"/>
       <path id="Arial-BoldMT-6e" d="M 3478 0 
L 2600 0 
L 2600 1694 
Q 2600 2231 2544 2389 
Q 2488 2547 2361 2634 
Q 2234 2722 2056 2722 
Q 1828 2722 1647 2597 
Q 1466 2472 1398 2265 
Q 1331 2059 1331 1503 
L 1331 0 
L 453 0 
L 453 3319 
L 1269 3319 
L 1269 2831 
Q 1703 3394 2363 3394 
Q 2653 3394 2893 3289 
Q 3134 3184 3257 3021 
Q 3381 2859 3429 2653 
Q 3478 2447 3478 2063 
L 3478 0 
z
" transform="scale(0.015625)"/>
       <path id="Arial-BoldMT-79" d="M 44 3319 
L 978 3319 
L 1772 963 
L 2547 3319 
L 3456 3319 
L 2284 125 
L 2075 -453 
Q 1959 -744 1854 -897 
Q 1750 -1050 1614 -1145 
Q 1478 -1241 1279 -1294 
Q 1081 -1347 831 -1347 
Q 578 -1347 334 -1294 
L 256 -606 
Q 463 -647 628 -647 
Q 934 -647 1081 -467 
Q 1228 -288 1306 -9 
L 44 3319 
z
" transform="scale(0.015625)"/>
       <path id="Arial-BoldMT-7a" d="M 106 0 
L 106 684 
L 1350 2113 
Q 1656 2463 1803 2609 
Q 1650 2600 1400 2597 
L 228 2591 
L 228 3319 
L 2972 3319 
L 2972 2697 
L 1703 1234 
L 1256 750 
Q 1622 772 1709 772 
L 3069 772 
L 3069 0 
L 106 0 
z
" transform="scale(0.015625)"/>
      </defs>
      <use xlink:href="#Arial-BoldMT-50"/>
      <use xlink:href="#Arial-BoldMT-72" transform="translate(66.699219 0)"/>
      <use xlink:href="#Arial-BoldMT-65" transform="translate(105.615234 0)"/>
      <use xlink:href="#Arial-BoldMT-64" transform="translate(161.230469 0)"/>
      <use xlink:href="#Arial-BoldMT-69" transform="translate(222.314453 0)"/>
      <use xlink:href="#Arial-BoldMT-63" transform="translate(250.097656 0)"/>
      <use xlink:href="#Arial-BoldMT-74" transform="translate(305.712891 0)"/>
      <use xlink:href="#Arial-BoldMT-65" transform="translate(339.013672 0)"/>
      <use xlink:href="#Arial-BoldMT-64" transform="translate(394.628906 0)"/>
      <use xlink:href="#Arial-BoldMT-20" transform="translate(455.712891 0)"/>
      <use xlink:href="#Arial-BoldMT-69" transform="translate(483.496094 0)"/>
      <use xlink:href="#Arial-BoldMT-6e" transform="translate(511.279297 0)"/>
      <use xlink:href="#Arial-BoldMT-74" transform="translate(572.363281 0)"/>
      <use xlink:href="#Arial-BoldMT-65" transform="translate(605.664062 0)"/>
      <use xlink:href="#Arial-BoldMT-6e" transform="translate(661.279297 0)"/>
      <use xlink:href="#Arial-BoldMT-73" transform="translate(722.363281 0)"/>
      <use xlink:href="#Arial-BoldMT-69" transform="translate(777.978516 0)"/>
      <use xlink:href="#Arial-BoldMT-74" transform="translate(805.761719 0)"/>
      <use xlink:href="#Arial-BoldMT-79" transform="translate(839.0625 0)"/>
      <use xlink:href="#Arial-BoldMT-20" transform="translate(894.677734 0)"/>
      <use xlink:href="#Arial-BoldMT-7a" transform="translate(922.460938 0)"/>
      <use xlink:href="#Arial-BoldMT-2d" transform="translate(972.460938 0)"/>
      <use xlink:href="#Arial-BoldMT-73" transform="translate(1005.761719 0)"/>
      <use xlink:href="#Arial-BoldMT-63" transform="translate(1061.376953 0)"/>
      <use xlink:href="#Arial-BoldMT-6f" transform="translate(1116.992188 0)"/>
      <use xlink:href="#Arial-BoldMT-72" transform="translate(1178.076172 0)"/>
      <use xlink:href="#Arial-BoldMT-65" transform="translate(1216.992188 0)"/>
     </g>
    </g>
   </g>
   <g id="FillBetweenPolyCollection_1">
    <defs>
     <path id="mdd526fde31" d="M 81.477805 -203.824162 
L 81.477805 -82.179992 
L 83.814456 -84.391422 
L 86.151107 -86.601944 
L 88.487758 -88.811536 
L 90.82441 -91.020177 
L 93.161061 -93.227845 
L 95.497712 -95.434517 
L 97.834363 -97.640169 
L 100.171014 -99.844777 
L 102.507666 -102.048316 
L 104.844317 -104.25076 
L 107.180968 -106.452083 
L 109.517619 -108.652258 
L 111.854271 -110.851256 
L 114.190922 -113.049049 
L 116.527573 -115.245606 
L 118.864224 -117.440897 
L 121.200875 -119.634891 
L 123.537527 -121.827554 
L 125.874178 -124.018853 
L 128.210829 -126.208754 
L 130.54748 -128.39722 
L 132.884132 -130.584216 
L 135.220783 -132.769702 
L 137.557434 -134.953639 
L 139.894085 -137.135989 
L 142.230736 -139.316707 
L 144.567388 -141.495753 
L 146.904039 -143.673081 
L 149.24069 -145.848646 
L 151.577341 -148.0224 
L 153.913993 -150.194296 
L 156.250644 -152.364283 
L 158.587295 -154.532309 
L 160.923946 -156.698321 
L 163.260597 -158.862264 
L 165.597249 -161.024082 
L 167.9339 -163.183715 
L 170.270551 -165.341104 
L 172.607202 -167.496187 
L 174.943854 -169.648898 
L 177.280505 -171.799172 
L 179.617156 -173.946941 
L 181.953807 -176.092135 
L 184.290458 -178.23468 
L 186.62711 -180.374502 
L 188.963761 -182.511524 
L 191.300412 -184.645667 
L 193.637063 -186.776848 
L 195.973715 -188.904984 
L 198.310366 -191.029988 
L 200.647017 -193.15177 
L 202.983668 -195.270238 
L 205.320319 -197.385299 
L 207.656971 -199.496854 
L 209.993622 -201.604803 
L 212.330273 -203.709044 
L 214.666924 -205.809471 
L 217.003576 -207.905976 
L 219.340227 -209.998447 
L 221.676878 -212.08677 
L 224.013529 -214.170827 
L 226.35018 -216.2505 
L 228.686832 -218.325664 
L 231.023483 -220.396195 
L 233.360134 -222.461963 
L 235.696785 -224.522838 
L 238.033437 -226.578686 
L 240.370088 -228.62937 
L 242.706739 -230.67475 
L 245.04339 -232.714686 
L 247.380041 -234.749032 
L 249.716693 -236.777644 
L 252.053344 -238.800374 
L 254.389995 -240.81707 
L 256.726646 -242.827582 
L 259.063298 -244.831757 
L 261.399949 -246.829441 
L 263.7366 -248.820479 
L 266.073251 -250.804715 
L 268.409902 -252.781993 
L 270.746554 -254.752159 
L 273.083205 -256.715056 
L 275.419856 -258.67053 
L 277.756507 -260.618429 
L 280.093159 -262.558601 
L 282.42981 -264.490896 
L 284.766461 -266.415169 
L 287.103112 -268.331275 
L 289.439763 -270.239075 
L 291.776415 -272.138434 
L 294.113066 -274.029219 
L 296.449717 -275.911305 
L 298.786368 -277.784572 
L 301.12302 -279.648906 
L 303.459671 -281.504199 
L 305.796322 -283.35035 
L 308.132973 -285.187268 
L 310.469624 -287.014866 
L 312.806276 -288.83307 
L 315.142927 -290.641812 
L 317.479578 -292.441033 
L 319.816229 -294.230685 
L 322.152881 -296.010728 
L 324.489532 -297.781133 
L 326.826183 -299.541881 
L 329.162834 -301.292963 
L 331.499485 -303.034381 
L 333.836137 -304.766145 
L 336.172788 -306.488277 
L 338.509439 -308.200809 
L 340.84609 -309.903782 
L 343.182742 -311.597247 
L 345.519393 -313.281265 
L 347.856044 -314.955905 
L 350.192695 -316.621246 
L 352.529346 -318.277373 
L 354.865998 -319.924382 
L 357.202649 -321.562375 
L 359.5393 -323.19146 
L 361.875951 -324.811754 
L 364.212603 -326.423378 
L 366.549254 -328.026459 
L 368.885905 -329.621129 
L 371.222556 -331.207526 
L 373.559207 -332.78579 
L 375.895859 -334.356064 
L 378.23251 -335.918498 
L 380.569161 -337.473239 
L 382.905812 -339.02044 
L 385.242464 -340.560255 
L 387.579115 -342.092838 
L 389.915766 -343.618344 
L 392.252417 -345.136929 
L 394.589068 -346.648749 
L 396.92572 -348.153959 
L 399.262371 -349.652713 
L 401.599022 -351.145167 
L 403.935673 -352.631472 
L 406.272325 -354.111779 
L 408.608976 -355.586238 
L 410.945627 -357.054997 
L 413.282278 -358.518201 
L 415.618929 -359.975994 
L 417.955581 -361.428516 
L 420.292232 -362.875907 
L 422.628883 -364.318301 
L 424.965534 -365.755833 
L 427.302186 -367.188633 
L 429.638837 -368.616829 
L 431.975488 -370.040546 
L 434.312139 -371.459906 
L 436.64879 -372.875029 
L 438.985442 -374.28603 
L 441.322093 -375.693025 
L 443.658744 -377.096122 
L 445.995395 -378.49543 
L 448.332047 -379.891054 
L 450.668698 -381.283097 
L 453.005349 -382.671656 
L 455.342 -384.056831 
L 457.678651 -385.438713 
L 460.015303 -386.817395 
L 462.351954 -388.192965 
L 464.688605 -389.56551 
L 467.025256 -390.935112 
L 469.361908 -392.301854 
L 471.698559 -393.665815 
L 474.03521 -395.02707 
L 476.371861 -396.385694 
L 478.708512 -397.741759 
L 481.045164 -399.095335 
L 483.381815 -400.446489 
L 485.718466 -401.795288 
L 488.055117 -403.141795 
L 490.391769 -404.486071 
L 492.72842 -405.828177 
L 495.065071 -407.168171 
L 497.401722 -408.506109 
L 499.738373 -409.842046 
L 502.075025 -411.176035 
L 504.411676 -412.508126 
L 506.748327 -413.83837 
L 509.084978 -415.166815 
L 511.42163 -416.493507 
L 513.758281 -417.818492 
L 516.094932 -419.141815 
L 518.431583 -420.463517 
L 520.768234 -421.78364 
L 523.104886 -423.102223 
L 525.441537 -424.419307 
L 527.778188 -425.734928 
L 530.114839 -427.049123 
L 532.451491 -428.361928 
L 534.788142 -429.673377 
L 537.124793 -430.983503 
L 539.461444 -432.292339 
L 541.798095 -433.599917 
L 544.134747 -434.906266 
L 546.471398 -436.211416 
L 546.471398 -547.173585 
L 546.471398 -547.173585 
L 544.134747 -544.974309 
L 541.798095 -542.776232 
L 539.461444 -540.579383 
L 537.124793 -538.383793 
L 534.788142 -536.189492 
L 532.451491 -533.996515 
L 530.114839 -531.804893 
L 527.778188 -529.614662 
L 525.441537 -527.425857 
L 523.104886 -525.238514 
L 520.768234 -523.052672 
L 518.431583 -520.868368 
L 516.094932 -518.685644 
L 513.758281 -516.50454 
L 511.42163 -514.325099 
L 509.084978 -512.147365 
L 506.748327 -509.971383 
L 504.411676 -507.797201 
L 502.075025 -505.624866 
L 499.738373 -503.454428 
L 497.401722 -501.285938 
L 495.065071 -499.11945 
L 492.72842 -496.955017 
L 490.391769 -494.792697 
L 488.055117 -492.632548 
L 485.718466 -490.474628 
L 483.381815 -488.319 
L 481.045164 -486.165728 
L 478.708512 -484.014878 
L 476.371861 -481.866516 
L 474.03521 -479.720714 
L 471.698559 -477.577543 
L 469.361908 -475.437077 
L 467.025256 -473.299392 
L 464.688605 -471.164569 
L 462.351954 -469.032687 
L 460.015303 -466.903831 
L 457.678651 -464.778086 
L 455.342 -462.655542 
L 453.005349 -460.53629 
L 450.668698 -458.420424 
L 448.332047 -456.30804 
L 445.995395 -454.199237 
L 443.658744 -452.094119 
L 441.322093 -449.99279 
L 438.985442 -447.895358 
L 436.64879 -445.801933 
L 434.312139 -443.712629 
L 431.975488 -441.627563 
L 429.638837 -439.546854 
L 427.302186 -437.470624 
L 424.965534 -435.398997 
L 422.628883 -433.332103 
L 420.292232 -431.270071 
L 417.955581 -429.213035 
L 415.618929 -427.161131 
L 413.282278 -425.114497 
L 410.945627 -423.073275 
L 408.608976 -421.037607 
L 406.272325 -419.00764 
L 403.935673 -416.983521 
L 401.599022 -414.9654 
L 399.262371 -412.953427 
L 396.92572 -410.947755 
L 394.589068 -408.948539 
L 392.252417 -406.955932 
L 389.915766 -404.970091 
L 387.579115 -402.991171 
L 385.242464 -401.019327 
L 382.905812 -399.054715 
L 380.569161 -397.09749 
L 378.23251 -395.147805 
L 375.895859 -393.205812 
L 373.559207 -391.271661 
L 371.222556 -389.345498 
L 368.885905 -387.427468 
L 366.549254 -385.517712 
L 364.212603 -383.616367 
L 361.875951 -381.723564 
L 359.5393 -379.839432 
L 357.202649 -377.964091 
L 354.865998 -376.097657 
L 352.529346 -374.24024 
L 350.192695 -372.391941 
L 347.856044 -370.552855 
L 345.519393 -368.723069 
L 343.182742 -366.90266 
L 340.84609 -365.091699 
L 338.509439 -363.290246 
L 336.172788 -361.498351 
L 333.836137 -359.716057 
L 331.499485 -357.943395 
L 329.162834 -356.180386 
L 326.826183 -354.427042 
L 324.489532 -352.683364 
L 322.152881 -350.949342 
L 319.816229 -349.224959 
L 317.479578 -347.510184 
L 315.142927 -345.804979 
L 312.806276 -344.109294 
L 310.469624 -342.423072 
L 308.132973 -340.746244 
L 305.796322 -339.078735 
L 303.459671 -337.420461 
L 301.12302 -335.771327 
L 298.786368 -334.131234 
L 296.449717 -332.500075 
L 294.113066 -330.877735 
L 291.776415 -329.264094 
L 289.439763 -327.659025 
L 287.103112 -326.062399 
L 284.766461 -324.474079 
L 282.42981 -322.893925 
L 280.093159 -321.321795 
L 277.756507 -319.75754 
L 275.419856 -318.201012 
L 273.083205 -316.652061 
L 270.746554 -315.110531 
L 268.409902 -313.57627 
L 266.073251 -312.049122 
L 263.7366 -310.528932 
L 261.399949 -309.015543 
L 259.063298 -307.508801 
L 256.726646 -306.008549 
L 254.389995 -304.514635 
L 252.053344 -303.026905 
L 249.716693 -301.545208 
L 247.380041 -300.069394 
L 245.04339 -298.599314 
L 242.706739 -297.134824 
L 240.370088 -295.675778 
L 238.033437 -294.222035 
L 235.696785 -292.773456 
L 233.360134 -291.329905 
L 231.023483 -289.891247 
L 228.686832 -288.457351 
L 226.35018 -287.028089 
L 224.013529 -285.603335 
L 221.676878 -284.182967 
L 219.340227 -282.766863 
L 217.003576 -281.354907 
L 214.666924 -279.946986 
L 212.330273 -278.542987 
L 209.993622 -277.142801 
L 207.656971 -275.746324 
L 205.320319 -274.353453 
L 202.983668 -272.964087 
L 200.647017 -271.578129 
L 198.310366 -270.195485 
L 195.973715 -268.816062 
L 193.637063 -267.439772 
L 191.300412 -266.066527 
L 188.963761 -264.696243 
L 186.62711 -263.328839 
L 184.290458 -261.964235 
L 181.953807 -260.602354 
L 179.617156 -259.24312 
L 177.280505 -257.886463 
L 174.943854 -256.532311 
L 172.607202 -255.180596 
L 170.270551 -253.831252 
L 167.9339 -252.484214 
L 165.597249 -251.139421 
L 163.260597 -249.796813 
L 160.923946 -248.45633 
L 158.587295 -247.117915 
L 156.250644 -245.781515 
L 153.913993 -244.447076 
L 151.577341 -243.114545 
L 149.24069 -241.783873 
L 146.904039 -240.455012 
L 144.567388 -239.127913 
L 142.230736 -237.802533 
L 139.894085 -236.478825 
L 137.557434 -235.156748 
L 135.220783 -233.836259 
L 132.884132 -232.517319 
L 130.54748 -231.199888 
L 128.210829 -229.883928 
L 125.874178 -228.569402 
L 123.537527 -227.256275 
L 121.200875 -225.944512 
L 118.864224 -224.634079 
L 116.527573 -223.324944 
L 114.190922 -222.017075 
L 111.854271 -220.710441 
L 109.517619 -219.405013 
L 107.180968 -218.100761 
L 104.844317 -216.797658 
L 102.507666 -215.495676 
L 100.171014 -214.194789 
L 97.834363 -212.89497 
L 95.497712 -211.596196 
L 93.161061 -210.298441 
L 90.82441 -209.001683 
L 88.487758 -207.705898 
L 86.151107 -206.411063 
L 83.814456 -205.117159 
L 81.477805 -203.824162 
z
" style="stroke: #bfbfbf; stroke-opacity: 0.2; stroke-width: 1.5"/>
    </defs>
    <g clip-path="url(#p54c2e6291a)">
     <use xlink:href="#mdd526fde31" x="0" y="577.623265" style="fill: #bfbfbf; fill-opacity: 0.2; stroke: #bfbfbf; stroke-opacity: 0.2; stroke-width: 1.5"/>
    </g>
   </g>
   <g id="LineCollection_1">
    <path d="M 473.448213 136.925207 
L 526.709174 136.925207 
" clip-path="url(#p54c2e6291a)" style="fill: none; stroke: #440154; stroke-width: 3"/>
   </g>
   <g id="line2d_15">
    <defs>
     <path id="m1c844ec6e0" d="M 0 6 
L 0 -6 
" style="stroke: #440154; stroke-width: 1.2"/>
    </defs>
    <g clip-path="url(#p54c2e6291a)">
     <use xlink:href="#m1c844ec6e0" x="473.448213" y="136.925207" style="fill: #440154; stroke: #440154; stroke-width: 1.2"/>
    </g>
   </g>
   <g id="line2d_16">
    <g clip-path="url(#p54c2e6291a)">
     <use xlink:href="#m1c844ec6e0" x="526.709174" y="136.925207" style="fill: #440154; stroke: #440154; stroke-width: 1.2"/>
    </g>
   </g>
   <g id="LineCollection_2">
    <path d="M 380.092412 190.068167 
L 430.741495 190.068167 
" clip-path="url(#p54c2e6291a)" style="fill: none; stroke: #3b528b; stroke-width: 3"/>
   </g>
   <g id="line2d_17">
    <defs>
     <path id="m73a39e6f15" d="M 0 6 
L 0 -6 
" style="stroke: #3b528b; stroke-width: 1.2"/>
    </defs>
    <g clip-path="url(#p54c2e6291a)">
     <use xlink:href="#m73a39e6f15" x="380.092412" y="190.068167" style="fill: #3b528b; stroke: #3b528b; stroke-width: 1.2"/>
    </g>
   </g>
   <g id="line2d_18">
    <g clip-path="url(#p54c2e6291a)">
     <use xlink:href="#m73a39e6f15" x="430.741495" y="190.068167" style="fill: #3b528b; stroke: #3b528b; stroke-width: 1.2"/>
    </g>
   </g>
   <g id="LineCollection_3">
    <path d="M 294.198612 242.502796 
L 344.125244 242.502796 
" clip-path="url(#p54c2e6291a)" style="fill: none; stroke: #21918c; stroke-width: 3"/>
   </g>
   <g id="line2d_19">
    <defs>
     <path id="ma80d638258" d="M 0 6 
L 0 -6 
" style="stroke: #21918c; stroke-width: 1.2"/>
    </defs>
    <g clip-path="url(#p54c2e6291a)">
     <use xlink:href="#ma80d638258" x="294.198612" y="242.502796" style="fill: #21918c; stroke: #21918c; stroke-width: 1.2"/>
    </g>
   </g>
   <g id="line2d_20">
    <g clip-path="url(#p54c2e6291a)">
     <use xlink:href="#ma80d638258" x="344.125244" y="242.502796" style="fill: #21918c; stroke: #21918c; stroke-width: 1.2"/>
    </g>
   </g>
   <g id="LineCollection_4">
    <path d="M 261.002499 262.72766 
L 311.152837 262.72766 
" clip-path="url(#p54c2e6291a)" style="fill: none; stroke: #5ec962; stroke-width: 3"/>
   </g>
   <g id="line2d_21">
    <defs>
     <path id="m1be36e3580" d="M 0 6 
L 0 -6 
" style="stroke: #5ec962; stroke-width: 1.2"/>
    </defs>
    <g clip-path="url(#p54c2e6291a)">
     <use xlink:href="#m1be36e3580" x="261.002499" y="262.72766" style="fill: #5ec962; stroke: #5ec962; stroke-width: 1.2"/>
    </g>
   </g>
   <g id="line2d_22">
    <g clip-path="url(#p54c2e6291a)">
     <use xlink:href="#m1be36e3580" x="311.152837" y="262.72766" style="fill: #5ec962; stroke: #5ec962; stroke-width: 1.2"/>
    </g>
   </g>
   <g id="LineCollection_5">
    <path d="M 100.262481 417.614586 
L 155.478537 417.614586 
" clip-path="url(#p54c2e6291a)" style="fill: none; stroke: #fde725; stroke-width: 3"/>
   </g>
   <g id="line2d_23">
    <defs>
     <path id="m4f53b87574" d="M 0 6 
L 0 -6 
" style="stroke: #fde725; stroke-width: 1.2"/>
    </defs>
    <g clip-path="url(#p54c2e6291a)">
     <use xlink:href="#m4f53b87574" x="100.262481" y="417.614586" style="fill: #fde725; stroke: #fde725; stroke-width: 1.2"/>
    </g>
   </g>
   <g id="line2d_24">
    <g clip-path="url(#p54c2e6291a)">
     <use xlink:href="#m4f53b87574" x="155.478537" y="417.614586" style="fill: #fde725; stroke: #fde725; stroke-width: 1.2"/>
    </g>
   </g>
   <g id="line2d_25">
    <path d="M 81.477805 434.621188 
L 546.471398 85.930764 
L 546.471398 85.930764 
" clip-path="url(#p54c2e6291a)" style="fill: none; stroke: #000000; stroke-opacity: 0.8; stroke-width: 2.5; stroke-linecap: round"/>
   </g>
   <g id="line2d_26">
    <defs>
     <path id="ma9f9b5d979" d="M 0 5 
C 1.326016 5 2.597899 4.473168 3.535534 3.535534 
C 4.473168 2.597899 5 1.326016 5 0 
C 5 -1.326016 4.473168 -2.597899 3.535534 -3.535534 
C 2.597899 -4.473168 1.326016 -5 0 -5 
C -1.326016 -5 -2.597899 -4.473168 -3.535534 -3.535534 
C -4.473168 -2.597899 -5 -1.326016 -5 0 
C -5 1.326016 -4.473168 2.597899 -3.535534 3.535534 
C -2.597899 4.473168 -1.326016 5 0 5 
z
" style="stroke: #000000; stroke-width: 1.2"/>
    </defs>
    <g clip-path="url(#p54c2e6291a)">
     <use xlink:href="#ma9f9b5d979" x="500.078694" y="136.925207" style="fill: #440154; stroke: #000000; stroke-width: 1.2"/>
    </g>
   </g>
   <g id="line2d_27">
    <defs>
     <path id="m8bed151b49" d="M 0 5 
C 1.326016 5 2.597899 4.473168 3.535534 3.535534 
C 4.473168 2.597899 5 1.326016 5 0 
C 5 -1.326016 4.473168 -2.597899 3.535534 -3.535534 
C 2.597899 -4.473168 1.326016 -5 0 -5 
C -1.326016 -5 -2.597899 -4.473168 -3.535534 -3.535534 
C -4.473168 -2.597899 -5 -1.326016 -5 0 
C -5 1.326016 -4.473168 2.597899 -3.535534 3.535534 
C -2.597899 4.473168 -1.326016 5 0 5 
z
" style="stroke: #000000; stroke-width: 1.2"/>
    </defs>
    <g clip-path="url(#p54c2e6291a)">
     <use xlink:href="#m8bed151b49" x="405.416953" y="190.068167" style="fill: #3b528b; stroke: #000000; stroke-width: 1.2"/>
    </g>
   </g>
   <g id="line2d_28">
    <defs>
     <path id="m091fabb60c" d="M 0 5 
C 1.326016 5 2.597899 4.473168 3.535534 3.535534 
C 4.473168 2.597899 5 1.326016 5 0 
C 5 -1.326016 4.473168 -2.597899 3.535534 -3.535534 
C 2.597899 -4.473168 1.326016 -5 0 -5 
C -1.326016 -5 -2.597899 -4.473168 -3.535534 -3.535534 
C -4.473168 -2.597899 -5 -1.326016 -5 0 
C -5 1.326016 -4.473168 2.597899 -3.535534 3.535534 
C -2.597899 4.473168 -1.326016 5 0 5 
z
" style="stroke: #000000; stroke-width: 1.2"/>
    </defs>
    <g clip-path="url(#p54c2e6291a)">
     <use xlink:href="#m091fabb60c" x="319.161928" y="242.502796" style="fill: #21918c; stroke: #000000; stroke-width: 1.2"/>
    </g>
   </g>
   <g id="line2d_29">
    <defs>
     <path id="m2c87166728" d="M 0 5 
C 1.326016 5 2.597899 4.473168 3.535534 3.535534 
C 4.473168 2.597899 5 1.326016 5 0 
C 5 -1.326016 4.473168 -2.597899 3.535534 -3.535534 
C 2.597899 -4.473168 1.326016 -5 0 -5 
C -1.326016 -5 -2.597899 -4.473168 -3.535534 -3.535534 
C -4.473168 -2.597899 -5 -1.326016 -5 0 
C -5 1.326016 -4.473168 2.597899 -3.535534 3.535534 
C -2.597899 4.473168 -1.326016 5 0 5 
z
" style="stroke: #000000; stroke-width: 1.2"/>
    </defs>
    <g clip-path="url(#p54c2e6291a)">
     <use xlink:href="#m2c87166728" x="286.077668" y="262.72766" style="fill: #5ec962; stroke: #000000; stroke-width: 1.2"/>
    </g>
   </g>
   <g id="line2d_30">
    <defs>
     <path id="md2264b058e" d="M 0 5 
C 1.326016 5 2.597899 4.473168 3.535534 3.535534 
C 4.473168 2.597899 5 1.326016 5 0 
C 5 -1.326016 4.473168 -2.597899 3.535534 -3.535534 
C 2.597899 -4.473168 1.326016 -5 0 -5 
C -1.326016 -5 -2.597899 -4.473168 -3.535534 -3.535534 
C -4.473168 -2.597899 -5 -1.326016 -5 0 
C -5 1.326016 -4.473168 2.597899 -3.535534 3.535534 
C -2.597899 4.473168 -1.326016 5 0 5 
z
" style="stroke: #000000; stroke-width: 1.2"/>
    </defs>
    <g clip-path="url(#p54c2e6291a)">
     <use xlink:href="#md2264b058e" x="127.870509" y="417.614586" style="fill: #fde725; stroke: #000000; stroke-width: 1.2"/>
    </g>
   </g>
   <g id="patch_3">
    <path d="M 58.228125 518.692953 
L 58.228125 7.2 
" style="fill: none; stroke: #262626; stroke-width: 1.875; stroke-linejoin: miter; stroke-linecap: square"/>
   </g>
   <g id="patch_4">
    <path d="M 569.721078 518.692953 
L 569.721078 7.2 
" style="fill: none; stroke: #262626; stroke-width: 1.875; stroke-linejoin: miter; stroke-linecap: square"/>
   </g>
   <g id="patch_5">
    <path d="M 58.228125 518.692953 
L 569.721078 518.692953 
" style="fill: none; stroke: #262626; stroke-width: 1.875; stroke-linejoin: miter; stroke-linecap: square"/>
   </g>
   <g id="patch_6">
    <path d="M 58.228125 7.2 
L 569.721078 7.2 
" style="fill: none; stroke: #262626; stroke-width: 1.875; stroke-linejoin: miter; stroke-linecap: square"/>
   </g>
   <g id="text_17">
    <g id="patch_7">
     <path d="M 69.572914 66.864789 
L 200.972914 66.864789 
L 200.972914 18.769789 
L 69.572914 18.769789 
z
" style="fill: #ffffff; opacity: 0.85; stroke: #cccccc; stroke-width: 1.5; stroke-linejoin: miter"/>
    </g>
    <!-- $R^2$ = 0.975 -->
    <g style="fill: #262626" transform="translate(73.572914 37.169789) scale(0.2 -0.2)">
     <defs>
      <path id="DejaVuSans-Oblique-52" d="M 1613 4147 
L 1294 2491 
L 2106 2491 
Q 2584 2491 2879 2755 
Q 3175 3019 3175 3444 
Q 3175 3784 2976 3965 
Q 2778 4147 2406 4147 
L 1613 4147 
z
M 2772 2241 
Q 2972 2194 3105 2009 
Q 3238 1825 3413 1275 
L 3809 0 
L 3144 0 
L 2778 1197 
Q 2638 1659 2453 1815 
Q 2269 1972 1888 1972 
L 1191 1972 
L 806 0 
L 172 0 
L 1081 4666 
L 2503 4666 
Q 3150 4666 3495 4373 
Q 3841 4081 3841 3531 
Q 3841 3044 3547 2687 
Q 3253 2331 2772 2241 
z
" transform="scale(0.015625)"/>
      <path id="DejaVuSans-32" d="M 1228 531 
L 3431 531 
L 3431 0 
L 469 0 
L 469 531 
Q 828 903 1448 1529 
Q 2069 2156 2228 2338 
Q 2531 2678 2651 2914 
Q 2772 3150 2772 3378 
Q 2772 3750 2511 3984 
Q 2250 4219 1831 4219 
Q 1534 4219 1204 4116 
Q 875 4013 500 3803 
L 500 4441 
Q 881 4594 1212 4672 
Q 1544 4750 1819 4750 
Q 2544 4750 2975 4387 
Q 3406 4025 3406 3419 
Q 3406 3131 3298 2873 
Q 3191 2616 2906 2266 
Q 2828 2175 2409 1742 
Q 1991 1309 1228 531 
z
" transform="scale(0.015625)"/>
      <path id="ArialMT-20" transform="scale(0.015625)"/>
      <path id="ArialMT-3d" d="M 3381 2694 
L 356 2694 
L 356 3219 
L 3381 3219 
L 3381 2694 
z
M 3381 1303 
L 356 1303 
L 356 1828 
L 3381 1828 
L 3381 1303 
z
" transform="scale(0.015625)"/>
      <path id="ArialMT-39" d="M 350 1059 
L 891 1109 
Q 959 728 1153 556 
Q 1347 384 1650 384 
Q 1909 384 2104 503 
Q 2300 622 2425 820 
Q 2550 1019 2634 1356 
Q 2719 1694 2719 2044 
Q 2719 2081 2716 2156 
Q 2547 1888 2255 1720 
Q 1963 1553 1622 1553 
Q 1053 1553 659 1965 
Q 266 2378 266 3053 
Q 266 3750 677 4175 
Q 1088 4600 1706 4600 
Q 2153 4600 2523 4359 
Q 2894 4119 3086 3673 
Q 3278 3228 3278 2384 
Q 3278 1506 3087 986 
Q 2897 466 2520 194 
Q 2144 -78 1638 -78 
Q 1100 -78 759 220 
Q 419 519 350 1059 
z
M 2653 3081 
Q 2653 3566 2395 3850 
Q 2138 4134 1775 4134 
Q 1400 4134 1122 3828 
Q 844 3522 844 3034 
Q 844 2597 1108 2323 
Q 1372 2050 1759 2050 
Q 2150 2050 2401 2323 
Q 2653 2597 2653 3081 
z
" transform="scale(0.015625)"/>
     </defs>
     <use xlink:href="#DejaVuSans-Oblique-52" transform="translate(0 0.765625)"/>
     <use xlink:href="#DejaVuSans-32" transform="translate(76.499193 39.046875) scale(0.7)"/>
     <use xlink:href="#ArialMT-20" transform="translate(123.769701 0.765625)"/>
     <use xlink:href="#ArialMT-3d" transform="translate(151.552904 0.765625)"/>
     <use xlink:href="#ArialMT-20" transform="translate(209.951341 0.765625)"/>
     <use xlink:href="#ArialMT-30" transform="translate(237.734544 0.765625)"/>
     <use xlink:href="#ArialMT-2e" transform="translate(293.349779 0.765625)"/>
     <use xlink:href="#ArialMT-39" transform="translate(321.132982 0.765625)"/>
     <use xlink:href="#ArialMT-37" transform="translate(376.748216 0.765625)"/>
     <use xlink:href="#ArialMT-35" transform="translate(432.363451 0.765625)"/>
    </g>
    <!-- $p$ = 0.00169** -->
    <g style="fill: #262626" transform="translate(73.572914 58.664789) scale(0.2 -0.2)">
     <defs>
      <path id="DejaVuSans-Oblique-70" d="M 3175 2156 
Q 3175 2616 2975 2859 
Q 2775 3103 2400 3103 
Q 2144 3103 1911 2972 
Q 1678 2841 1497 2591 
Q 1319 2344 1212 1994 
Q 1106 1644 1106 1300 
Q 1106 863 1306 627 
Q 1506 391 1875 391 
Q 2147 391 2380 519 
Q 2613 647 2778 891 
Q 2956 1147 3065 1494 
Q 3175 1841 3175 2156 
z
M 1394 2969 
Q 1625 3272 1939 3428 
Q 2253 3584 2638 3584 
Q 3175 3584 3472 3232 
Q 3769 2881 3769 2247 
Q 3769 1728 3584 1258 
Q 3400 788 3053 416 
Q 2822 169 2531 39 
Q 2241 -91 1919 -91 
Q 1547 -91 1294 64 
Q 1041 219 916 525 
L 556 -1331 
L -19 -1331 
L 922 3500 
L 1497 3500 
L 1394 2969 
z
" transform="scale(0.015625)"/>
      <path id="ArialMT-36" d="M 3184 3459 
L 2625 3416 
Q 2550 3747 2413 3897 
Q 2184 4138 1850 4138 
Q 1581 4138 1378 3988 
Q 1113 3794 959 3422 
Q 806 3050 800 2363 
Q 1003 2672 1297 2822 
Q 1591 2972 1913 2972 
Q 2475 2972 2870 2558 
Q 3266 2144 3266 1488 
Q 3266 1056 3080 686 
Q 2894 316 2569 119 
Q 2244 -78 1831 -78 
Q 1128 -78 684 439 
Q 241 956 241 2144 
Q 241 3472 731 4075 
Q 1159 4600 1884 4600 
Q 2425 4600 2770 4297 
Q 3116 3994 3184 3459 
z
M 888 1484 
Q 888 1194 1011 928 
Q 1134 663 1356 523 
Q 1578 384 1822 384 
Q 2178 384 2434 671 
Q 2691 959 2691 1453 
Q 2691 1928 2437 2201 
Q 2184 2475 1800 2475 
Q 1419 2475 1153 2201 
Q 888 1928 888 1484 
z
" transform="scale(0.015625)"/>
      <path id="ArialMT-2a" d="M 200 3741 
L 344 4184 
Q 841 4009 1066 3881 
Q 1006 4447 1003 4659 
L 1456 4659 
Q 1447 4350 1384 3884 
Q 1706 4047 2122 4184 
L 2266 3741 
Q 1869 3609 1488 3566 
Q 1678 3400 2025 2975 
L 1650 2709 
Q 1469 2956 1222 3381 
Q 991 2941 816 2709 
L 447 2975 
Q 809 3422 966 3566 
Q 563 3644 200 3741 
z
" transform="scale(0.015625)"/>
     </defs>
     <use xlink:href="#DejaVuSans-Oblique-70" transform="translate(0 0.203125)"/>
     <use xlink:href="#ArialMT-20" transform="translate(63.476562 0.203125)"/>
     <use xlink:href="#ArialMT-3d" transform="translate(91.259766 0.203125)"/>
     <use xlink:href="#ArialMT-20" transform="translate(149.658203 0.203125)"/>
     <use xlink:href="#ArialMT-30" transform="translate(177.441406 0.203125)"/>
     <use xlink:href="#ArialMT-2e" transform="translate(233.056641 0.203125)"/>
     <use xlink:href="#ArialMT-30" transform="translate(260.839844 0.203125)"/>
     <use xlink:href="#ArialMT-30" transform="translate(316.455078 0.203125)"/>
     <use xlink:href="#ArialMT-31" transform="translate(372.070312 0.203125)"/>
     <use xlink:href="#ArialMT-36" transform="translate(427.685547 0.203125)"/>
     <use xlink:href="#ArialMT-39" transform="translate(483.300781 0.203125)"/>
     <use xlink:href="#ArialMT-2a" transform="translate(538.916016 0.203125)"/>
     <use xlink:href="#ArialMT-2a" transform="translate(577.832031 0.203125)"/>
    </g>
   </g>
   <g id="legend_1">
    <g id="patch_8">
     <path d="M 455.746078 510.692953 
L 558.521078 510.692953 
Q 561.721078 510.692953 561.721078 507.492953 
L 561.721078 395.640453 
Q 561.721078 392.440453 558.521078 392.440453 
L 455.746078 392.440453 
Q 452.546078 392.440453 452.546078 395.640453 
L 452.546078 507.492953 
Q 452.546078 510.692953 455.746078 510.692953 
z
" style="fill: #ffffff; opacity: 0.8; stroke: #cccccc; stroke-width: 1.5; stroke-linejoin: miter"/>
    </g>
    <g id="LineCollection_6">
     <path d="M 466.946078 404.692953 
L 482.946078 404.692953 
" style="fill: none; stroke: #440154; stroke-width: 3"/>
    </g>
    <g id="line2d_31">
     <g>
      <use xlink:href="#m1c844ec6e0" x="466.946078" y="404.692953" style="fill: #440154; stroke: #440154; stroke-width: 1.2"/>
     </g>
    </g>
    <g id="line2d_32">
     <g>
      <use xlink:href="#m1c844ec6e0" x="482.946078" y="404.692953" style="fill: #440154; stroke: #440154; stroke-width: 1.2"/>
     </g>
    </g>
    <g id="line2d_33"/>
    <g id="line2d_34">
     <g>
      <use xlink:href="#ma9f9b5d979" x="474.946078" y="404.692953" style="fill: #440154; stroke: #000000; stroke-width: 1.2"/>
     </g>
    </g>
    <g id="text_18">
     <!-- ULM_L -->
     <g style="fill: #262626" transform="translate(503.746078 410.292953) scale(0.16 -0.16)">
      <defs>
       <path id="ArialMT-55" d="M 3500 4581 
L 4106 4581 
L 4106 1934 
Q 4106 1244 3950 837 
Q 3794 431 3386 176 
Q 2978 -78 2316 -78 
Q 1672 -78 1262 144 
Q 853 366 678 786 
Q 503 1206 503 1934 
L 503 4581 
L 1109 4581 
L 1109 1938 
Q 1109 1341 1220 1058 
Q 1331 775 1601 622 
Q 1872 469 2263 469 
Q 2931 469 3215 772 
Q 3500 1075 3500 1938 
L 3500 4581 
z
" transform="scale(0.015625)"/>
       <path id="ArialMT-4c" d="M 469 0 
L 469 4581 
L 1075 4581 
L 1075 541 
L 3331 541 
L 3331 0 
L 469 0 
z
" transform="scale(0.015625)"/>
       <path id="ArialMT-4d" d="M 475 0 
L 475 4581 
L 1388 4581 
L 2472 1338 
Q 2622 884 2691 659 
Q 2769 909 2934 1394 
L 4031 4581 
L 4847 4581 
L 4847 0 
L 4263 0 
L 4263 3834 
L 2931 0 
L 2384 0 
L 1059 3900 
L 1059 0 
L 475 0 
z
" transform="scale(0.015625)"/>
       <path id="ArialMT-5f" d="M -97 -1272 
L -97 -866 
L 3631 -866 
L 3631 -1272 
L -97 -1272 
z
" transform="scale(0.015625)"/>
      </defs>
      <use xlink:href="#ArialMT-55"/>
      <use xlink:href="#ArialMT-4c" transform="translate(72.216797 0)"/>
      <use xlink:href="#ArialMT-4d" transform="translate(127.832031 0)"/>
      <use xlink:href="#ArialMT-5f" transform="translate(211.132812 0)"/>
      <use xlink:href="#ArialMT-4c" transform="translate(266.748047 0)"/>
     </g>
    </g>
    <g id="LineCollection_7">
     <path d="M 466.946078 427.372953 
L 482.946078 427.372953 
" style="fill: none; stroke: #3b528b; stroke-width: 3"/>
    </g>
    <g id="line2d_35">
     <g>
      <use xlink:href="#m73a39e6f15" x="466.946078" y="427.372953" style="fill: #3b528b; stroke: #3b528b; stroke-width: 1.2"/>
     </g>
    </g>
    <g id="line2d_36">
     <g>
      <use xlink:href="#m73a39e6f15" x="482.946078" y="427.372953" style="fill: #3b528b; stroke: #3b528b; stroke-width: 1.2"/>
     </g>
    </g>
    <g id="line2d_37"/>
    <g id="line2d_38">
     <g>
      <use xlink:href="#m8bed151b49" x="474.946078" y="427.372953" style="fill: #3b528b; stroke: #000000; stroke-width: 1.2"/>
     </g>
    </g>
    <g id="text_19">
     <!-- DLM_2 -->
     <g style="fill: #262626" transform="translate(503.746078 432.972953) scale(0.16 -0.16)">
      <defs>
       <path id="ArialMT-44" d="M 494 0 
L 494 4581 
L 2072 4581 
Q 2606 4581 2888 4516 
Q 3281 4425 3559 4188 
Q 3922 3881 4101 3404 
Q 4281 2928 4281 2316 
Q 4281 1794 4159 1391 
Q 4038 988 3847 723 
Q 3656 459 3429 307 
Q 3203 156 2883 78 
Q 2563 0 2147 0 
L 494 0 
z
M 1100 541 
L 2078 541 
Q 2531 541 2789 625 
Q 3047 709 3200 863 
Q 3416 1078 3536 1442 
Q 3656 1806 3656 2325 
Q 3656 3044 3420 3430 
Q 3184 3816 2847 3947 
Q 2603 4041 2063 4041 
L 1100 4041 
L 1100 541 
z
" transform="scale(0.015625)"/>
      </defs>
      <use xlink:href="#ArialMT-44"/>
      <use xlink:href="#ArialMT-4c" transform="translate(72.216797 0)"/>
      <use xlink:href="#ArialMT-4d" transform="translate(127.832031 0)"/>
      <use xlink:href="#ArialMT-5f" transform="translate(211.132812 0)"/>
      <use xlink:href="#ArialMT-32" transform="translate(266.748047 0)"/>
     </g>
    </g>
    <g id="LineCollection_8">
     <path d="M 466.946078 450.052953 
L 482.946078 450.052953 
" style="fill: none; stroke: #21918c; stroke-width: 3"/>
    </g>
    <g id="line2d_39">
     <g>
      <use xlink:href="#ma80d638258" x="466.946078" y="450.052953" style="fill: #21918c; stroke: #21918c; stroke-width: 1.2"/>
     </g>
    </g>
    <g id="line2d_40">
     <g>
      <use xlink:href="#ma80d638258" x="482.946078" y="450.052953" style="fill: #21918c; stroke: #21918c; stroke-width: 1.2"/>
     </g>
    </g>
    <g id="line2d_41"/>
    <g id="line2d_42">
     <g>
      <use xlink:href="#m091fabb60c" x="474.946078" y="450.052953" style="fill: #21918c; stroke: #000000; stroke-width: 1.2"/>
     </g>
    </g>
    <g id="text_20">
     <!-- DLM_3 -->
     <g style="fill: #262626" transform="translate(503.746078 455.652953) scale(0.16 -0.16)">
      <defs>
       <path id="ArialMT-33" d="M 269 1209 
L 831 1284 
Q 928 806 1161 595 
Q 1394 384 1728 384 
Q 2125 384 2398 659 
Q 2672 934 2672 1341 
Q 2672 1728 2419 1979 
Q 2166 2231 1775 2231 
Q 1616 2231 1378 2169 
L 1441 2663 
Q 1497 2656 1531 2656 
Q 1891 2656 2178 2843 
Q 2466 3031 2466 3422 
Q 2466 3731 2256 3934 
Q 2047 4138 1716 4138 
Q 1388 4138 1169 3931 
Q 950 3725 888 3313 
L 325 3413 
Q 428 3978 793 4289 
Q 1159 4600 1703 4600 
Q 2078 4600 2393 4439 
Q 2709 4278 2876 4000 
Q 3044 3722 3044 3409 
Q 3044 3113 2884 2869 
Q 2725 2625 2413 2481 
Q 2819 2388 3044 2092 
Q 3269 1797 3269 1353 
Q 3269 753 2831 336 
Q 2394 -81 1725 -81 
Q 1122 -81 723 278 
Q 325 638 269 1209 
z
" transform="scale(0.015625)"/>
      </defs>
      <use xlink:href="#ArialMT-44"/>
      <use xlink:href="#ArialMT-4c" transform="translate(72.216797 0)"/>
      <use xlink:href="#ArialMT-4d" transform="translate(127.832031 0)"/>
      <use xlink:href="#ArialMT-5f" transform="translate(211.132812 0)"/>
      <use xlink:href="#ArialMT-33" transform="translate(266.748047 0)"/>
     </g>
    </g>
    <g id="LineCollection_9">
     <path d="M 466.946078 472.880453 
L 482.946078 472.880453 
" style="fill: none; stroke: #5ec962; stroke-width: 3"/>
    </g>
    <g id="line2d_43">
     <g>
      <use xlink:href="#m1be36e3580" x="466.946078" y="472.880453" style="fill: #5ec962; stroke: #5ec962; stroke-width: 1.2"/>
     </g>
    </g>
    <g id="line2d_44">
     <g>
      <use xlink:href="#m1be36e3580" x="482.946078" y="472.880453" style="fill: #5ec962; stroke: #5ec962; stroke-width: 1.2"/>
     </g>
    </g>
    <g id="line2d_45"/>
    <g id="line2d_46">
     <g>
      <use xlink:href="#m2c87166728" x="474.946078" y="472.880453" style="fill: #5ec962; stroke: #000000; stroke-width: 1.2"/>
     </g>
    </g>
    <g id="text_21">
     <!-- LM_C -->
     <g style="fill: #262626" transform="translate(503.746078 478.480453) scale(0.16 -0.16)">
      <defs>
       <path id="ArialMT-43" d="M 3763 1606 
L 4369 1453 
Q 4178 706 3683 314 
Q 3188 -78 2472 -78 
Q 1731 -78 1267 223 
Q 803 525 561 1097 
Q 319 1669 319 2325 
Q 319 3041 592 3573 
Q 866 4106 1370 4382 
Q 1875 4659 2481 4659 
Q 3169 4659 3637 4309 
Q 4106 3959 4291 3325 
L 3694 3184 
Q 3534 3684 3231 3912 
Q 2928 4141 2469 4141 
Q 1941 4141 1586 3887 
Q 1231 3634 1087 3207 
Q 944 2781 944 2328 
Q 944 1744 1114 1308 
Q 1284 872 1643 656 
Q 2003 441 2422 441 
Q 2931 441 3284 734 
Q 3638 1028 3763 1606 
z
" transform="scale(0.015625)"/>
      </defs>
      <use xlink:href="#ArialMT-4c"/>
      <use xlink:href="#ArialMT-4d" transform="translate(55.615234 0)"/>
      <use xlink:href="#ArialMT-5f" transform="translate(138.916016 0)"/>
      <use xlink:href="#ArialMT-43" transform="translate(194.53125 0)"/>
     </g>
    </g>
    <g id="LineCollection_10">
     <path d="M 466.946078 495.512953 
L 482.946078 495.512953 
" style="fill: none; stroke: #fde725; stroke-width: 3"/>
    </g>
    <g id="line2d_47">
     <g>
      <use xlink:href="#m4f53b87574" x="466.946078" y="495.512953" style="fill: #fde725; stroke: #fde725; stroke-width: 1.2"/>
     </g>
    </g>
    <g id="line2d_48">
     <g>
      <use xlink:href="#m4f53b87574" x="482.946078" y="495.512953" style="fill: #fde725; stroke: #fde725; stroke-width: 1.2"/>
     </g>
    </g>
    <g id="line2d_49"/>
    <g id="line2d_50">
     <g>
      <use xlink:href="#md2264b058e" x="474.946078" y="495.512953" style="fill: #fde725; stroke: #000000; stroke-width: 1.2"/>
     </g>
    </g>
    <g id="text_22">
     <!-- LM_L -->
     <g style="fill: #262626" transform="translate(503.746078 501.112953) scale(0.16 -0.16)">
      <use xlink:href="#ArialMT-4c"/>
      <use xlink:href="#ArialMT-4d" transform="translate(55.615234 0)"/>
      <use xlink:href="#ArialMT-5f" transform="translate(138.916016 0)"/>
      <use xlink:href="#ArialMT-4c" transform="translate(194.53125 0)"/>
     </g>
    </g>
   </g>
  </g>
 </g>
 <defs>
  <clipPath id="p54c2e6291a">
   <rect x="58.228125" y="7.2" width="511.492953" height="511.492953"/>
  </clipPath>
 </defs>
</svg>
